<svg width="64" height="64" viewBox="0 0 64 64" fill="none" xmlns="http://www.w3.org/2000/svg">
<g id="fi_8384133">
<g id="layer1">
<path id="path6728" d="M31.8691 57.9973C31.5198 57.9667 31.1922 57.8147 30.9434 57.5676L22.0996 48.7395C21.5114 48.1533 21.5114 47.2007 22.0996 46.6145C22.6858 46.0263 23.6384 46.0263 24.2246 46.6145L30.502 52.8918V26.0129C29.4784 25.4669 28.7715 24.3816 28.7715 23.1536C28.7715 21.3895 30.2262 19.9348 31.9902 19.9348C33.7543 19.9348 35.2246 21.3895 35.2246 23.1536C35.2246 24.3759 34.5183 25.4566 33.498 26.0051V52.8762L39.7715 46.6145C40.3577 46.0263 41.3103 46.0263 41.8965 46.6145C42.4847 47.2007 42.4847 48.1533 41.8965 48.7395L33.0527 57.5676C32.7403 57.8775 32.3076 58.0346 31.8691 57.9973ZM25.9082 40.22C19.1559 37.7382 14.3496 31.251 14.3496 23.6575C14.3496 13.9276 22.2589 5.99731 31.9902 5.99731C41.7216 5.99731 49.6504 13.9276 49.6504 23.6575C49.6504 31.2375 44.8527 37.7129 38.1191 40.2043C37.3448 40.4886 36.4862 40.0942 36.1973 39.3215C35.9134 38.546 36.3098 37.687 37.084 37.3997C42.6655 35.3344 46.6504 29.9742 46.6504 23.6575C46.6504 15.5492 40.1006 9.00903 31.9902 9.00903C23.8799 9.00903 17.3457 15.5492 17.3457 23.6575C17.3457 29.9854 21.3463 35.3581 26.9434 37.4153C27.7139 37.7042 28.1079 38.56 27.8262 39.3332C27.581 40.0517 26.7805 40.5817 25.9082 40.22Z" fill="#404852"/>
</g>
</g>
</svg>
