<svg width="1440" height="129" viewBox="0 0 1440 129" fill="none" xmlns="http://www.w3.org/2000/svg">
<g clip-path="url(#clip0_56_3)" filter="url(#filter0_d_56_3)">
<g clip-path="url(#clip1_56_3)">
<path d="M188 85L188 10L185 10L185 85L188 85ZM182 85L182 10L179 10L179 85L182 85ZM176 85L176 10L173 10L173 85L176 85ZM170 85L170 10L167 10L167 85L170 85ZM164 85L164 10L161 10L161 85L164 85ZM158 85L158 10L155 10L155 85L158 85ZM152 85L152 10L149 10L149 85L152 85ZM146 85L146 10L143 10L143 85L146 85ZM140 85L140 10L137 10L137 85L140 85ZM134 85L134 10L131 10L131 85L134 85ZM128 85L128 10L125 10L125 85L128 85ZM122 85L122 10L119 10L119 85L122 85ZM116 85L116 10L113 10L113 85L116 85Z" fill="#F8C696"/>
<path d="M113 160L113 85L38 85L38 160L113 160Z" fill="#404852"/>
<path d="M113 122.5C103.054 122.5 93.516 126.45 86.484 133.484C79.452 140.518 75.5 150.054 75.5 160L113 160L113 122.5Z" fill="#F8C696"/>
<path d="M263 160L263 85L188 85L188 160L263 160Z" fill="#404852"/>
<path fill-rule="evenodd" clip-rule="evenodd" d="M244.25 160C233.894 160 225.5 151.606 225.5 141.25C225.5 136.278 227.476 131.508 230.992 127.992C234.508 124.476 239.278 122.5 244.25 122.5C249.222 122.5 253.992 124.476 257.508 127.992C261.024 131.508 263 136.278 263 141.25C263 151.606 254.606 160 244.25 160Z" fill="#F06718"/>
<path d="M113 122.5C133.712 122.5 150.5 139.29 150.5 160L113 160L113 122.5Z" fill="#404852"/>
<path fill-rule="evenodd" clip-rule="evenodd" d="M244.25 122.5C239.278 122.5 234.508 120.524 230.992 117.008C227.476 113.492 225.5 108.722 225.5 103.75C225.5 98.778 227.476 94.008 230.992 90.492C234.508 86.976 239.278 85 244.25 85C249.222 85 253.992 86.976 257.508 90.492C261.024 94.008 263 98.778 263 103.75C263 108.722 261.024 113.492 257.508 117.008C253.992 120.524 249.222 122.5 244.25 122.5Z" fill="#F0942D"/>
<path fill-rule="evenodd" clip-rule="evenodd" d="M206.75 122.5C201.778 122.5 197.008 120.524 193.492 117.008C189.976 113.492 188 108.722 188 103.75C188 98.778 189.976 94.008 193.492 90.492C197.008 86.976 201.778 85 206.75 85C211.722 85 216.492 86.976 220.008 90.492C223.524 94.008 225.5 98.778 225.5 103.75C225.5 108.722 223.524 113.492 220.008 117.008C216.492 120.524 211.722 122.5 206.75 122.5Z" fill="#E7EAED"/>
<path fill-rule="evenodd" clip-rule="evenodd" d="M206.75 160C196.394 160 188 151.606 188 141.25C188 136.278 189.976 131.508 193.492 127.992C197.008 124.476 201.778 122.5 206.75 122.5C211.722 122.5 216.492 124.476 220.008 127.992C223.524 131.508 225.5 136.278 225.5 141.25C225.5 151.606 217.106 160 206.75 160Z" fill="#F8C696"/>
<path d="M113 122.5C103.054 122.5 93.516 118.55 86.484 111.516C79.452 104.484 75.5 94.946 75.5 85L113 85L113 122.5Z" fill="#F18635"/>
<path d="M38 122.5C58.712 122.5 75.5 139.29 75.5 160L38 160L38 122.5Z" fill="#E7EAED"/>
<path d="M38 122.5C47.946 122.5 57.484 118.55 64.516 111.516C71.548 104.484 75.5 94.946 75.5 85L38 85L38 122.5Z" fill="#898F94"/>
<path d="M-37 160C-37 140.108 -29.098 121.032 -15.032 106.968C-0.968008 92.902 18.11 85 38 85L38 160L-37 160Z" fill="#E7EAED"/>
<path d="M225.5 85L225.5 47.5L188 47.5L188 85L225.5 85Z" fill="#898F94"/>
<path d="M113 159.246L112.246 160L108.004 160L113 155.004L113 159.246ZM113 150.762L103.762 160L99.518 160L113 146.518L113 150.762ZM113 142.276L95.276 160L91.034 160L113 138.034L113 142.276ZM113 133.79L86.79 160L82.546 160L112.998 129.548L112.998 133.79L113 133.79ZM113 125.304L78.306 159.998L74.064 159.998L113.002 121.06L113.002 125.302L113 125.304ZM113 116.818L69.82 159.998L65.578 159.998L113 112.576L113 116.82L113 116.818ZM113 108.332L61.334 159.998L57.092 159.998L113 104.09L113 108.332ZM113 99.8461L52.85 159.996L48.608 159.996L113 95.6021L113 99.8441L113 99.8461ZM113 91.3601L44.364 159.996L40.12 159.996L113 87.1181L113 91.3601ZM110.88 84.9961L38 157.876L38 153.632L106.636 84.9961L110.88 84.9961ZM102.394 84.9961L38 149.39L38 145.146L98.15 84.9961L102.392 84.9961L102.394 84.9961ZM93.908 84.9961L38 140.904L38 136.662L89.666 84.9961L93.908 84.9961ZM85.422 84.9961L38 132.418L38 128.176L81.18 84.9961L85.422 84.9961ZM76.936 84.9961L37.998 123.934L37.998 119.692L72.694 84.9961L76.936 84.9961ZM68.45 84.9961L37.998 115.448L37.998 111.204L64.208 84.9941L68.452 84.9941L68.45 84.9961ZM59.964 84.9961L37.996 106.964L37.996 102.722L55.72 84.9981L59.964 84.9981L59.964 84.9961ZM51.478 84.9961L37.996 98.4781L37.996 94.2361L47.234 84.9961L51.478 84.9961ZM42.992 84.9961L37.996 89.9921L37.996 85.7501L38.75 84.9961L42.992 84.9961Z" fill="white"/>
<path d="M188 85L188 10L113 85L188 85Z" fill="#F8C696"/>
<path d="M225.5 85L225.5 47.5L263 85L225.5 85Z" fill="#E7EAED"/>
</g>
<g clip-path="url(#clip2_56_3)">
<path d="M1373 85L1373 10L1370 10L1370 85L1373 85ZM1367 85L1367 10L1364 10L1364 85L1367 85ZM1361 85L1361 10L1358 10L1358 85L1361 85ZM1355 85L1355 10L1352 10L1352 85L1355 85ZM1349 85L1349 10L1346 10L1346 85L1349 85ZM1343 85L1343 10L1340 10L1340 85L1343 85ZM1337 85L1337 10L1334 10L1334 85L1337 85ZM1331 85L1331 10L1328 10L1328 85L1331 85ZM1325 85L1325 10L1322 10L1322 85L1325 85ZM1319 85L1319 10L1316 10L1316 85L1319 85ZM1313 85L1313 10L1310 10L1310 85L1313 85ZM1307 85L1307 10L1304 10L1304 85L1307 85ZM1301 85L1301 10L1298 10L1298 85L1301 85Z" fill="#F8C696"/>
<path d="M1298 160L1298 85L1223 85L1223 160L1298 160Z" fill="#404852"/>
<path d="M1298 122.5C1288.05 122.5 1278.52 126.45 1271.48 133.484C1264.45 140.518 1260.5 150.054 1260.5 160L1298 160L1298 122.5Z" fill="#F8C696"/>
<path d="M1448 160L1448 85L1373 85L1373 160L1448 160Z" fill="#404852"/>
<path fill-rule="evenodd" clip-rule="evenodd" d="M1429.25 160C1418.89 160 1410.5 151.606 1410.5 141.25C1410.5 136.278 1412.48 131.508 1415.99 127.992C1419.51 124.476 1424.28 122.5 1429.25 122.5C1434.22 122.5 1438.99 124.476 1442.51 127.992C1446.02 131.508 1448 136.278 1448 141.25C1448 151.606 1439.61 160 1429.25 160Z" fill="#F06718"/>
<path d="M1298 122.5C1318.71 122.5 1335.5 139.29 1335.5 160L1298 160L1298 122.5Z" fill="#404852"/>
<path fill-rule="evenodd" clip-rule="evenodd" d="M1429.25 122.5C1424.28 122.5 1419.51 120.524 1415.99 117.008C1412.48 113.492 1410.5 108.722 1410.5 103.75C1410.5 98.778 1412.48 94.008 1415.99 90.492C1419.51 86.976 1424.28 85 1429.25 85C1434.22 85 1438.99 86.976 1442.51 90.492C1446.02 94.008 1448 98.778 1448 103.75C1448 108.722 1446.02 113.492 1442.51 117.008C1438.99 120.524 1434.22 122.5 1429.25 122.5Z" fill="#F0942D"/>
<path fill-rule="evenodd" clip-rule="evenodd" d="M1391.75 122.5C1386.78 122.5 1382.01 120.524 1378.49 117.008C1374.98 113.492 1373 108.722 1373 103.75C1373 98.778 1374.98 94.008 1378.49 90.492C1382.01 86.976 1386.78 85 1391.75 85C1396.72 85 1401.49 86.976 1405.01 90.492C1408.52 94.008 1410.5 98.778 1410.5 103.75C1410.5 108.722 1408.52 113.492 1405.01 117.008C1401.49 120.524 1396.72 122.5 1391.75 122.5Z" fill="#E7EAED"/>
<path fill-rule="evenodd" clip-rule="evenodd" d="M1391.75 160C1381.39 160 1373 151.606 1373 141.25C1373 136.278 1374.98 131.508 1378.49 127.992C1382.01 124.476 1386.78 122.5 1391.75 122.5C1396.72 122.5 1401.49 124.476 1405.01 127.992C1408.52 131.508 1410.5 136.278 1410.5 141.25C1410.5 151.606 1402.11 160 1391.75 160Z" fill="#F8C696"/>
<path d="M1298 122.5C1288.05 122.5 1278.52 118.55 1271.48 111.516C1264.45 104.484 1260.5 94.946 1260.5 85L1298 85L1298 122.5Z" fill="#F18635"/>
<path d="M1223 122.5C1243.71 122.5 1260.5 139.29 1260.5 160L1223 160L1223 122.5Z" fill="#E7EAED"/>
<path d="M1223 122.5C1232.95 122.5 1242.48 118.55 1249.52 111.516C1256.55 104.484 1260.5 94.946 1260.5 85L1223 85L1223 122.5Z" fill="#898F94"/>
<path d="M1148 160C1148 140.108 1155.9 121.032 1169.97 106.968C1184.03 92.902 1203.11 85 1223 85L1223 160L1148 160Z" fill="#E7EAED"/>
<path d="M1410.5 85L1410.5 47.5L1373 47.5L1373 85L1410.5 85Z" fill="#898F94"/>
<path d="M1298 159.246L1297.25 160L1293 160L1298 155.004L1298 159.246ZM1298 150.762L1288.76 160L1284.52 160L1298 146.518L1298 150.762ZM1298 142.276L1280.28 160L1276.03 160L1298 138.034L1298 142.276ZM1298 133.79L1271.79 160L1267.55 160L1298 129.548L1298 133.79L1298 133.79ZM1298 125.304L1263.31 159.998L1259.06 159.998L1298 121.06L1298 125.302L1298 125.304ZM1298 116.818L1254.82 159.998L1250.58 159.998L1298 112.576L1298 116.82L1298 116.818ZM1298 108.332L1246.33 159.998L1242.09 159.998L1298 104.09L1298 108.332ZM1298 99.8461L1237.85 159.996L1233.61 159.996L1298 95.6021L1298 99.8441L1298 99.8461ZM1298 91.3601L1229.36 159.996L1225.12 159.996L1298 87.1181L1298 91.3601ZM1295.88 84.9961L1223 157.876L1223 153.632L1291.64 84.9961L1295.88 84.9961ZM1287.39 84.9961L1223 149.39L1223 145.146L1283.15 84.9961L1287.39 84.9961L1287.39 84.9961ZM1278.91 84.9961L1223 140.904L1223 136.662L1274.67 84.9961L1278.91 84.9961ZM1270.42 84.9961L1223 132.418L1223 128.176L1266.18 84.9961L1270.42 84.9961ZM1261.94 84.9961L1223 123.934L1223 119.692L1257.69 84.9961L1261.94 84.9961ZM1253.45 84.9961L1223 115.448L1223 111.204L1249.21 84.9941L1253.45 84.9941L1253.45 84.9961ZM1244.96 84.9961L1223 106.964L1223 102.722L1240.72 84.9981L1244.96 84.9981L1244.96 84.9961ZM1236.48 84.9961L1223 98.4781L1223 94.2361L1232.23 84.9961L1236.48 84.9961ZM1227.99 84.9961L1223 89.9921L1223 85.7501L1223.75 84.9961L1227.99 84.9961Z" fill="white"/>
<path d="M1373 85L1373 10L1298 85L1373 85Z" fill="#F8C696"/>
<path d="M1410.5 85L1410.5 47.5L1448 85L1410.5 85Z" fill="#E7EAED"/>
</g>
<g clip-path="url(#clip3_56_3)">
<path d="M435.25 46.1717L436.184 47.1064L441.439 47.1064L435.25 40.9132L435.25 46.1717ZM435.25 35.6521L446.695 47.1064L451.95 47.1064L435.247 30.3935L435.247 35.6521L435.25 35.6521ZM435.25 25.1325L457.208 47.104L462.463 47.104L435.25 19.8739L435.25 25.1325ZM435.25 14.6129L467.721 47.104L472.977 47.104L435.25 9.3543L435.25 14.6129ZM435.25 4.09325L478.232 47.1015L483.487 47.1015L435.247 -1.1678L435.247 4.09325L435.25 4.09325ZM435.25 -6.42639L488.745 47.1015L494.001 47.1015L435.25 -11.685L435.25 -6.42391L435.25 -6.42639ZM435.25 -16.946L499.258 47.1015L504.514 47.1015L435.25 -22.2046L435.25 -16.946ZM435.25 -27.4656L509.769 47.099L515.025 47.099L435.25 -32.7267L435.25 -27.4681L435.25 -27.4656ZM435.25 -37.9852L520.282 47.099L525.54 47.099L435.25 -43.2463L435.25 -37.9877L435.25 -37.9852ZM437.876 -45.8744L528.167 44.471L528.167 39.2099L443.134 -45.8744L437.879 -45.8744L437.876 -45.8744ZM448.39 -45.8744L528.167 33.9513L528.167 28.6903L453.647 -45.8744L448.392 -45.8744L448.39 -45.8744ZM458.903 -45.8744L528.167 23.4317L528.167 18.1731L464.158 -45.8744L458.903 -45.8744ZM469.416 -45.8744L528.167 12.9121L528.167 7.6535L474.671 -45.8744L469.416 -45.8744ZM479.929 -45.8744L528.169 2.39494L528.169 -2.86366L485.185 -45.8744L479.929 -45.8744ZM490.44 -45.8744L528.167 -8.1247L528.167 -13.3833L495.695 -45.8744L490.438 -45.8744L490.44 -45.8744ZM500.953 -45.8744L528.169 -18.6418L528.169 -23.9004L506.211 -45.8719L500.956 -45.8719L500.953 -45.8744ZM511.466 -45.8744L528.169 -29.1615L528.169 -34.42L516.724 -45.8744L511.466 -45.8744ZM521.98 -45.8744L528.169 -39.6811L528.169 -44.9397L527.235 -45.8744L521.98 -45.8744Z" fill="#F06718"/>
<path d="M435.25 48.0413L436.184 47.1066L441.439 47.1066L435.25 53.2999L435.25 48.0413ZM435.25 58.5609L446.695 47.1066L451.95 47.1066L435.247 63.8195L435.247 58.5609L435.25 58.5609ZM435.25 69.0805L457.208 47.1091L462.463 47.1091L435.25 74.3391L435.25 69.0805ZM435.25 79.6002L467.721 47.1091L472.977 47.1091L435.25 84.8587L435.25 79.6002ZM435.25 90.1198L478.232 47.1116L483.487 47.1116L435.247 95.3808L435.247 90.1223L435.25 90.1198ZM435.25 100.639L488.745 47.1116L494.001 47.1116L435.25 105.898L435.25 100.637L435.25 100.639ZM435.25 111.159L499.258 47.1116L504.514 47.1116L435.25 116.418L435.25 111.159ZM435.25 121.679L509.769 47.114L515.025 47.114L435.25 126.937L435.25 121.679ZM435.25 132.198L520.282 47.114L525.54 47.114L435.25 137.459L435.25 132.198ZM437.876 140.087L528.167 49.7421L528.167 55.0006L443.134 140.085L437.879 140.085L437.876 140.087ZM448.39 140.087L528.167 60.2617L528.167 65.5228L453.647 140.087L448.392 140.087L448.39 140.087ZM458.903 140.087L528.167 70.7813L528.167 76.0399L464.158 140.087L458.903 140.087ZM469.416 140.087L528.167 81.301L528.167 86.5595L474.671 140.087L469.416 140.087ZM479.929 140.087L528.169 91.8181L528.169 97.0767L485.185 140.087L479.929 140.087ZM490.44 140.087L528.167 102.338L528.167 107.596L495.695 140.087L490.438 140.087L490.44 140.087ZM500.953 140.087L528.169 112.855L528.169 118.113L506.211 140.085L500.956 140.085L500.953 140.087ZM511.466 140.087L528.169 123.374L528.169 128.633L516.724 140.087L511.466 140.087ZM521.98 140.087L528.169 133.894L528.169 139.153L527.235 140.087L521.98 140.087Z" fill="#F0942D"/>
<path d="M714 -44.9323L714.934 -45.867L720.19 -45.867L714 -39.6738L714 -44.9323ZM714 -34.4127L725.445 -45.867L730.703 -45.867L714 -29.1541L714 -34.4127ZM714 -23.8931L735.958 -45.8646L741.213 -45.8646L714 -18.6345L714 -23.8931ZM714 -13.3735L746.471 -45.8646L751.727 -45.8646L714 -8.11489L714 -13.3735ZM714 -2.85385L756.982 -45.8621L762.237 -45.8621L713.998 2.4072L713.998 -2.85136L714 -2.85385ZM714 7.66579L767.495 -45.8621L772.753 -45.8621L714.003 12.9244L714.003 7.66579L714 7.66579ZM714 18.1854L778.008 -45.8621L783.264 -45.8621L714 23.444L714 18.1854ZM714 28.705L788.519 -45.8596L793.775 -45.8596L713.998 33.9636L713.998 28.705L714 28.705ZM714 39.2247L799.032 -45.8596L804.29 -45.8596L714 44.4857L714 39.2247ZM716.626 47.1138L806.917 -43.2316L806.917 -37.973L721.884 47.1113L716.626 47.1113L716.626 47.1138ZM727.14 47.1138L806.917 -32.7119L806.917 -27.4509L732.398 47.1138L727.142 47.1138L727.14 47.1138ZM737.653 47.1138L806.917 -22.1923L806.917 -16.9337L742.908 47.1138L737.653 47.1138ZM748.166 47.1138L806.917 -11.6727L806.917 -6.41411L753.421 47.1138L748.166 47.1138ZM758.679 47.1138L806.919 -1.15554L806.919 4.10305L763.935 47.1138L758.679 47.1138ZM769.193 47.1138L806.919 9.3641L806.919 14.6227L774.448 47.1138L769.193 47.1138ZM779.706 47.1138L806.922 19.8812L806.922 25.1398L784.964 47.1113L779.708 47.1113L779.706 47.1138ZM790.219 47.1138L806.922 30.4009L806.922 35.6594L795.474 47.1138L790.219 47.1138ZM800.732 47.1138L806.922 40.9205L806.922 46.1791L805.988 47.1138L800.732 47.1138Z" fill="#898F94"/>
<path d="M342.333 47.1067L342.333 140.08L435.25 140.08L435.25 47.1067L342.333 47.1067Z" fill="white"/>
<path fill-rule="evenodd" clip-rule="evenodd" d="M365.562 47.1066C371.722 47.1066 377.632 49.5561 381.988 53.9147C386.344 58.2733 388.792 64.1864 388.792 70.3499C388.792 76.5134 386.344 82.4265 381.988 86.7851C377.632 91.1437 371.722 93.5933 365.562 93.5933C359.403 93.5933 353.493 91.1437 349.137 86.7851C344.781 82.4266 342.333 76.5134 342.333 70.3499C342.333 64.1864 344.781 58.2733 349.137 53.9147C353.493 49.5561 359.403 47.1066 365.562 47.1066Z" fill="#CFD5DD"/>
<path d="M528.167 47.1067L528.167 140.08L621.083 140.08L621.083 47.1067L528.167 47.1067Z" fill="#404852"/>
<path d="M295.875 -45.8669L295.875 47.1064L342.333 47.1064L342.333 -45.8669L295.875 -45.8669Z" fill="#404852"/>
<path fill-rule="evenodd" clip-rule="evenodd" d="M277.292 102.891C282.423 102.891 286.583 107.053 286.583 112.188C286.583 117.323 282.423 121.485 277.292 121.485C274.826 121.485 272.465 120.506 270.721 118.763C268.979 117.02 268 114.655 268 112.188C268 107.053 272.16 102.891 277.292 102.891Z" fill="white"/>
<path fill-rule="evenodd" clip-rule="evenodd" d="M277.292 65.7012C282.423 65.7012 286.583 69.864 286.583 74.9986C286.583 80.1332 282.423 84.2959 277.292 84.2959C272.16 84.2959 268 80.1332 268 74.9986C268 72.5317 268.979 70.1689 270.721 68.4235C272.462 66.6781 274.826 65.7012 277.292 65.7012Z" fill="white"/>
<path fill-rule="evenodd" clip-rule="evenodd" d="M314.458 102.891C319.59 102.891 323.75 107.053 323.75 112.188C323.75 114.655 322.771 117.018 321.029 118.763C319.287 120.506 316.924 121.485 314.458 121.485C311.993 121.485 309.632 120.506 307.887 118.763C306.145 117.02 305.167 114.655 305.167 112.188C305.167 107.053 309.327 102.891 314.458 102.891Z" fill="white"/>
<path fill-rule="evenodd" clip-rule="evenodd" d="M314.458 65.7012C316.921 65.7012 319.285 66.6805 321.029 68.4235C322.774 70.1664 323.75 72.5317 323.75 74.9986C323.75 80.1332 319.59 84.2959 314.458 84.2959C309.327 84.2959 305.167 80.1332 305.167 74.9986C305.167 72.5317 306.145 70.1689 307.887 68.4235C309.629 66.6781 311.993 65.7012 314.458 65.7012Z" fill="white"/>
<path d="M388.792 47.1067L388.792 140.08L435.25 140.08L435.25 47.1067L388.792 47.1067Z" fill="#898F94"/>
<path fill-rule="evenodd" clip-rule="evenodd" d="M365.562 93.5934C378.392 93.5934 388.792 103.999 388.792 116.837C388.792 123 386.344 128.913 381.988 133.272C377.632 137.631 371.722 140.08 365.562 140.08C359.403 140.08 353.493 137.631 349.137 133.272C344.781 128.913 342.333 123 342.333 116.837C342.333 103.999 352.733 93.5934 365.562 93.5934Z" fill="#F06718"/>
<path d="M528.167 47.1067L528.167 140.08L435.25 47.1067L528.167 47.1067Z" fill="#F0942D"/>
<path d="M528.167 47.1064L621.083 47.1064L621.083 43.3875L528.167 43.3875L528.167 47.1064ZM528.167 39.6686L621.083 39.6686L621.083 35.9496L528.167 35.9496L528.167 39.6686ZM528.167 32.2307L621.083 32.2307L621.083 28.5118L528.167 28.5118L528.167 32.2307ZM528.167 24.7928L621.083 24.7928L621.083 21.0739L528.167 21.0739L528.167 24.7928ZM528.167 17.355L621.083 17.355L621.083 13.636L528.167 13.636L528.167 17.355ZM528.167 9.9171L621.083 9.91709L621.083 6.19816L528.167 6.19816L528.167 9.9171ZM528.167 2.47923L621.083 2.47923L621.083 -1.23971L528.167 -1.23971L528.167 2.47923ZM528.167 -4.95864L621.083 -4.95864L621.083 -8.67758L528.167 -8.67757L528.167 -4.95864ZM528.167 -12.3965L621.083 -12.3965L621.083 -16.1154L528.167 -16.1154L528.167 -12.3965ZM528.167 -19.8344L621.083 -19.8344L621.083 -23.5533L528.167 -23.5533L528.167 -19.8344ZM528.167 -27.2722L621.083 -27.2723L621.083 -30.9912L528.167 -30.9912L528.167 -27.2722ZM528.167 -34.7101L621.083 -34.7101L621.083 -38.4291L528.167 -38.4291L528.167 -34.7101ZM528.167 -42.148L621.083 -42.148L621.083 -45.8669L528.167 -45.8669L528.167 -42.148Z" fill="#404852"/>
<path fill-rule="evenodd" clip-rule="evenodd" d="M621.083 47.1066C621.083 72.7796 641.882 93.5933 667.542 93.5933C693.202 93.5933 714 72.7796 714 47.1066L621.083 47.1066Z" fill="#F8C696"/>
<path d="M342.333 -45.8669C342.333 -21.2079 352.123 2.43957 369.549 19.8739C386.973 37.3108 410.608 47.1064 435.25 47.1064L435.25 -45.8669L342.333 -45.8669Z" fill="#F8C696"/>
<path d="M621.083 93.5934L621.083 140.08L714 140.08L714 93.5934L621.083 93.5934Z" fill="#E7EAED"/>
<path d="M621.083 -45.8671L621.083 0.619629L714 0.619625L714 -45.8671L621.083 -45.8671Z" fill="white"/>
</g>
<g clip-path="url(#clip4_56_3)">
<path d="M993.75 46.1717L992.816 47.1064L987.56 47.1064L993.75 40.9132L993.75 46.1717ZM993.75 35.6521L982.305 47.1064L977.05 47.1064L993.752 30.3935L993.752 35.6521L993.75 35.6521ZM993.75 25.1325L971.792 47.104L966.537 47.104L993.75 19.8739L993.75 25.1325ZM993.75 14.6129L961.279 47.104L956.023 47.104L993.75 9.3543L993.75 14.6129ZM993.75 4.09325L950.768 47.1015L945.513 47.1015L993.752 -1.1678L993.752 4.09325L993.75 4.09325ZM993.75 -6.42639L940.255 47.1015L934.999 47.1015L993.75 -11.685L993.75 -6.42391L993.75 -6.42639ZM993.75 -16.946L929.742 47.1015L924.486 47.1015L993.75 -22.2046L993.75 -16.946ZM993.75 -27.4656L919.231 47.099L913.975 47.099L993.75 -32.7267L993.75 -27.4681L993.75 -27.4656ZM993.75 -37.9852L908.718 47.099L903.46 47.099L993.75 -43.2463L993.75 -37.9877L993.75 -37.9852ZM991.124 -45.8744L900.833 44.471L900.833 39.2099L985.866 -45.8744L991.121 -45.8744L991.124 -45.8744ZM980.61 -45.8744L900.833 33.9513L900.833 28.6903L975.352 -45.8744L980.608 -45.8744L980.61 -45.8744ZM970.097 -45.8744L900.833 23.4317L900.833 18.1731L964.842 -45.8744L970.097 -45.8744ZM959.584 -45.8744L900.833 12.9121L900.833 7.6535L954.329 -45.8744L959.584 -45.8744ZM949.071 -45.8744L900.831 2.39494L900.831 -2.86366L943.815 -45.8744L949.071 -45.8744ZM938.56 -45.8744L900.833 -8.1247L900.833 -13.3833L933.305 -45.8744L938.562 -45.8744L938.56 -45.8744ZM928.047 -45.8744L900.831 -18.6418L900.831 -23.9004L922.789 -45.8719L928.044 -45.8719L928.047 -45.8744ZM917.534 -45.8744L900.831 -29.1615L900.831 -34.42L912.276 -45.8744L917.534 -45.8744ZM907.02 -45.8744L900.831 -39.6811L900.831 -44.9397L901.765 -45.8744L907.02 -45.8744Z" fill="#F06718"/>
<path d="M993.75 48.0413L992.816 47.1066L987.56 47.1066L993.75 53.2999L993.75 48.0413ZM993.75 58.5609L982.305 47.1066L977.05 47.1066L993.752 63.8195L993.752 58.5609L993.75 58.5609ZM993.75 69.0805L971.792 47.1091L966.537 47.1091L993.75 74.3391L993.75 69.0805ZM993.75 79.6002L961.279 47.1091L956.023 47.1091L993.75 84.8587L993.75 79.6002ZM993.75 90.1198L950.768 47.1116L945.513 47.1116L993.752 95.3808L993.752 90.1223L993.75 90.1198ZM993.75 100.639L940.255 47.1116L934.999 47.1116L993.75 105.898L993.75 100.637L993.75 100.639ZM993.75 111.159L929.742 47.1116L924.486 47.1116L993.75 116.418L993.75 111.159ZM993.75 121.679L919.231 47.114L913.975 47.114L993.75 126.937L993.75 121.679ZM993.75 132.198L908.718 47.114L903.46 47.114L993.75 137.459L993.75 132.198ZM991.124 140.087L900.833 49.7421L900.833 55.0006L985.866 140.085L991.121 140.085L991.124 140.087ZM980.61 140.087L900.833 60.2617L900.833 65.5228L975.352 140.087L980.608 140.087L980.61 140.087ZM970.097 140.087L900.833 70.7813L900.833 76.0399L964.842 140.087L970.097 140.087ZM959.584 140.087L900.833 81.301L900.833 86.5595L954.329 140.087L959.584 140.087ZM949.071 140.087L900.831 91.8181L900.831 97.0767L943.815 140.087L949.071 140.087ZM938.56 140.087L900.833 102.338L900.833 107.596L933.305 140.087L938.562 140.087L938.56 140.087ZM928.047 140.087L900.831 112.855L900.831 118.113L922.789 140.085L928.044 140.085L928.047 140.087ZM917.534 140.087L900.831 123.374L900.831 128.633L912.276 140.087L917.534 140.087ZM907.02 140.087L900.831 133.894L900.831 139.153L901.765 140.087L907.02 140.087Z" fill="#F0942D"/>
<path d="M715 -44.9323L714.066 -45.867L708.81 -45.867L715 -39.6738L715 -44.9323ZM715 -34.4127L703.555 -45.867L698.297 -45.867L715 -29.1541L715 -34.4127ZM715 -23.8931L693.042 -45.8646L687.787 -45.8646L715 -18.6345L715 -23.8931ZM715 -13.3735L682.529 -45.8646L677.273 -45.8646L715 -8.11489L715 -13.3735ZM715 -2.85385L672.018 -45.8621L666.763 -45.8621L715.002 2.4072L715.002 -2.85136L715 -2.85385ZM715 7.66579L661.505 -45.8621L656.247 -45.8621L714.997 12.9244L714.997 7.66579L715 7.66579ZM715 18.1854L650.992 -45.8621L645.736 -45.8621L715 23.444L715 18.1854ZM715 28.705L640.481 -45.8596L635.225 -45.8596L715.002 33.9636L715.002 28.705L715 28.705ZM715 39.2247L629.968 -45.8596L624.71 -45.8596L715 44.4857L715 39.2247ZM712.374 47.1138L622.083 -43.2316L622.083 -37.973L707.116 47.1113L712.374 47.1113L712.374 47.1138ZM701.86 47.1138L622.083 -32.7119L622.083 -27.4509L696.602 47.1138L701.858 47.1138L701.86 47.1138ZM691.347 47.1138L622.083 -22.1923L622.083 -16.9337L686.092 47.1138L691.347 47.1138ZM680.834 47.1138L622.083 -11.6727L622.083 -6.41411L675.579 47.1138L680.834 47.1138ZM670.321 47.1138L622.081 -1.15554L622.081 4.10305L665.065 47.1138L670.321 47.1138ZM659.807 47.1138L622.081 9.3641L622.081 14.6227L654.552 47.1138L659.807 47.1138ZM649.294 47.1138L622.078 19.8812L622.078 25.1398L644.036 47.1113L649.292 47.1113L649.294 47.1138ZM638.781 47.1138L622.078 30.4009L622.078 35.6594L633.526 47.1138L638.781 47.1138ZM628.268 47.1138L622.078 40.9205L622.078 46.1791L623.012 47.1138L628.268 47.1138Z" fill="#898F94"/>
<path d="M1086.67 47.1067L1086.67 140.08L993.75 140.08L993.75 47.1067L1086.67 47.1067Z" fill="white"/>
<path fill-rule="evenodd" clip-rule="evenodd" d="M1063.44 47.1066C1057.28 47.1066 1051.37 49.5561 1047.01 53.9147C1042.66 58.2733 1040.21 64.1864 1040.21 70.3499C1040.21 76.5134 1042.66 82.4265 1047.01 86.7851C1051.37 91.1437 1057.28 93.5933 1063.44 93.5933C1069.6 93.5933 1075.51 91.1437 1079.86 86.7851C1084.22 82.4266 1086.67 76.5134 1086.67 70.3499C1086.67 64.1864 1084.22 58.2733 1079.86 53.9147C1075.51 49.5561 1069.6 47.1066 1063.44 47.1066Z" fill="#CFD5DD"/>
<path d="M900.833 47.1067L900.833 140.08L807.917 140.08L807.917 47.1067L900.833 47.1067Z" fill="#404852"/>
<path d="M1133.13 -45.8669L1133.12 47.1064L1086.67 47.1064L1086.67 -45.8669L1133.13 -45.8669Z" fill="#404852"/>
<path fill-rule="evenodd" clip-rule="evenodd" d="M1151.71 102.891C1146.58 102.891 1142.42 107.053 1142.42 112.188C1142.42 117.323 1146.58 121.485 1151.71 121.485C1154.17 121.485 1156.54 120.506 1158.28 118.763C1160.02 117.02 1161 114.655 1161 112.188C1161 107.053 1156.84 102.891 1151.71 102.891Z" fill="white"/>
<path fill-rule="evenodd" clip-rule="evenodd" d="M1151.71 65.7012C1146.58 65.7012 1142.42 69.864 1142.42 74.9986C1142.42 80.1332 1146.58 84.2959 1151.71 84.2959C1156.84 84.2959 1161 80.1332 1161 74.9986C1161 72.5317 1160.02 70.1689 1158.28 68.4235C1156.54 66.6781 1154.17 65.7012 1151.71 65.7012Z" fill="white"/>
<path fill-rule="evenodd" clip-rule="evenodd" d="M1114.54 102.891C1109.41 102.891 1105.25 107.053 1105.25 112.188C1105.25 114.655 1106.23 117.018 1107.97 118.763C1109.71 120.506 1112.08 121.485 1114.54 121.485C1117.01 121.485 1119.37 120.506 1121.11 118.763C1122.85 117.02 1123.83 114.655 1123.83 112.188C1123.83 107.053 1119.67 102.891 1114.54 102.891Z" fill="white"/>
<path fill-rule="evenodd" clip-rule="evenodd" d="M1114.54 65.7012C1112.08 65.7012 1109.71 66.6805 1107.97 68.4235C1106.23 70.1664 1105.25 72.5317 1105.25 74.9986C1105.25 80.1332 1109.41 84.2959 1114.54 84.2959C1119.67 84.2959 1123.83 80.1332 1123.83 74.9986C1123.83 72.5317 1122.85 70.1689 1121.11 68.4235C1119.37 66.6781 1117.01 65.7012 1114.54 65.7012Z" fill="white"/>
<path d="M1040.21 47.1067L1040.21 140.08L993.75 140.08L993.75 47.1067L1040.21 47.1067Z" fill="#898F94"/>
<path fill-rule="evenodd" clip-rule="evenodd" d="M1063.44 93.5934C1050.61 93.5934 1040.21 103.999 1040.21 116.837C1040.21 123 1042.66 128.913 1047.01 133.272C1051.37 137.631 1057.28 140.08 1063.44 140.08C1069.6 140.08 1075.51 137.631 1079.86 133.272C1084.22 128.913 1086.67 123 1086.67 116.837C1086.67 103.999 1076.27 93.5934 1063.44 93.5934Z" fill="#F06718"/>
<path d="M900.833 47.1067L900.833 140.08L993.75 47.1067L900.833 47.1067Z" fill="#F0942D"/>
<path d="M900.833 47.1064L807.917 47.1064L807.917 43.3875L900.833 43.3875L900.833 47.1064ZM900.833 39.6686L807.917 39.6686L807.917 35.9496L900.833 35.9496L900.833 39.6686ZM900.833 32.2307L807.917 32.2307L807.917 28.5118L900.833 28.5118L900.833 32.2307ZM900.833 24.7928L807.917 24.7928L807.917 21.0739L900.833 21.0739L900.833 24.7928ZM900.833 17.355L807.917 17.355L807.917 13.636L900.833 13.636L900.833 17.355ZM900.833 9.9171L807.917 9.91709L807.917 6.19816L900.833 6.19816L900.833 9.9171ZM900.833 2.47923L807.917 2.47923L807.917 -1.23971L900.833 -1.23971L900.833 2.47923ZM900.833 -4.95864L807.917 -4.95864L807.917 -8.67758L900.833 -8.67757L900.833 -4.95864ZM900.833 -12.3965L807.917 -12.3965L807.917 -16.1154L900.833 -16.1154L900.833 -12.3965ZM900.833 -19.8344L807.917 -19.8344L807.917 -23.5533L900.833 -23.5533L900.833 -19.8344ZM900.833 -27.2722L807.917 -27.2723L807.917 -30.9912L900.833 -30.9912L900.833 -27.2722ZM900.833 -34.7101L807.917 -34.7101L807.917 -38.4291L900.833 -38.4291L900.833 -34.7101ZM900.833 -42.148L807.917 -42.148L807.917 -45.8669L900.833 -45.8669L900.833 -42.148Z" fill="#404852"/>
<path fill-rule="evenodd" clip-rule="evenodd" d="M807.917 47.1066C807.917 72.7796 787.118 93.5933 761.458 93.5933C735.798 93.5933 715 72.7796 715 47.1066L807.917 47.1066Z" fill="#F8C696"/>
<path d="M1086.67 -45.8669C1086.67 -21.2079 1076.88 2.43957 1059.45 19.8739C1042.03 37.3108 1018.39 47.1064 993.75 47.1064L993.75 -45.8669L1086.67 -45.8669Z" fill="#F8C696"/>
<path d="M807.917 93.5934L807.917 140.08L715 140.08L715 93.5934L807.917 93.5934Z" fill="#E7EAED"/>
<path d="M807.917 -45.8671L807.917 0.619629L715 0.619625L715 -45.8671L807.917 -45.8671Z" fill="white"/>
</g>
</g>
<defs>
<filter id="filter0_d_56_3" x="-4" y="0" width="1448" height="137" filterUnits="userSpaceOnUse" color-interpolation-filters="sRGB">
<feFlood flood-opacity="0" result="BackgroundImageFix"/>
<feColorMatrix in="SourceAlpha" type="matrix" values="0 0 0 0 0 0 0 0 0 0 0 0 0 0 0 0 0 0 127 0" result="hardAlpha"/>
<feOffset dy="4"/>
<feGaussianBlur stdDeviation="2"/>
<feComposite in2="hardAlpha" operator="out"/>
<feColorMatrix type="matrix" values="0 0 0 0 0 0 0 0 0 0 0 0 0 0 0 0 0 0 0.25 0"/>
<feBlend mode="normal" in2="BackgroundImageFix" result="effect1_dropShadow_56_3"/>
<feBlend mode="normal" in="SourceGraphic" in2="effect1_dropShadow_56_3" result="shape"/>
</filter>
<clipPath id="clip0_56_3">
<rect width="1440" height="129" fill="white"/>
</clipPath>
<clipPath id="clip1_56_3">
<rect width="338" height="360" fill="white" transform="translate(323 10) rotate(90)"/>
</clipPath>
<clipPath id="clip2_56_3">
<rect width="338" height="360" fill="white" transform="translate(1508 10) rotate(90)"/>
</clipPath>
<clipPath id="clip3_56_3">
<rect width="419" height="446" fill="white" transform="translate(268 419) rotate(-90)"/>
</clipPath>
<clipPath id="clip4_56_3">
<rect width="419" height="446" fill="white" transform="matrix(4.37114e-08 -1 -1 -4.37114e-08 1161 419)"/>
</clipPath>
</defs>
</svg>
