<svg width="105" height="91" viewBox="0 0 105 91" fill="none" xmlns="http://www.w3.org/2000/svg">
<g id="fi_1045957" clip-path="url(#clip0_4_2811)">
<g id="Group">
<g id="Group_2">
<path id="Vector" d="M44.5422 55.4531H44.4384C43.6445 55.4531 42.9737 54.6391 42.9737 53.6758C42.9737 52.7124 43.6447 51.8984 44.4384 51.8984H47.7845C48.7659 51.8984 49.5618 51.1027 49.5618 50.1211C49.5618 49.1395 48.7659 48.3438 47.7845 48.3438H44.4384C41.6708 48.3438 39.4191 50.7357 39.4191 53.6758C39.4191 56.6158 41.6708 59.0078 44.4384 59.0078H44.5422C45.3362 59.0078 46.0069 59.8218 46.0069 60.7851C46.0069 61.7484 45.3362 62.5624 44.5422 62.5624H41.1964C40.215 62.5624 39.4191 63.3582 39.4191 64.3398C39.4191 65.3214 40.215 66.1171 41.1964 66.1171H44.5422C47.3099 66.1171 49.5616 63.7252 49.5616 60.7851C49.5616 57.845 47.3099 55.4531 44.5422 55.4531Z" fill="#F06718"/>
</g>
</g>
<g id="Group_3">
<g id="Group_4">
<path id="Vector_2" d="M32.157 55.4531H32.0532C31.2593 55.4531 30.5885 54.6391 30.5885 53.6758C30.5885 52.7124 31.2593 51.8984 32.0532 51.8984H35.3991C36.3805 51.8984 37.1764 51.1027 37.1764 50.1211C37.1764 49.1395 36.3805 48.3438 35.3991 48.3438H32.0532C29.2856 48.3438 27.0339 50.7357 27.0339 53.6758C27.0339 56.6158 29.2856 59.0078 32.0532 59.0078H32.157C32.951 59.0078 33.6217 59.8218 33.6217 60.7851C33.6217 61.7484 32.951 62.5624 32.157 62.5624H28.811C27.8296 62.5624 27.0337 63.3582 27.0337 64.3398C27.0337 65.3214 27.8296 66.1171 28.811 66.1171H32.157C34.9247 66.1171 37.1764 63.7252 37.1764 60.7851C37.1764 57.845 34.9247 55.4531 32.157 55.4531Z" fill="#F06718"/>
</g>
</g>
<g id="Group_5">
<g id="Group_6">
<path id="Vector_3" d="M22.7878 62.6159H19.4938C18.6574 62.6159 17.977 61.9356 17.977 61.0993V53.3617C17.977 52.5254 18.6574 51.8451 19.4938 51.8451H22.7878C23.7692 51.8451 24.5651 51.0494 24.5651 50.0677C24.5651 49.0861 23.7692 48.2904 22.7878 48.2904H19.4938C16.6975 48.2904 14.4224 50.5654 14.4224 53.3617V61.0993C14.4224 63.8956 16.6975 66.1706 19.4938 66.1706H22.7878C23.7692 66.1706 24.5651 65.3749 24.5651 64.3933C24.5651 63.4116 23.7692 62.6159 22.7878 62.6159Z" fill="#F06718"/>
</g>
</g>
<g id="Group_7">
<g id="Group_8">
<path id="Vector_4" d="M66.1173 0H21.6839C18.7438 0 16.3519 2.39194 16.3519 5.33201V41.2344H5.33183C2.39176 41.2344 0 43.6263 0 46.5664V67.8944C0 70.8345 2.39176 73.2265 5.33183 73.2265H16.3519V85.6678C16.3519 88.6079 18.7438 90.9998 21.6839 90.9998H27.0157C27.9971 90.9998 28.793 90.2041 28.793 89.2225C28.793 88.2409 27.9971 87.4451 27.0157 87.4451H21.6839C20.7038 87.4451 19.9065 86.6478 19.9065 85.6678V73.2265H58.6523C61.5924 73.2265 63.9841 70.8345 63.9841 67.8944V46.5664C63.9841 43.6263 61.5924 41.2344 58.6523 41.2344H53.3203C52.3388 41.2344 51.5429 42.0301 51.5429 43.0117C51.5429 43.9934 52.3388 44.7891 53.3203 44.7891H58.6523C59.6323 44.7891 60.4295 45.5864 60.4295 46.5664V67.8944C60.4295 68.8745 59.6323 69.6718 58.6523 69.6718H5.33183C4.35181 69.6718 3.55467 68.8745 3.55467 67.8944V46.5664C3.55467 45.5864 4.35181 44.7891 5.33183 44.7891H41.0627C42.0441 44.7891 42.84 43.9934 42.84 43.0117C42.84 42.0301 42.0441 41.2344 41.0627 41.2344H19.9065V5.33201C19.9065 4.35199 20.7038 3.55467 21.6839 3.55467H66.1173C68.0773 3.55467 69.672 5.1493 69.672 7.10935V15.996C69.672 18.9361 72.0637 21.328 75.0038 21.328H83.8907C85.8505 21.328 87.4451 22.9227 87.4453 24.8827V85.6678C87.4453 86.6478 86.648 87.4451 85.668 87.4451H39.2733C38.2918 87.4451 37.4959 88.2409 37.4959 89.2225C37.4959 90.2041 38.2918 90.9998 39.2733 90.9998H85.668C88.6081 90.9998 91 88.6079 91 85.6678V24.8827C91 11.1624 79.8376 0 66.1173 0ZM83.8907 17.7734H75.0038C74.0238 17.7734 73.2266 16.9761 73.2266 15.996V7.10935C73.2266 6.23401 73.0667 5.39546 72.7759 4.62036C79.1891 6.73326 84.2669 11.8109 86.3796 18.2241C85.6045 17.9333 84.766 17.7734 83.8907 17.7734Z" fill="#F06718"/>
</g>
</g>
<g id="Group_9">
<g id="Group_10">
<path id="Vector_5" d="M34.1668 87.4453H34.1188C33.1373 87.4453 32.3414 88.241 32.3414 89.2226C32.3414 90.2043 33.1373 91 34.1188 91H34.1668C35.1482 91 35.9441 90.2043 35.9441 89.2226C35.9441 88.241 35.1484 87.4453 34.1668 87.4453Z" fill="#F06718"/>
</g>
</g>
<g id="Group_11">
<g id="Group_12">
<path id="Vector_6" d="M39.3829 17.7733H28.4221C27.4407 17.7733 26.6448 18.569 26.6448 19.5507C26.6448 20.5323 27.4407 21.328 28.4221 21.328H39.3829C40.3644 21.328 41.1603 20.5323 41.1603 19.5507C41.1603 18.569 40.3644 17.7733 39.3829 17.7733Z" fill="#F06718"/>
</g>
</g>
<g id="Group_13">
<g id="Group_14">
<path id="Vector_7" d="M50.344 24.8827H28.4221C27.4407 24.8827 26.6448 25.6784 26.6448 26.66C26.6448 27.6417 27.4407 28.4374 28.4221 28.4374H50.344C51.3254 28.4374 52.1213 27.6415 52.1213 26.66C52.1213 25.6784 51.3254 24.8827 50.344 24.8827Z" fill="#F06718"/>
</g>
</g>
<g id="Group_15">
<g id="Group_16">
<path id="Vector_8" d="M39.3829 31.9921H28.4221C27.4407 31.9921 26.6448 32.7878 26.6448 33.7694C26.6448 34.751 27.4407 35.5467 28.4221 35.5467H39.3829C40.3644 35.5467 41.1603 34.751 41.1603 33.7694C41.1603 32.7878 40.3644 31.9921 39.3829 31.9921Z" fill="#F06718"/>
</g>
</g>
<g id="Group_17">
<g id="Group_18">
<path id="Vector_9" d="M46.2172 41.2344H46.1692C45.1877 41.2344 44.3918 42.0301 44.3918 43.0117C44.3918 43.9933 45.1876 44.789 46.1692 44.789H46.2172C47.1986 44.789 47.9945 43.9933 47.9945 43.0117C47.9945 42.0301 47.1986 41.2344 46.2172 41.2344Z" fill="#F06718"/>
</g>
</g>
</g>
<defs>
<clipPath id="clip0_4_2811">
<rect width="105" height="91" fill="white"/>
</clipPath>
</defs>
</svg>
