<svg width="91" height="91" viewBox="0 0 91 91" fill="none" xmlns="http://www.w3.org/2000/svg">
<g id="fi_5627092" clip-path="url(#clip0_4_2901)">
<g id="Group">
<path id="Vector" d="M58.3293 88.209H22.1438V2.79102H31.8076C32.6129 2.79102 33.2656 2.1384 33.2656 1.33301C33.2656 0.527619 32.6129 -0.125 31.8076 -0.125H14.8867C10.5378 -0.125 6.99988 3.41296 6.99988 7.76202V83.2382C6.99988 87.587 10.5378 91.125 14.8867 91.125H58.3293C59.1347 91.125 59.7873 90.4724 59.7873 89.667C59.7873 88.8616 59.1347 88.209 58.3293 88.209ZM9.91589 83.2382V7.76202C9.91589 5.02107 12.146 2.79102 14.8867 2.79102H19.2278V88.209H14.8867C12.1459 88.209 9.91589 85.9791 9.91589 83.2382Z" fill="#F06718" stroke="#F06718" stroke-width="0.25"/>
<path id="Vector_2" d="M55.8023 14.003H55.8023C56.2654 14.0028 56.728 13.8801 57.1481 13.6352L60.6397 11.6011L64.1313 13.6352C64.1313 13.6352 64.1313 13.6352 64.1313 13.6352C64.968 14.1229 65.9705 14.1257 66.8098 13.643C67.6495 13.1604 68.1513 12.2929 68.1513 11.3247V2.79102H78.2226C79.8003 2.79102 81.0839 4.07464 81.0839 5.65231V85.3479C81.0839 86.9254 79.8003 88.209 78.2226 88.209H63.661C62.8556 88.209 62.203 88.8616 62.203 89.667C62.203 90.4724 62.8556 91.125 63.661 91.125H78.2226C81.4082 91.125 83.9999 88.5335 83.9999 85.3479V5.65231C84.0003 2.4667 81.4086 -0.125 78.2229 -0.125H37.1396C36.3343 -0.125 35.6816 0.527619 35.6816 1.33301C35.6816 2.1384 36.3343 2.79102 37.1396 2.79102H53.128V11.3247C53.128 12.2931 53.6301 13.1607 54.4696 13.643C54.8866 13.8827 55.344 14.003 55.8023 14.003ZM59.2939 9.01048L56.0442 10.9037V2.79102H65.2357V10.9037L61.986 9.01048L61.9231 9.11848L61.986 9.01047C61.1557 8.52678 60.1242 8.52678 59.2939 9.01047L59.3568 9.11848L59.2939 9.01048Z" fill="#F06718" stroke="#F06718" stroke-width="0.25"/>
<path id="Vector_3" d="M70.2577 37.8487C70.2579 37.0434 69.6053 36.3906 68.7999 36.3906H65.4999C64.6945 36.3906 64.0419 37.0433 64.0419 37.8486C64.0419 38.654 64.6945 39.3066 65.4999 39.3066H67.1604C66.9836 39.9842 66.6714 40.6127 66.1959 41.0809C65.6874 41.5816 64.985 41.9063 64.0384 41.9063C61.801 41.9063 59.9808 40.0859 59.9808 37.8486C59.9808 35.6112 61.8011 33.791 64.0384 33.791C64.852 33.791 65.6359 34.0305 66.3062 34.4832L66.3062 34.4832C66.9735 34.9336 67.8796 34.7587 68.3305 34.0911L68.3305 34.0911C68.7811 33.4238 68.6058 32.5175 67.9384 32.0668C66.784 31.2871 65.4354 30.875 64.0382 30.875C60.1929 30.875 57.0646 34.0033 57.0646 37.8486C57.0646 41.694 60.1929 44.8223 64.0382 44.8223C65.867 44.8223 67.425 44.1037 68.5245 42.8682C69.623 41.6337 70.2577 39.8905 70.2577 37.8487ZM70.2577 37.8487L70.1327 37.8486L70.2577 37.8487Z" fill="#F06718" stroke="#F06718" stroke-width="0.25"/>
<path id="Vector_4" d="M52.4279 30.8752C51.6225 30.8829 50.9762 31.5421 50.9839 32.3472L51.0466 38.8119L46.0146 31.5252L46.0146 31.5252C45.6521 31.0003 44.9907 30.7721 44.381 30.9618L44.3809 30.9619C43.7719 31.1518 43.3568 31.7157 43.3568 32.3538V43.3644C43.3568 44.1698 44.0094 44.8224 44.8148 44.8224C45.6202 44.8224 46.2728 44.1698 46.2728 43.3644V37.0307L51.0605 43.9633L51.0605 43.9634C51.4827 44.5733 52.1939 44.8399 52.8711 44.628C53.564 44.4115 54.003 43.7628 54.003 42.9796L54.003 42.9784L53.8999 32.3188V32.3188C53.892 31.5145 53.2324 30.8636 52.4279 30.8752ZM52.4279 30.8752L52.4291 31.0001L52.4273 30.8752C52.4275 30.8752 52.4277 30.8752 52.4279 30.8752Z" fill="#F06718" stroke="#F06718" stroke-width="0.25"/>
<path id="Vector_5" d="M38.9137 33.8413C39.7191 33.8413 40.3717 33.1887 40.3717 32.3833C40.3717 31.5779 39.7191 30.9253 38.9137 30.9253H34.3081C33.5027 30.9253 32.8501 31.5779 32.8501 32.3833V43.314C32.8501 44.1194 33.5027 44.772 34.3081 44.772H38.9137C39.7191 44.772 40.3717 44.1194 40.3717 43.314C40.3717 42.5086 39.7191 41.856 38.9137 41.856H35.7661V39.3066H38.5743C39.3797 39.3066 40.0323 38.654 40.0323 37.8486C40.0323 37.0432 39.3797 36.3906 38.5743 36.3906H35.7661V33.8413H38.9137Z" fill="#F06718" stroke="#F06718" stroke-width="0.25"/>
<path id="Vector_6" d="M54.4212 50.7234L54.4212 50.7234L51.3763 55.9973L48.3314 50.7234C48.3314 50.7234 48.3314 50.7234 48.3314 50.7234C47.8458 49.8822 46.9409 49.3601 45.9696 49.3601H30.196C29.6027 49.3601 29.1194 48.8769 29.1194 48.2832V27.414C29.1194 26.8203 29.6025 26.3372 30.196 26.3372H72.5565C73.1499 26.3372 73.6332 26.8203 73.6332 27.414V48.2832C73.6332 48.8769 73.1501 49.3601 72.5564 49.3601H56.783C55.8116 49.3601 54.9069 49.8824 54.4212 50.7234ZM53.7379 57.7392L53.6296 57.6767L53.7379 57.7392L56.8919 52.2761H72.5564C74.758 52.2761 76.5492 50.4849 76.5492 48.2832V27.414C76.5492 25.2123 74.7582 23.4211 72.5565 23.4211H30.196C27.9944 23.4211 26.2034 25.2123 26.2034 27.414V48.2832C26.2034 50.4849 27.9944 52.2761 30.196 52.2761H45.8607L49.0145 57.7391C49.5072 58.5924 50.3909 59.1027 51.3763 59.1027C52.3615 59.1027 53.2451 58.5924 53.7379 57.7392Z" fill="#F06718" stroke="#F06718" stroke-width="0.25"/>
<path id="Vector_7" d="M70.0802 67.269C70.0802 66.4637 69.4276 65.811 68.6222 65.811H34.1304C33.325 65.811 32.6724 66.4637 32.6724 67.269C32.6724 68.0744 33.325 68.7271 34.1304 68.7271H68.6222C69.4276 68.7271 70.0802 68.0744 70.0802 67.269Z" fill="#F06718" stroke="#F06718" stroke-width="0.25"/>
<path id="Vector_8" d="M40.2142 72.8918C39.4088 72.8918 38.7562 73.5445 38.7562 74.3499C38.7562 75.1552 39.4088 75.8079 40.2142 75.8079H62.5384C63.3436 75.8079 63.9964 75.1553 63.9964 74.3499C63.9964 73.5445 63.3436 72.8918 62.5384 72.8918H40.2142Z" fill="#F06718" stroke="#F06718" stroke-width="0.25"/>
</g>
</g>
<defs>
<clipPath id="clip0_4_2901">
<rect width="91" height="91" fill="white"/>
</clipPath>
</defs>
</svg>
