<svg width="540" height="282" viewBox="0 0 540 282" fill="none" xmlns="http://www.w3.org/2000/svg">
<g clip-path="url(#clip0_36_46)">
<path d="M337.5 1.13101L336.369 -4.95691e-08L330.006 -3.27704e-07L337.5 7.49399L337.5 1.13101ZM337.5 13.86L323.643 -6.0584e-07L317.28 -8.83976e-07L337.503 20.223L337.503 13.86L337.5 13.86ZM337.5 26.589L310.914 0.00300177L304.551 0.00300149L337.5 32.952L337.5 26.589ZM337.5 39.318L298.185 0.00300121L291.822 0.00300093L337.5 45.681L337.5 39.318ZM337.5 52.047L285.459 0.00600358L279.096 0.00600331L337.503 58.413L337.503 52.047L337.5 52.047ZM337.5 64.776L272.73 0.00600303L266.367 0.00600275L337.5 71.139L337.5 64.773L337.5 64.776ZM337.5 77.505L260.001 0.00600247L253.638 0.00600219L337.5 83.868L337.5 77.505ZM337.5 90.234L247.275 0.00900484L240.912 0.00900457L337.5 96.6L337.5 90.237L337.5 90.234ZM337.5 102.963L234.546 0.00900429L228.18 0.00900401L337.5 109.329L337.5 102.966L337.5 102.963ZM334.32 112.509L225 3.189L225 9.55499L327.954 112.509L334.317 112.509L334.32 112.509ZM321.591 112.509L225 15.918L225 22.284L315.225 112.509L321.588 112.509L321.591 112.509ZM308.862 112.509L225 28.647L225 35.01L302.499 112.509L308.862 112.509ZM296.133 112.509L225 41.376L225 47.739L289.77 112.509L296.133 112.509ZM283.404 112.509L224.997 54.102L224.997 60.465L277.041 112.509L283.404 112.509ZM270.678 112.509L225 66.831L225 73.194L264.315 112.509L270.681 112.509L270.678 112.509ZM257.949 112.509L224.997 79.557L224.997 85.92L251.583 112.506L257.946 112.506L257.949 112.509ZM245.22 112.509L224.997 92.286L224.997 98.649L238.854 112.509L245.22 112.509ZM232.491 112.509L224.997 105.015L224.997 111.378L226.128 112.509L232.491 112.509Z" fill="#F06718"/>
<path d="M-7.81105e-05 111.369L-1.13108 112.5L-7.49407 112.5L-7.78324e-05 105.006L-7.81105e-05 111.369ZM-7.75541e-05 98.64L-13.8571 112.5L-20.2231 112.5L-7.7276e-05 92.277L-7.75541e-05 98.64ZM-7.69977e-05 85.911L-26.5861 112.497L-32.9491 112.497L-7.67195e-05 79.548L-7.69977e-05 85.911ZM-7.64413e-05 73.182L-39.3151 112.497L-45.6781 112.497L-7.61631e-05 66.819L-7.64413e-05 73.182ZM-7.58849e-05 60.453L-52.0411 112.494L-58.4041 112.494L0.00292732 54.087L0.00292704 60.45L-7.58849e-05 60.453ZM-7.53285e-05 47.724L-64.7701 112.494L-71.1361 112.494L-0.00307798 41.361L-0.00307826 47.724L-7.53285e-05 47.724ZM-7.47721e-05 34.995L-77.4991 112.494L-83.8621 112.494L-7.44939e-05 28.632L-7.47721e-05 34.995ZM-7.42157e-05 22.266L-90.2251 112.491L-96.5881 112.491L0.00292899 15.903L0.00292871 22.266L-7.42157e-05 22.266ZM-7.36593e-05 9.53699L-102.954 112.491L-109.32 112.491L-7.3381e-05 3.17096L-7.36593e-05 9.53699ZM-3.18007 -0.00903334L-112.5 109.311L-112.5 102.948L-9.54606 -0.00603069L-3.18007 -0.00603041L-3.18007 -0.00903334ZM-15.9091 -0.0090339L-112.5 96.582L-112.5 90.216L-22.2751 -0.00903418L-15.9121 -0.0090339L-15.9091 -0.0090339ZM-28.6381 -0.00903446L-112.5 83.853L-112.5 77.49L-35.0011 -0.00903473L-28.6381 -0.00903446ZM-41.3671 -0.00903501L-112.5 71.1239L-112.5 64.761L-47.7301 -0.00903529L-41.3671 -0.00903501ZM-54.0961 -0.00903557L-112.503 58.398L-112.503 52.035L-60.4591 -0.00903585L-54.0961 -0.00903557ZM-66.8251 -0.00903612L-112.503 45.669L-112.503 39.306L-73.1881 -0.0090364L-66.8251 -0.00903612ZM-79.554 -0.00903668L-112.506 32.943L-112.506 26.58L-85.92 -0.00603403L-79.5571 -0.00603375L-79.554 -0.00903668ZM-92.2831 -0.00903724L-112.506 20.214L-112.506 13.851L-98.6461 -0.00903752L-92.2831 -0.00903724ZM-105.012 -0.00903779L-112.506 7.48496L-112.506 1.12197L-111.375 -0.00903807L-105.012 -0.00903779Z" fill="#898F94"/>
<path d="M225.5 0L113 -4.91753e-06L113 4.5L225.5 4.5L225.5 0ZM225.5 9L113 9L113 13.5L225.5 13.5L225.5 9ZM225.5 18L113 18L113 22.5L225.5 22.5L225.5 18ZM225.5 27L113 27L113 31.5L225.5 31.5L225.5 27ZM225.5 36L113 36L113 40.5L225.5 40.5L225.5 36ZM225.5 45L113 45L113 49.5L225.5 49.5L225.5 45ZM225.5 54L113 54L113 58.5L225.5 58.5L225.5 54ZM225.5 63L113 63L113 67.5L225.5 67.5L225.5 63ZM225.5 72L113 72L113 76.5L225.5 76.5L225.5 72ZM225.5 81L113 81L113 85.5L225.5 85.5L225.5 81ZM225.5 90L113 90L113 94.5L225.5 94.5L225.5 90ZM225.5 99L113 99L113 103.5L225.5 103.5L225.5 99ZM225.5 108L113 108L113 112.5L225.5 112.5L225.5 108Z" fill="#404852"/>
<path d="M450 112.5C450 82.662 438.147 54.048 417.048 32.952C395.952 11.853 367.335 -3.6134e-06 337.5 -4.91753e-06L337.5 112.5L450 112.5Z" fill="#F8C696"/>
</g>
<g clip-path="url(#clip1_36_46)">
<path d="M171.25 55.69L171.816 56.2573L174.997 56.2573L171.25 52.498L171.25 55.69ZM171.25 49.3045L178.179 56.2573L181.36 56.2573L171.249 46.1124L171.249 49.3045L171.25 49.3045ZM171.25 42.919L184.543 56.2558L187.725 56.2558L171.25 39.727L171.25 42.919ZM171.25 36.5334L190.908 56.2558L194.089 56.2558L171.25 33.3414L171.25 36.5334ZM171.25 30.1479L197.271 56.2543L200.452 56.2543L171.249 26.9544L171.249 30.1479L171.25 30.1479ZM171.25 23.7624L203.635 56.2543L206.817 56.2543L171.25 20.5704L171.25 23.7639L171.25 23.7624ZM171.25 17.3769L210 56.2543L213.181 56.2543L171.25 14.1849L171.25 17.3769ZM171.25 10.9914L216.363 56.2528L219.544 56.2528L171.25 7.79793L171.25 10.9899L171.25 10.9914ZM171.25 4.60593L222.727 56.2528L225.91 56.2528L171.25 1.41241L171.25 4.60443L171.25 4.60593ZM172.84 -0.182827L227.5 54.6576L227.5 51.4641L176.023 -0.182827L172.842 -0.182827L172.84 -0.182827ZM179.205 -0.182827L227.5 48.272L227.5 45.0785L182.388 -0.182827L179.206 -0.182827L179.205 -0.182827ZM185.569 -0.182828L227.5 41.8866L227.5 38.6946L188.751 -0.182828L185.569 -0.182828ZM191.934 -0.182828L227.5 35.501L227.5 32.309L195.115 -0.182828L191.934 -0.182828ZM198.298 -0.182828L227.502 29.1171L227.502 25.925L201.48 -0.182828L198.298 -0.182828ZM204.661 -0.182828L227.5 22.7315L227.5 19.5395L207.843 -0.182829L204.66 -0.182828L204.661 -0.182828ZM211.026 -0.182829L227.502 16.3476L227.502 13.1555L214.209 -0.181322L211.027 -0.181322L211.026 -0.182829ZM217.39 -0.182829L227.502 9.96205L227.502 6.77005L220.573 -0.182829L217.39 -0.182829ZM223.755 -0.182829L227.502 3.57653L227.502 0.384538L226.936 -0.182829L223.755 -0.182829Z" fill="#F06718"/>
<path fill-rule="evenodd" clip-rule="evenodd" d="M311.875 112.693C327.409 112.693 340 125.326 340 140.911C340 156.496 327.409 169.129 311.875 169.129C304.416 169.129 297.262 166.156 291.988 160.863C286.714 155.572 283.75 148.395 283.75 140.911C283.75 133.427 286.713 126.25 291.988 120.958C297.262 115.667 304.415 112.693 311.875 112.693Z" fill="#F06718"/>
<path d="M171.25 225.564L171.25 282L173.5 282L173.5 225.564L171.25 225.564ZM175.75 225.564L175.75 282L178 282L178 225.564L175.75 225.564ZM180.25 225.564L180.25 282L182.5 282L182.5 225.564L180.25 225.564ZM184.75 225.564L184.75 282L187 282L187 225.564L184.75 225.564ZM189.25 225.564L189.25 282L191.5 282L191.5 225.564L189.25 225.564ZM193.75 225.564L193.75 282L196 282L196 225.564L193.75 225.564ZM198.25 225.564L198.25 282L200.5 282L200.5 225.564L198.25 225.564ZM202.75 225.564L202.75 282L205 282L205 225.564L202.75 225.564ZM207.25 225.564L207.25 282L209.5 282L209.5 225.564L207.25 225.564ZM211.75 225.564L211.75 282L214 282L214 225.564L211.75 225.564ZM216.25 225.564L216.25 282L218.5 282L218.5 225.564L216.25 225.564ZM220.75 225.564L220.75 282L223 282L223 225.564L220.75 225.564ZM225.25 225.564L225.25 282L227.5 282L227.5 225.564L225.25 225.564Z" fill="#F8C696"/>
<path d="M171.25 56.8247L171.816 56.2574L174.997 56.2574L171.25 60.0167L171.25 56.8247ZM171.25 63.2102L178.179 56.2574L181.36 56.2574L171.249 66.4022L171.249 63.2102L171.25 63.2102ZM171.25 69.5957L184.543 56.2589L187.725 56.2589L171.25 72.7877L171.25 69.5957ZM171.25 75.9812L190.908 56.2589L194.089 56.2589L171.25 79.1732L171.25 75.9812ZM171.25 82.3667L197.271 56.2604L200.452 56.2604L171.249 85.5602L171.249 82.3682L171.25 82.3667ZM171.25 88.7522L203.635 56.2604L206.817 56.2604L171.25 91.9442L171.25 88.7507L171.25 88.7522ZM171.25 95.1377L210 56.2604L213.181 56.2604L171.25 98.3298L171.25 95.1377ZM171.25 101.523L216.363 56.2619L219.544 56.2619L171.25 104.715L171.25 101.523ZM171.25 107.909L222.727 56.2619L225.91 56.2619L171.25 111.102L171.25 107.909ZM172.84 112.698L227.5 57.8571L227.5 61.0491L176.023 112.696L172.842 112.696L172.84 112.698ZM179.205 112.698L227.5 64.2426L227.5 67.4361L182.388 112.698L179.206 112.698L179.205 112.698ZM185.569 112.698L227.5 70.6281L227.5 73.8201L188.751 112.698L185.569 112.698ZM191.934 112.698L227.5 77.0136L227.5 80.2056L195.115 112.698L191.934 112.698ZM198.298 112.698L227.502 83.3976L227.502 86.5896L201.48 112.698L198.298 112.698ZM204.661 112.698L227.5 89.7831L227.5 92.9751L207.843 112.698L204.66 112.698L204.661 112.698ZM211.026 112.698L227.502 96.1671L227.502 99.3591L214.209 112.696L211.027 112.696L211.026 112.698ZM217.39 112.698L227.502 102.553L227.502 105.745L220.573 112.698L217.39 112.698ZM223.755 112.698L227.502 108.938L227.502 112.13L226.936 112.698L223.755 112.698Z" fill="#F0942D"/>
<path d="M340 0.389179L340.566 -0.178188L343.747 -0.178188L340 3.58117L340 0.389179ZM340 6.77467L346.929 -0.178189L350.112 -0.178189L340 9.96669L340 6.77467ZM340 13.1602L353.293 -0.176682L356.475 -0.176682L340 16.3522L340 13.1602ZM340 19.5457L359.658 -0.176682L362.839 -0.176683L340 22.7377L340 19.5457ZM340 25.9312L366.021 -0.17518L369.202 -0.17518L339.999 29.1247L339.999 25.9327L340 25.9312ZM340 32.3167L372.385 -0.17518L375.568 -0.17518L340.002 35.5087L340.002 32.3167L340 32.3167ZM340 38.7022L378.75 -0.17518L381.931 -0.17518L340 41.8942L340 38.7022ZM340 45.0877L385.113 -0.173674L388.294 -0.173674L339.999 48.2797L339.999 45.0877L340 45.0877ZM340 51.4732L391.477 -0.173674L394.66 -0.173674L340 54.6667L340 51.4732ZM341.59 56.262L396.25 1.42157L396.25 4.61356L344.773 56.2605L341.59 56.2605L341.59 56.262ZM347.955 56.262L396.25 7.80708L396.25 11.0006L351.138 56.262L347.956 56.262L347.955 56.262ZM354.319 56.262L396.25 14.1926L396.25 17.3846L357.501 56.262L354.319 56.262ZM360.684 56.262L396.25 20.5781L396.25 23.7701L363.865 56.262L360.684 56.262ZM367.048 56.262L396.252 26.9621L396.252 30.1541L370.23 56.262L367.048 56.262ZM373.413 56.262L396.252 33.3476L396.252 36.5396L376.594 56.262L373.413 56.262ZM379.777 56.262L396.253 39.7316L396.253 42.9236L382.96 56.2605L379.779 56.2605L379.777 56.262ZM386.142 56.262L396.253 46.1171L396.253 49.3091L389.323 56.262L386.142 56.262ZM392.506 56.262L396.253 52.5026L396.253 55.6946L395.688 56.262L392.506 56.262Z" fill="#898F94"/>
<path d="M227.5 169.129L227.5 225.564L283.75 225.564L283.75 169.129L227.5 169.129Z" fill="#404852"/>
<path d="M227.5 197.346C234.96 197.346 242.113 194.374 247.387 189.081C252.661 183.788 255.625 176.613 255.625 169.129L227.5 169.129L227.5 197.346Z" fill="#F8C696"/>
<path d="M115 169.129L115 225.564L171.25 225.564L171.25 169.129L115 169.129Z" fill="#404852"/>
<path fill-rule="evenodd" clip-rule="evenodd" d="M129.062 169.129C136.829 169.129 143.125 175.445 143.125 183.238C143.125 186.979 141.643 190.568 139.006 193.214C136.369 195.86 132.792 197.346 129.063 197.346C125.333 197.346 121.756 195.86 119.119 193.214C116.482 190.568 115 186.979 115 183.238C115 175.445 121.295 169.129 129.062 169.129Z" fill="#F06718"/>
<path d="M115 56.2575L115 112.693L171.25 112.693L171.25 56.2575L115 56.2575Z" fill="white"/>
<path fill-rule="evenodd" clip-rule="evenodd" d="M129.062 56.2575C132.791 56.2575 136.369 57.7444 139.006 60.3901C141.643 63.0358 143.125 66.6251 143.125 70.3664C143.125 74.1077 141.643 77.697 139.006 80.3428C136.369 82.9885 132.792 84.4753 129.063 84.4753C125.333 84.4753 121.756 82.9885 119.119 80.3428C116.482 77.6971 115 74.1077 115 70.3664C115 66.6251 116.482 63.0358 119.119 60.3901C121.756 57.7444 125.333 56.2575 129.062 56.2575Z" fill="#CFD5DD"/>
<path d="M115 112.693L115 169.129L171.25 169.129L171.25 112.693L115 112.693Z" fill="#F0B28D"/>
<path d="M115 168.561L115.566 169.129L118.747 169.129L115 165.369L115 168.561ZM115 162.176L121.929 169.129L125.11 169.129L114.999 158.984L114.999 162.176L115 162.176ZM115 155.79L128.293 169.127L131.475 169.127L115 152.597L115 155.789L115 155.79ZM115 149.405L134.658 169.127L137.841 169.127L115.002 146.213L115.002 149.406L115 149.405ZM115 143.019L141.021 169.126L144.204 169.126L115 139.826L115 143.018L115 143.019ZM115 136.634L147.385 169.126L150.567 169.126L115 133.442L115 136.634ZM115 130.248L153.75 169.126L156.931 169.126L115 127.056L115 130.248ZM115 123.863L160.113 169.124L163.294 169.124L115 120.669L115 123.863ZM115 117.477L166.477 169.124L169.66 169.124L115 114.284L115 117.476L115 117.477ZM116.59 112.689L171.25 167.529L171.25 164.335L119.773 112.689L116.592 112.689L116.59 112.689ZM122.955 112.689L171.25 161.143L171.25 157.951L126.138 112.69L122.956 112.69L122.955 112.689ZM129.319 112.689L171.25 154.758L171.25 151.566L132.501 112.689L129.319 112.689ZM135.684 112.689L171.25 148.372L171.25 145.179L138.865 112.687L135.684 112.687L135.684 112.689ZM142.048 112.689L171.252 141.988L171.252 138.796L145.23 112.689L142.048 112.689ZM148.411 112.689L171.25 135.603L171.25 132.411L151.593 112.689L148.411 112.689ZM154.776 112.689L171.252 129.219L171.252 126.027L157.959 112.69L154.776 112.69L154.776 112.689ZM161.14 112.689L171.252 122.833L171.252 119.641L164.322 112.69L161.14 112.69L161.14 112.689ZM167.505 112.689L171.252 116.448L171.252 113.256L170.686 112.689L167.505 112.689Z" fill="white"/>
<path d="M171.25 112.693L171.25 169.129L227.5 169.129L227.5 112.693L171.25 112.693Z" fill="#404852"/>
<path d="M227.5 56.2575L227.5 112.693L283.75 112.693L283.75 56.2575L227.5 56.2575Z" fill="#404852"/>
<path d="M171.25 140.911C186.782 140.911 199.375 153.545 199.375 169.129L171.25 169.129L171.25 140.911Z" fill="#F06718"/>
<path d="M143.125 112.693C143.125 120.177 146.087 127.354 151.363 132.646C156.637 137.937 163.791 140.911 171.25 140.911L171.25 112.693L143.125 112.693Z" fill="#404852"/>
<path d="M227.5 197.346C211.966 197.346 199.375 184.712 199.375 169.129L227.5 169.129L227.5 197.346Z" fill="#404852"/>
<path fill-rule="evenodd" clip-rule="evenodd" d="M129.062 197.347C132.791 197.347 136.369 198.834 139.006 201.479C141.643 204.125 143.125 207.714 143.125 211.456C143.125 215.197 141.643 218.786 139.006 221.432C136.369 224.078 132.792 225.564 129.063 225.564C125.333 225.564 121.756 224.078 119.119 221.432C116.482 218.786 115 215.197 115 211.456C115 207.714 116.482 204.125 119.119 201.479C121.756 198.834 125.333 197.347 129.062 197.347Z" fill="#F0942D"/>
<path fill-rule="evenodd" clip-rule="evenodd" d="M157.187 197.347C160.916 197.347 164.494 198.834 167.131 201.479C169.768 204.125 171.25 207.714 171.25 211.456C171.25 215.197 169.768 218.786 167.131 221.432C164.494 224.078 160.917 225.564 157.188 225.564C153.458 225.564 149.881 224.078 147.244 221.432C144.607 218.786 143.125 215.197 143.125 211.456C143.125 207.714 144.607 204.125 147.244 201.479C149.881 198.834 153.458 197.347 157.187 197.347Z" fill="#E7EAED"/>
<path fill-rule="evenodd" clip-rule="evenodd" d="M157.187 169.129C164.954 169.129 171.25 175.445 171.25 183.238C171.25 186.979 169.768 190.568 167.131 193.214C164.494 195.86 160.917 197.346 157.188 197.346C153.458 197.346 149.881 195.86 147.244 193.214C144.607 190.568 143.125 186.979 143.125 183.238C143.125 175.445 149.42 169.129 157.187 169.129Z" fill="#F8C696"/>
<path d="M227.5 197.347C234.959 197.347 242.113 200.319 247.387 205.612C252.661 210.903 255.625 218.08 255.625 225.564L227.5 225.564L227.5 197.347Z" fill="#F18635"/>
<path d="M283.75 197.346C268.216 197.346 255.625 184.712 255.625 169.129L283.75 169.129L283.75 197.346Z" fill="#E7EAED"/>
<path d="M283.75 197.347C276.29 197.347 269.137 200.319 263.863 205.612C258.589 210.903 255.625 218.08 255.625 225.564L283.75 225.564L283.75 197.347Z" fill="#898F94"/>
<path d="M227.5 112.693L227.5 169.129L255.625 169.129L255.625 112.693L227.5 112.693Z" fill="#F8C696"/>
<path d="M143.125 56.2575L143.125 112.693L171.25 112.693L171.25 56.2575L143.125 56.2575Z" fill="#898F94"/>
<path fill-rule="evenodd" clip-rule="evenodd" d="M129.062 84.4753C136.829 84.4753 143.125 90.7916 143.125 98.5842C143.125 102.326 141.643 105.915 139.006 108.561C136.369 111.206 132.792 112.693 129.063 112.693C125.333 112.693 121.756 111.206 119.119 108.561C116.482 105.915 115 102.326 115 98.5842C115 90.7916 121.295 84.4753 129.062 84.4753Z" fill="#F06718"/>
<path d="M340 169.129C340 184.097 334.074 198.451 323.524 209.034C312.976 219.618 298.668 225.564 283.75 225.564L283.75 169.129L340 169.129Z" fill="#E7EAED"/>
<path d="M227.5 56.2575L227.5 112.693L171.25 56.2575L227.5 56.2575Z" fill="#F0942D"/>
<path d="M143.125 225.564L143.125 253.782L171.25 253.782L171.25 225.564L143.125 225.564Z" fill="#898F94"/>
<path d="M255.625 112.693L255.625 140.911L283.75 140.911L283.75 112.693L255.625 112.693Z" fill="#F8C696"/>
<path d="M227.5 56.2573L283.75 56.2573L283.75 53.9999L227.5 53.9999L227.5 56.2573ZM227.5 51.7425L283.75 51.7425L283.75 49.485L227.5 49.485L227.5 51.7425ZM227.5 47.2276L283.75 47.2276L283.75 44.9702L227.5 44.9702L227.5 47.2276ZM227.5 42.7128L283.75 42.7128L283.75 40.4553L227.5 40.4553L227.5 42.7128ZM227.5 38.1979L283.75 38.1979L283.75 35.9405L227.5 35.9405L227.5 38.1979ZM227.5 33.6831L283.75 33.6831L283.75 31.4256L227.5 31.4256L227.5 33.6831ZM227.5 29.1682L283.75 29.1682L283.75 26.9108L227.5 26.9108L227.5 29.1682ZM227.5 24.6534L283.75 24.6534L283.75 22.3959L227.5 22.3959L227.5 24.6534ZM227.5 20.1385L283.75 20.1385L283.75 17.8811L227.5 17.8811L227.5 20.1385ZM227.5 15.6237L283.75 15.6237L283.75 13.3662L227.5 13.3662L227.5 15.6237ZM227.5 11.1088L283.75 11.1088L283.75 8.85138L227.5 8.85139L227.5 11.1088ZM227.5 6.59396L283.75 6.59396L283.75 4.33653L227.5 4.33654L227.5 6.59396ZM227.5 2.07911L283.75 2.07911L283.75 -0.178317L227.5 -0.178314L227.5 2.07911Z" fill="#404852"/>
<path d="M227.5 169.696L228.066 169.129L231.247 169.129L227.5 172.888L227.5 169.696ZM227.5 176.08L234.429 169.129L237.612 169.129L227.5 179.274L227.5 176.08ZM227.5 182.466L240.793 169.129L243.975 169.129L227.5 185.658L227.5 182.466ZM227.5 188.851L247.158 169.129L250.341 169.129L227.502 192.043L227.502 188.851L227.5 188.851ZM227.5 195.237L253.521 169.13L256.702 169.13L227.499 198.43L227.499 195.238L227.5 195.237ZM227.5 201.622L259.885 169.13L263.067 169.13L227.5 204.814L227.5 201.621L227.5 201.622ZM227.5 208.008L266.25 169.13L269.431 169.13L227.5 211.2L227.5 208.008ZM227.5 214.393L272.613 169.132L275.794 169.132L227.5 217.587L227.5 214.395L227.5 214.393ZM227.5 220.779L278.977 169.132L282.16 169.132L227.5 223.971L227.5 220.779ZM229.09 225.567L283.75 170.727L283.75 173.92L232.273 225.567L229.09 225.567ZM235.455 225.567L283.75 177.112L283.75 180.306L238.638 225.567L235.456 225.567L235.455 225.567ZM241.819 225.567L283.75 183.498L283.75 186.69L245.001 225.567L241.819 225.567ZM248.184 225.567L283.75 189.883L283.75 193.075L251.365 225.567L248.184 225.567ZM254.548 225.567L283.752 196.267L283.752 199.459L257.73 225.567L254.548 225.567ZM260.913 225.567L283.752 202.653L283.752 205.846L264.094 225.569L260.911 225.569L260.913 225.567ZM267.277 225.567L283.753 209.037L283.753 212.229L270.46 225.566L267.277 225.566L267.277 225.567ZM273.642 225.567L283.753 215.422L283.753 218.614L276.825 225.567L273.642 225.567ZM280.006 225.567L283.753 221.808L283.753 225L283.188 225.567L280.006 225.567Z" fill="white"/>
<path fill-rule="evenodd" clip-rule="evenodd" d="M283.75 56.2575C283.75 71.8413 296.341 84.4753 311.875 84.4753C327.409 84.4753 340 71.8413 340 56.2575L283.75 56.2575Z" fill="#F8C696"/>
<path d="M171.25 225.564L171.25 282L227.5 225.564L171.25 225.564Z" fill="#F8C696"/>
<path d="M115 -0.178314C115 14.7899 120.926 29.1441 131.476 39.727C142.024 50.3113 156.333 56.2573 171.25 56.2573L171.25 -0.178317L115 -0.178314Z" fill="#F8C696"/>
<path d="M143.125 225.564L143.125 253.782L115 225.564L143.125 225.564Z" fill="#E7EAED"/>
<path d="M283.75 84.4753L283.75 112.693L340 112.693L340 84.4753L283.75 84.4753Z" fill="#E7EAED"/>
</g>
<defs>
<clipPath id="clip0_36_46">
<rect width="57" height="540" fill="white" transform="translate(540) rotate(90)"/>
</clipPath>
<clipPath id="clip1_36_46">
<rect width="228" height="225" fill="white" transform="translate(115 282) rotate(-90)"/>
</clipPath>
</defs>
</svg>
