<svg width="91" height="91" viewBox="0 0 91 91" fill="none" xmlns="http://www.w3.org/2000/svg">
<g id="fi_11229114">
<g id="Group">
<path id="Vector" d="M78.9951 50.5549H77.7311V25.957C77.7311 24.9754 76.9352 24.1797 75.9537 24.1797C74.9723 24.1797 74.1764 24.9754 74.1764 25.957V50.5549H28.1037C26.1437 50.5549 24.549 52.1496 24.549 54.1096V76.9092C24.549 78.8693 26.1437 80.4639 28.1037 80.4639H74.1764V85.668C74.1764 86.648 73.3791 87.4453 72.399 87.4453H13.7822C12.8022 87.4453 12.0049 86.648 12.0049 85.668V19.6512H22.7717C25.7118 19.6512 28.1037 17.2593 28.1037 14.3192V3.55469H72.399C73.3791 3.55469 74.1764 4.352 74.1764 5.33203V9.76188C74.1764 10.7435 74.9723 11.5392 75.9537 11.5392C76.9352 11.5392 77.7311 10.7435 77.7311 9.76188V5.33203C77.7311 2.39195 75.3391 0 72.399 0H26.3267C25.8587 0.000888672 25.402 0.19142 25.0696 0.520406L8.97096 16.6171C8.64215 16.95 8.45091 17.4064 8.4502 17.8747V85.668C8.4502 88.608 10.8421 91 13.7822 91H72.399C75.3391 91 77.7311 88.608 77.7311 85.668V80.4639H78.9951C80.9552 80.4639 82.5498 78.8693 82.5498 76.9092V54.1096C82.5498 52.1496 80.9552 50.5549 78.9951 50.5549ZM22.7717 16.0965H14.5195L24.5488 6.06821V14.3192C24.549 15.2994 23.7517 16.0965 22.7717 16.0965ZM78.9951 76.9092H28.1037V54.1096H78.9951L78.9974 76.909C78.9974 76.909 78.9967 76.9092 78.9951 76.9092Z" fill="#F06718"/>
<path id="Vector_2" d="M45.542 26.1323L37.1333 39.4256C36.6085 40.2551 36.8557 41.3531 37.6852 41.8778C37.9801 42.0643 38.3087 42.1533 38.6336 42.1533C39.2226 42.1533 39.7992 41.8606 40.1372 41.3258L48.5458 28.0325C49.0705 27.203 48.8235 26.1049 47.994 25.5803C47.1645 25.0556 46.0664 25.3027 45.542 26.1323Z" fill="#F06718"/>
<path id="Vector_3" d="M32.4071 25.8028C31.7005 25.1215 30.5752 25.1422 29.894 25.849L23.487 32.4957C22.8233 33.1843 22.8233 34.2741 23.487 34.9627L29.894 41.6092C30.2429 41.9711 30.708 42.1531 31.1738 42.1531C31.6178 42.1531 32.0623 41.9878 32.4071 41.6555C33.114 40.9742 33.1346 39.849 32.4533 39.1423L27.2354 33.729L32.4533 28.3158C33.1346 27.6093 33.114 26.484 32.4071 25.8028Z" fill="#F06718"/>
<path id="Vector_4" d="M53.7739 41.6554C54.1187 41.9877 54.5632 42.153 55.0071 42.153C55.473 42.153 55.9381 41.971 56.2868 41.6092L62.6938 34.9626C63.3575 34.2741 63.3575 33.1842 62.694 32.4957L56.287 25.8489C55.6056 25.1421 54.4805 25.1216 53.7737 25.8027C53.067 26.484 53.0464 27.6092 53.7275 28.3159L58.9454 33.7291L53.7276 39.1424C53.0466 39.8491 53.0672 40.9741 53.7739 41.6554Z" fill="#F06718"/>
<path id="Vector_5" d="M47.0608 56.993C46.0794 56.993 45.2835 57.7888 45.2835 58.7704V69.5427C45.2835 69.8998 45.1027 70.222 44.8118 70.3834C44.4382 70.5908 43.4118 70.0386 42.8953 69.582C42.1678 68.9288 41.0479 68.986 40.3908 69.7115C39.7318 70.439 39.7872 71.563 40.5149 72.222C40.5904 72.2905 41.2813 72.9049 42.2499 73.381C43.1473 73.8222 43.9372 73.9843 44.6136 73.9843C45.4193 73.9843 46.0639 73.7543 46.537 73.4916C47.9564 72.7037 48.8382 71.1906 48.8382 69.5429V58.7706C48.8382 57.7888 48.0425 56.993 47.0608 56.993Z" fill="#F06718"/>
<path id="Vector_6" d="M60.7405 63.9481C59.1007 63.3432 57.5731 62.6849 57.0875 62.4725C56.7669 62.207 56.7783 61.8416 56.8003 61.6882C56.832 61.468 56.9933 60.9291 57.8075 60.6838C59.6544 60.1275 61.3764 61.4806 61.4312 61.5243C62.1823 62.1471 63.2967 62.0477 63.9257 61.2995C64.5575 60.548 64.4603 59.4269 63.7089 58.7954C63.58 58.6871 60.5127 56.1565 56.782 57.2802C54.8865 57.8512 53.5453 59.3467 53.2817 61.1831C53.0339 62.9083 53.7819 64.568 55.2334 65.5146C55.6953 65.7732 57.101 66.3704 59.5101 67.2833C59.954 67.4469 61.3894 68.0559 61.2181 69.0151C61.0903 69.7308 60.2087 70.4713 58.9548 70.4713C57.6408 70.4713 56.3775 69.9427 55.575 69.0572C54.916 68.3298 53.7918 68.2747 53.0645 68.9337C52.3371 69.5927 52.2818 70.7167 52.941 71.4442C54.4277 73.085 56.6197 74.026 58.9548 74.026C61.8402 74.026 64.2637 72.1814 64.7175 69.6398C65.0598 67.7237 64.1948 65.2221 60.7405 63.9481Z" fill="#F06718"/>
<path id="Vector_7" d="M75.9535 19.6516C76.9351 19.6516 77.7308 18.8559 77.7308 17.8743C77.7308 16.8927 76.9351 16.0969 75.9535 16.0969C74.9719 16.0969 74.1761 16.8927 74.1761 17.8743C74.1761 18.8559 74.9719 19.6516 75.9535 19.6516Z" fill="#F06718"/>
</g>
</g>
</svg>
