<svg width="319" height="282" viewBox="0 0 319 282" fill="none" xmlns="http://www.w3.org/2000/svg">
<g clip-path="url(#clip0_36_45)">
<g clip-path="url(#clip1_36_45)">
<path d="M96.5001 1.13101L97.6311 -4.95691e-08L103.994 -3.27704e-07L96.5001 7.49399L96.5001 1.13101ZM96.5001 13.86L110.357 -6.0584e-07L116.72 -8.83976e-07L96.4971 20.223L96.4971 13.86L96.5001 13.86ZM96.5001 26.589L123.086 0.00300177L129.449 0.00300149L96.5001 32.952L96.5001 26.589ZM96.5001 39.318L135.815 0.00300121L142.178 0.00300093L96.5001 45.681L96.5001 39.318ZM96.5001 52.047L148.541 0.00600358L154.904 0.00600331L96.4971 58.413L96.4971 52.047L96.5001 52.047ZM96.5001 64.776L161.27 0.00600303L167.633 0.00600275L96.5001 71.139L96.5001 64.773L96.5001 64.776ZM96.5001 77.505L173.999 0.00600247L180.362 0.00600219L96.5001 83.868L96.5001 77.505ZM96.5001 90.234L186.725 0.00900484L193.088 0.00900457L96.5001 96.6L96.5001 90.237L96.5001 90.234ZM96.5001 102.963L199.454 0.00900429L205.82 0.00900401L96.5001 109.329L96.5001 102.966L96.5001 102.963ZM99.6801 112.509L209 3.189L209 9.55499L106.046 112.509L99.6831 112.509L99.6801 112.509ZM112.409 112.509L209 15.918L209 22.284L118.775 112.509L112.412 112.509L112.409 112.509ZM125.138 112.509L209 28.647L209 35.01L131.501 112.509L125.138 112.509ZM137.867 112.509L209 41.376L209 47.739L144.23 112.509L137.867 112.509ZM150.596 112.509L209.003 54.102L209.003 60.465L156.959 112.509L150.596 112.509ZM163.322 112.509L209 66.831L209 73.194L169.685 112.509L163.319 112.509L163.322 112.509ZM176.051 112.509L209.003 79.557L209.003 85.92L182.417 112.506L176.054 112.506L176.051 112.509ZM188.78 112.509L209.003 92.286L209.003 98.649L195.146 112.509L188.78 112.509ZM201.509 112.509L209.003 105.015L209.003 111.378L207.872 112.509L201.509 112.509Z" fill="#F06718"/>
<path d="M209 0L321.5 -4.91753e-06L321.5 4.5L209 4.5L209 0ZM209 9L321.5 9L321.5 13.5L209 13.5L209 9ZM209 18L321.5 18L321.5 22.5L209 22.5L209 18ZM209 27L321.5 27L321.5 31.5L209 31.5L209 27ZM209 36L321.5 36L321.5 40.5L209 40.5L209 36ZM209 45L321.5 45L321.5 49.5L209 49.5L209 45ZM209 54L321.5 54L321.5 58.5L209 58.5L209 54ZM209 63L321.5 63L321.5 67.5L209 67.5L209 63ZM209 72L321.5 72L321.5 76.5L209 76.5L209 72ZM209 81L321.5 81L321.5 85.5L209 85.5L209 81ZM209 90L321.5 90L321.5 94.5L209 94.5L209 90ZM209 99L321.5 99L321.5 103.5L209 103.5L209 99ZM209 108L321.5 108L321.5 112.5L209 112.5L209 108Z" fill="#404852"/>
<path d="M-16 112.5C-16 82.662 -4.147 54.048 16.952 32.952C38.048 11.853 66.665 -3.6134e-06 96.5 -4.91753e-06L96.5 112.5L-16 112.5Z" fill="#F8C696"/>
</g>
<g clip-path="url(#clip2_36_45)">
<path d="M317.31 112.5L316.743 113.068V116.264L320.502 112.5H317.31ZM323.695 112.5L316.743 119.459V122.655L326.887 112.499H323.695V112.5ZM330.081 112.5L316.744 125.852V129.048L333.273 112.5H330.081ZM336.466 112.5L316.744 132.245V135.441L339.658 112.5H336.466ZM342.852 112.5L316.746 138.636V141.832L346.045 112.499H342.852V112.5ZM349.237 112.5L316.746 145.029V148.225L352.429 112.5H349.236H349.237ZM355.623 112.5L316.746 151.422V154.617L358.815 112.5H355.623ZM362.008 112.5L316.747 157.813V161.009L365.202 112.5H362.01H362.008ZM368.394 112.5L316.747 164.206V167.403L371.587 112.5H368.395H368.394ZM373.183 114.097L318.342 169H321.536L373.183 117.294V114.099V114.097ZM373.183 120.49L324.728 169H327.921L373.183 123.687V120.491V120.49ZM373.183 126.883L331.113 169H334.305L373.183 130.078V126.883ZM373.183 133.275L337.499 169H340.691L373.183 136.471V133.275ZM373.183 139.668L343.883 169.002H347.075L373.183 142.864V139.668ZM373.183 146.06L350.268 169H353.46L373.183 149.255V146.058V146.06ZM373.183 152.452L356.652 169.002H359.844L373.181 155.649V152.454L373.183 152.452ZM373.183 158.845L363.038 169.002H366.23L373.183 162.042V158.845ZM373.183 165.238L369.423 169.002H372.615L373.183 168.434V165.238Z" fill="#F06718"/>
<path fill-rule="evenodd" clip-rule="evenodd" d="M260.307 253.75C260.307 269.353 247.674 282 232.089 282C216.504 282 203.871 269.353 203.871 253.75C203.871 246.257 206.844 239.072 212.137 233.775C217.428 228.477 224.605 225.5 232.089 225.5C239.573 225.5 246.75 228.476 252.042 233.775C257.333 239.072 260.307 246.257 260.307 253.75Z" fill="#F06718"/>
<path d="M147.436 112.5H91V114.76H147.436V112.5ZM147.436 117.02H91V119.28H147.436V117.02ZM147.436 121.54H91V123.8H147.436V121.54ZM147.436 126.06H91V128.32H147.436V126.06ZM147.436 130.58H91V132.84H147.436V130.58ZM147.436 135.1H91V137.36H147.436V135.1ZM147.436 139.62H91V141.88H147.436V139.62ZM147.436 144.14H91V146.4H147.436V144.14ZM147.436 148.66H91V150.92H147.436V148.66ZM147.436 153.18H91V155.44H147.436V153.18ZM147.436 157.7H91V159.96H147.436V157.7ZM147.436 162.22H91V164.48H147.436V162.22ZM147.436 166.74H91V169H147.436V166.74Z" fill="#F8C696"/>
<path d="M316.175 112.5L316.743 113.068V116.264L312.983 112.5H316.175ZM309.79 112.5L316.743 119.459V122.655L306.598 112.499H309.79V112.5ZM303.404 112.5L316.741 125.852V129.048L300.212 112.5H303.404ZM297.019 112.5L316.741 132.245V135.441L293.827 112.5H297.019ZM290.633 112.5L316.74 138.636V141.832L287.44 112.499H290.632L290.633 112.5ZM284.248 112.5L316.74 145.029V148.225L281.056 112.5H284.249H284.248ZM277.862 112.5L316.74 151.422V154.617L274.67 112.5H277.862ZM271.477 112.5L316.738 157.813V161.009L268.285 112.5H271.477ZM265.091 112.5L316.738 164.206V167.403L261.898 112.5H265.091ZM260.302 114.097L315.143 169H311.951L260.304 117.294V114.099L260.302 114.097ZM260.302 120.49L308.757 169H305.564L260.302 123.687V120.491V120.49ZM260.302 126.883L302.372 169H299.18L260.302 130.078V126.883ZM260.302 133.275L295.986 169H292.794L260.302 136.471V133.275ZM260.302 139.668L289.602 169.002H286.41L260.302 142.864V139.668ZM260.302 146.06L283.217 169H280.025L260.302 149.255V146.058V146.06ZM260.302 152.452L276.833 169.002H273.641L260.304 155.649V152.454L260.302 152.452ZM260.302 158.845L270.447 169.002H267.255L260.302 162.042V158.845ZM260.302 165.238L264.062 169.002H260.87L260.302 168.434V165.238Z" fill="#F0942D"/>
<path d="M372.611 282L373.178 282.568V285.764L369.419 282H372.611ZM366.225 282L373.178 288.959V292.156L363.033 282H366.225ZM359.84 282L373.177 295.352V298.548L356.648 282H359.84ZM353.454 282L373.177 301.745V304.941L350.262 282H353.454ZM347.069 282L373.175 308.136V311.332L343.875 281.999H347.067L347.069 282ZM340.683 282L373.175 314.529V317.726L337.491 282.002H340.683V282ZM334.298 282L373.175 320.922V324.117L331.106 282H334.298ZM327.912 282L373.174 327.313V330.509L324.72 281.999H327.912V282ZM321.527 282L373.174 333.706V336.903L318.333 282H321.527ZM316.738 283.597L371.578 338.5H368.386L316.74 286.794V283.597H316.738ZM316.738 289.99L365.193 338.5H361.999L316.738 293.187V289.991V289.99ZM316.738 296.383L358.807 338.5H355.615L316.738 299.578V296.383ZM316.738 302.775L352.422 338.5H349.23L316.738 305.971V302.775ZM316.738 309.168L346.038 338.502H342.846L316.738 312.364V309.168ZM316.738 315.561L339.652 338.502H336.46L316.738 318.757V315.561ZM316.738 321.954L333.268 338.503H330.076L316.74 325.151V321.955L316.738 321.954ZM316.738 328.347L326.883 338.503H323.691L316.738 331.542V328.347ZM316.738 334.739L320.497 338.503H317.305L316.738 337.935V334.739Z" fill="#898F94"/>
<path d="M203.871 169H147.436V225.5H203.871V169Z" fill="#404852"/>
<path d="M175.653 169C175.653 176.493 178.626 183.678 183.919 188.975C189.212 194.273 196.387 197.25 203.871 197.25V169H175.653Z" fill="#F8C696"/>
<path d="M203.871 56H147.436V112.5H203.871V56Z" fill="#404852"/>
<path fill-rule="evenodd" clip-rule="evenodd" d="M203.871 70.125C203.871 77.9265 197.555 84.25 189.762 84.25C186.021 84.25 182.432 82.7614 179.786 80.1127C177.14 77.464 175.653 73.8706 175.653 70.125C175.653 66.3794 177.14 62.786 179.786 60.1373C182.432 57.4886 186.021 56 189.762 56C197.555 56 203.871 62.3235 203.871 70.125Z" fill="#F06718"/>
<path d="M316.743 56H260.307V112.5H316.743V56Z" fill="white"/>
<path fill-rule="evenodd" clip-rule="evenodd" d="M316.743 70.125C316.743 73.8706 315.256 77.464 312.61 80.1127C309.964 82.7614 306.375 84.25 302.634 84.25C298.892 84.25 295.303 82.7614 292.657 80.1127C290.012 77.464 288.525 73.8706 288.525 70.125C288.525 66.3794 290.012 62.786 292.657 60.1373C295.303 57.4886 298.892 56 302.634 56C306.375 56 309.964 57.4886 312.61 60.1373C315.256 62.786 316.743 66.3794 316.743 70.125Z" fill="#CFD5DD"/>
<path d="M260.307 56H203.871V112.5H260.307V56Z" fill="#F0B28D"/>
<path d="M204.439 56L203.871 56.5681V59.7637L207.631 56H204.439ZM210.824 56L203.871 62.9593V66.155L214.016 55.9985H210.824V56ZM217.21 56L203.873 69.3521V72.5478L220.403 56H217.211H217.21ZM223.595 56L203.873 75.7449V78.9421L226.787 56.0016H223.594L223.595 56ZM229.981 56L203.874 82.1362V85.3333L233.174 56H229.982H229.981ZM236.366 56L203.874 88.529V91.7246L239.558 56H236.366ZM242.752 56L203.874 94.9218V98.1174L245.944 56H242.752ZM249.137 56L203.876 101.313V104.509L252.331 56H249.137ZM255.523 56L203.876 107.706V110.903L258.716 56H255.524H255.523ZM260.312 57.5971L205.471 112.5H208.665L260.312 60.7943V57.5986V57.5971ZM260.312 63.9899L211.857 112.5H215.049L260.31 67.187V63.9914L260.312 63.9899ZM260.312 70.3827L218.242 112.5H221.434L260.312 73.5783V70.3827ZM260.312 76.7755L224.628 112.5H227.821L260.313 79.9711V76.7755H260.312ZM260.312 83.1683L231.012 112.502H234.204L260.312 86.3639V83.1683ZM260.312 89.5595L237.397 112.5H240.589L260.312 92.7552V89.5595ZM260.312 95.9523L243.781 112.502H246.973L260.31 99.1495V95.9523H260.312ZM260.312 102.345L250.167 112.502H253.359L260.31 105.541V102.345H260.312ZM260.312 108.738L256.552 112.502H259.744L260.312 111.934V108.738Z" fill="white"/>
<path d="M260.307 112.5H203.871V169H260.307V112.5Z" fill="#404852"/>
<path d="M316.743 169H260.307V225.5H316.743V169Z" fill="#404852"/>
<path d="M232.089 112.5C232.089 128.102 219.455 140.75 203.871 140.75V112.5H232.089Z" fill="#F06718"/>
<path d="M260.307 84.25C252.823 84.25 245.646 87.2257 240.354 92.5246C235.063 97.8221 232.089 105.007 232.089 112.5H260.307V84.25Z" fill="#404852"/>
<path d="M175.653 169C175.653 153.397 188.288 140.75 203.871 140.75V169H175.653Z" fill="#404852"/>
<path fill-rule="evenodd" clip-rule="evenodd" d="M175.653 70.125C175.653 73.8706 174.167 77.464 171.521 80.1127C168.875 82.7614 165.286 84.25 161.545 84.25C157.803 84.25 154.214 82.7614 151.568 80.1127C148.923 77.464 147.436 73.8706 147.436 70.125C147.436 66.3794 148.923 62.786 151.568 60.1373C154.214 57.4886 157.803 56 161.545 56C165.286 56 168.875 57.4886 171.521 60.1373C174.167 62.786 175.653 66.3794 175.653 70.125Z" fill="#F0942D"/>
<path fill-rule="evenodd" clip-rule="evenodd" d="M175.653 98.375C175.653 102.121 174.167 105.714 171.521 108.363C168.875 111.011 165.286 112.5 161.545 112.5C157.803 112.5 154.214 111.011 151.568 108.363C148.923 105.714 147.436 102.121 147.436 98.375C147.436 94.6294 148.923 91.036 151.568 88.3873C154.214 85.7386 157.803 84.25 161.545 84.25C165.286 84.25 168.875 85.7386 171.521 88.3873C174.167 91.036 175.653 94.6294 175.653 98.375Z" fill="#E7EAED"/>
<path fill-rule="evenodd" clip-rule="evenodd" d="M203.871 98.375C203.871 106.177 197.555 112.5 189.762 112.5C186.021 112.5 182.432 111.011 179.786 108.363C177.14 105.714 175.653 102.121 175.653 98.375C175.653 94.6294 177.14 91.036 179.786 88.3873C182.432 85.7386 186.021 84.25 189.762 84.25C197.555 84.25 203.871 90.5735 203.871 98.375Z" fill="#F8C696"/>
<path d="M175.653 169C175.653 176.493 172.681 183.678 167.388 188.975C162.097 194.273 154.92 197.25 147.436 197.25V169H175.653Z" fill="#F18635"/>
<path d="M175.653 225.5C175.653 209.897 188.288 197.25 203.871 197.25V225.5H175.653Z" fill="#E7EAED"/>
<path d="M175.653 225.5C175.653 218.007 172.681 210.822 167.388 205.525C162.097 200.227 154.92 197.25 147.436 197.25V225.5H175.653Z" fill="#898F94"/>
<path d="M260.307 169H203.871V197.25H260.307V169Z" fill="#F8C696"/>
<path d="M316.743 84.25H260.307V112.5H316.743V84.25Z" fill="#898F94"/>
<path fill-rule="evenodd" clip-rule="evenodd" d="M288.525 70.125C288.525 77.9265 282.208 84.25 274.416 84.25C270.674 84.25 267.085 82.7614 264.439 80.1127C261.794 77.464 260.307 73.8706 260.307 70.125C260.307 66.3794 261.794 62.786 264.439 60.1373C267.085 57.4886 270.674 56 274.416 56C282.208 56 288.525 62.3235 288.525 70.125Z" fill="#F06718"/>
<path d="M203.871 282C188.903 282 174.549 276.047 163.966 265.451C153.382 254.856 147.436 240.484 147.436 225.5H203.871V282Z" fill="#E7EAED"/>
<path d="M316.743 169H260.307L316.743 112.5V169Z" fill="#F0942D"/>
<path d="M147.436 84.25H119.218V112.5H147.436V84.25Z" fill="#898F94"/>
<path d="M260.307 197.25H232.089V225.5H260.307V197.25Z" fill="#F8C696"/>
<path d="M316.743 169V225.5H319V169H316.743ZM321.257 169V225.5H323.515V169H321.257ZM325.772 169V225.5H328.03V169H325.772ZM330.287 169V225.5H332.545V169H330.287ZM334.802 169V225.5H337.059V169H334.802ZM339.317 169V225.5H341.574V169H339.317ZM343.832 169V225.5H346.089V169H343.832ZM348.347 169V225.5H350.604V169H348.347ZM352.861 169V225.5H355.119V169H352.861ZM357.376 169V225.5H359.634V169H357.376ZM361.891 169V225.5H364.148V169H361.891ZM366.406 169V225.5H368.663V169H366.406ZM370.921 169V225.5H373.178V169H370.921Z" fill="#404852"/>
<path d="M203.304 169L203.871 169.568V172.764L200.112 169H203.304ZM196.92 169L203.871 175.959V179.156L193.726 169H196.92ZM190.534 169L203.871 182.352V185.548L187.342 169H190.534ZM184.149 169L203.871 188.745V191.942L180.957 169.002H184.149V169ZM177.763 169L203.87 195.136V198.332L174.57 168.999H177.762L177.763 169ZM171.378 169L203.87 201.529V204.725L168.186 169H171.379H171.378ZM164.992 169L203.87 207.922V211.117L161.8 169H164.992ZM158.607 169L203.868 214.313V217.509L155.413 169H158.605H158.607ZM152.221 169L203.868 220.706V223.903L149.029 169H152.221ZM147.433 170.597L202.273 225.5H199.08L147.433 173.794V170.597ZM147.433 176.99L195.888 225.5H192.694L147.433 180.187V176.991V176.99ZM147.433 183.383L189.502 225.5H186.31L147.433 186.578V183.383ZM147.433 189.775L183.117 225.5H179.925L147.433 192.971V189.775ZM147.433 196.168L176.733 225.502H173.541L147.433 199.364V196.168ZM147.433 202.561L170.347 225.502H167.154L147.431 205.757V202.56L147.433 202.561ZM147.433 208.954L163.963 225.503H160.771L147.434 212.151V208.954H147.433ZM147.433 215.347L157.578 225.503H154.386L147.433 218.544V215.347ZM147.433 221.739L151.192 225.503H148L147.433 224.935V221.739Z" fill="white"/>
<path fill-rule="evenodd" clip-rule="evenodd" d="M316.743 225.5C301.159 225.5 288.525 238.147 288.525 253.75C288.525 269.353 301.159 282 316.743 282V225.5Z" fill="#F8C696"/>
<path d="M147.436 112.5H91L147.436 169V112.5Z" fill="#F8C696"/>
<path d="M373.178 56C358.21 56 343.856 61.9528 333.273 72.5492C322.689 83.1441 316.743 97.5162 316.743 112.5H373.178V56Z" fill="#F8C696"/>
<path d="M147.436 84.25H119.218L147.436 56V84.25Z" fill="#E7EAED"/>
<path d="M288.525 225.5H260.307V282H288.525V225.5Z" fill="#E7EAED"/>
</g>
</g>
<defs>
<clipPath id="clip0_36_45">
<rect width="319" height="282" fill="white"/>
</clipPath>
<clipPath id="clip1_36_45">
<rect width="57" height="540" fill="white" transform="matrix(4.37114e-08 1 1 -4.37114e-08 -106 0)"/>
</clipPath>
<clipPath id="clip2_36_45">
<rect width="228" height="226" fill="white" transform="translate(91 56)"/>
</clipPath>
</defs>
</svg>
