<svg width="28" height="28" viewBox="0 0 28 28" fill="none" xmlns="http://www.w3.org/2000/svg">
<g id="fi_725397" clip-path="url(#clip0_4_501)">
<g id="Group">
<g id="Group_2">
<path id="Vector" d="M24.3906 -0.109375H3.60938C1.55873 -0.109375 -0.109375 1.55873 -0.109375 3.60938V24.3906C-0.109375 26.4413 1.55873 28.1094 3.60938 28.1094H24.3906C26.4413 28.1094 28.1094 26.4413 28.1094 24.3906V3.60938C28.1094 1.55873 26.4413 -0.109375 24.3906 -0.109375ZM26.7969 24.3906C26.7969 25.7173 25.7173 26.7969 24.3906 26.7969H3.60938C2.28269 26.7969 1.20312 25.7173 1.20312 24.3906V3.60938C1.20312 2.28269 2.28269 1.20312 3.60938 1.20312H24.3906C25.7173 1.20312 26.7969 2.28269 26.7969 3.60938V24.3906Z" fill="#404852" stroke="#404852" stroke-width="0.21875"/>
</g>
</g>
<g id="Group_3">
<g id="Group_4">
<path id="Vector_2" d="M22.6381 11.4229L22.6381 11.4229C23.4173 12.3175 23.8028 13.6659 23.8028 15.4118V23.1463C23.8028 23.5089 23.5089 23.8027 23.1465 23.8027H19.4208C19.0584 23.8027 18.7645 23.5089 18.7645 23.1464V15.8871C18.7645 15.5229 18.618 15.177 18.3651 14.9377L18.3651 14.9377C18.1329 14.7179 17.8361 14.6079 17.5297 14.6244L22.6381 11.4229ZM22.6381 11.4229C21.84 10.5069 20.7344 10.0461 19.3646 10.0461C18.3823 10.0461 17.5223 10.2489 16.8121 10.6538L16.8121 10.6538C16.534 10.8126 16.2585 11.0122 15.9868 11.2509V10.9775C15.9868 10.615 15.6929 10.3212 15.3305 10.3212H11.349C10.9866 10.3212 10.6927 10.615 10.6927 10.9775V23.1465C10.6927 23.5089 10.9866 23.8027 11.349 23.8027H15.3012C15.6635 23.8027 15.9574 23.5089 15.9574 23.1465V16.2456C15.9574 15.3788 16.5927 14.6758 17.3903 14.632L17.3903 14.632L17.5296 14.6244L22.6381 11.4229ZM22.645 11.5578C22.6393 11.5658 22.6329 11.5726 22.6262 11.5783C22.603 11.55 22.5795 11.5222 22.5557 11.4948L22.6333 11.4177C22.6349 11.4193 22.6365 11.4211 22.6381 11.4229C22.6381 11.4229 22.6381 11.4229 22.6381 11.4229C22.6397 11.4248 22.6413 11.4267 22.6428 11.4287C22.6503 11.4386 22.665 11.4616 22.665 11.4947C22.665 11.513 22.6603 11.5361 22.645 11.5578ZM14.6449 16.2456V22.4901H12.0052V11.6337H14.6743V12.9597C14.6743 13.2434 14.8565 13.4949 15.126 13.5833L15.126 13.5833C15.3957 13.6717 15.6913 13.577 15.8593 13.3484L15.8593 13.3484C16.4009 12.6117 16.9411 12.0914 17.4626 11.7938C17.9651 11.5073 18.6033 11.3586 19.3646 11.3586C20.3669 11.3586 21.1081 11.6649 21.6484 12.285C22.1992 12.9174 22.4903 13.9613 22.4903 15.4119V22.4902H20.077V15.8871C20.077 15.1656 19.7825 14.4722 19.2673 13.9845L19.1921 14.0639L19.2673 13.9845C18.7722 13.5158 18.1289 13.2767 17.4577 13.3138C17.4577 13.3138 17.4577 13.3138 17.4577 13.3138L17.3183 13.3215C15.8156 13.4039 14.6449 14.6918 14.6449 16.2456Z" fill="#404852" stroke="#404852" stroke-width="0.21875"/>
</g>
</g>
<g id="Group_5">
<g id="Group_6">
<path id="Vector_3" d="M9.07152 10.3212H5.09C4.72761 10.3212 4.43375 10.615 4.43375 10.9774V15.5313C4.43375 15.8938 4.72761 16.1875 5.09 16.1875C5.45238 16.1875 5.74625 15.8938 5.74625 15.5313V11.6337H8.41527V22.4901H5.74625V20.1797C5.74625 19.8173 5.45238 19.5235 5.09 19.5235C4.72761 19.5235 4.43375 19.8173 4.43375 20.1797V23.1464C4.43375 23.5088 4.72761 23.8026 5.09 23.8026H9.07152C9.4339 23.8026 9.72777 23.5088 9.72777 23.1464V10.9774C9.72777 10.615 9.4339 10.3212 9.07152 10.3212Z" fill="#404852" stroke="#404852" stroke-width="0.21875"/>
</g>
</g>
<g id="Group_7">
<g id="Group_8">
<path id="Vector_4" d="M4.62578 18.4561C4.74794 18.5784 4.91685 18.6484 5.08972 18.6484C5.2633 18.6484 5.43152 18.5783 5.55406 18.4564L5.55423 18.4562C5.6765 18.334 5.74657 18.1651 5.74657 17.9922C5.74657 17.8193 5.67643 17.6504 5.55425 17.5282L5.55406 17.528C5.43152 17.4061 5.2633 17.3359 5.08972 17.3359C4.91687 17.3359 4.74797 17.406 4.62582 17.5282M4.62578 18.4561L4.70302 18.3789L4.6258 18.4562C4.62579 18.4562 4.62578 18.4562 4.62578 18.4561ZM4.62578 18.4561C4.50361 18.334 4.43347 18.1651 4.43347 17.9922C4.43347 17.8193 4.50353 17.6504 4.62578 17.5282M4.62578 17.5282L4.70314 17.6055M4.62578 17.5282C4.62579 17.5282 4.6258 17.5282 4.62582 17.5282M4.62578 17.5282C4.62579 17.5282 4.6258 17.5282 4.62582 17.5282M4.70314 17.6055C4.60136 17.7073 4.54285 17.8484 4.54285 17.9922C4.54285 18.136 4.60142 18.2771 4.70314 18.3788C4.8048 18.4805 4.94589 18.5391 5.08972 18.5391C5.23415 18.5391 5.3747 18.4805 5.47691 18.3788C5.57868 18.2771 5.6372 18.136 5.6372 17.9922C5.6372 17.8484 5.57863 17.7073 5.47691 17.6055C5.3747 17.5038 5.23415 17.4453 5.08972 17.4453C4.94589 17.4453 4.8048 17.5038 4.70314 17.6055ZM4.70314 17.6055L4.62582 17.5282" fill="#404852" stroke="#404852" stroke-width="0.21875"/>
</g>
</g>
<g id="Group_9">
<g id="Group_10">
<path id="Vector_5" d="M7.08077 4.19751C5.4907 4.19751 4.19727 5.49095 4.19727 7.08102C4.19727 8.67109 5.4907 9.96453 7.08077 9.96453C8.67084 9.96453 9.96434 8.67109 9.96434 7.08102C9.96434 5.49095 8.6709 4.19751 7.08077 4.19751ZM7.08077 8.65203C6.21461 8.65203 5.50977 7.94718 5.50977 7.08102C5.50977 6.21486 6.21466 5.51001 7.08077 5.51001C7.94694 5.51001 8.65184 6.21486 8.65184 7.08102C8.65184 7.94718 7.94694 8.65203 7.08077 8.65203Z" fill="#F06718" stroke="#F06718" stroke-width="0.21875"/>
</g>
</g>
<g id="Group_11">
<g id="Group_12">
<path id="Vector_6" d="M21.2535 2.51562H16.7965C16.4341 2.51562 16.1403 2.80942 16.1403 3.17188C16.1403 3.53433 16.4341 3.82812 16.7965 3.82812H21.2535C21.6159 3.82812 21.9098 3.53433 21.9098 3.17188C21.9098 2.80942 21.6159 2.51562 21.2535 2.51562Z" fill="#404852" stroke="#404852" stroke-width="0.21875"/>
</g>
</g>
<g id="Group_13">
<g id="Group_14">
<path id="Vector_7" d="M14.3147 2.51562H14.3082C13.9458 2.51562 13.652 2.80942 13.652 3.17188C13.652 3.53433 13.9458 3.82812 14.3082 3.82812H14.3147C14.6771 3.82812 14.971 3.53433 14.971 3.17188C14.971 2.80942 14.6771 2.51562 14.3147 2.51562Z" fill="#404852" stroke="#404852" stroke-width="0.21875"/>
</g>
</g>
</g>
<defs>
<clipPath id="clip0_4_501">
<rect width="28" height="28" fill="white"/>
</clipPath>
</defs>
</svg>
