<svg width="32" height="32" viewBox="0 0 32 32" fill="none" xmlns="http://www.w3.org/2000/svg">
<g id="fi_10892268">
<g id="Group">
<g id="ARC_116_">
<g id="Group_2">
<path id="Vector" d="M8.20299 20.2466C7.90999 20.2466 7.61949 20.1181 7.42149 19.8716C4.73899 16.5211 4.25349 11.8796 6.18449 8.04707C6.43249 7.55457 7.03299 7.35457 7.52799 7.60407C8.02099 7.85257 8.21949 8.45407 7.97099 8.94707C6.39099 12.0826 6.78849 15.8806 8.98299 18.6216C9.32799 19.0526 9.25849 19.6821 8.82699 20.0271C8.64299 20.1746 8.42249 20.2466 8.20299 20.2466Z" fill="#404852"/>
</g>
</g>
<g id="LINE_218_">
<g id="Group_3">
<path id="Vector_2" d="M8.80697 7.05848C8.54897 7.05848 8.29147 6.95948 8.09547 6.76148C7.70747 6.36848 7.71097 5.73548 8.10397 5.34748L8.45947 4.99598C8.85247 4.60798 9.48547 4.61098 9.87397 5.00448C10.262 5.39748 10.2585 6.03048 9.86547 6.41848L9.50997 6.76998C9.31547 6.96248 9.06097 7.05848 8.80697 7.05848Z" fill="#F06718"/>
</g>
</g>
<g id="ARC_117_">
<g id="Group_4">
<path id="Vector_3" d="M23.8145 20.2465C23.5955 20.2465 23.3745 20.1745 23.19 20.027C22.759 19.682 22.689 19.0525 23.034 18.6215C25.4585 15.594 25.6495 11.228 23.5005 8.00453C21.0525 4.33253 16.0285 2.97253 12.061 4.90853C11.564 5.15053 10.9665 4.94403 10.724 4.44853C10.4815 3.95203 10.6875 3.35353 11.184 3.11103C16.1125 0.705026 22.1225 2.33253 25.1645 6.89453C27.792 10.835 27.558 16.171 24.5955 19.871C24.398 20.118 24.1075 20.2465 23.8145 20.2465Z" fill="#404852"/>
</g>
</g>
<g id="CIRCLE_12_">
<g id="Group_5">
<path id="Vector_4" d="M16.0175 18.9845C16.017 18.9845 16.017 18.9845 16.0175 18.9845C14.545 18.9845 13.136 18.4595 12.0505 17.506C9.98748 15.694 9.41998 12.62 10.7005 10.1965C11.727 8.25451 13.8215 6.99951 16.037 6.99951C16.522 6.99951 17.0055 7.05901 17.473 7.17651C20.1015 7.83601 22.0085 10.2835 22.0085 12.9965C22.0085 14.938 21.0615 16.7685 19.4765 17.893C18.4695 18.607 17.274 18.9845 16.0175 18.9845ZM16.037 8.99951C14.554 8.99951 13.153 9.83601 12.469 11.131C11.6155 12.7455 11.995 14.795 13.3705 16.0035C14.0905 16.636 15.0305 16.9845 16.017 16.9845C16.8565 16.9845 17.653 16.7345 18.3195 16.262C19.3775 15.512 20.009 14.2915 20.009 12.9965C20.009 11.188 18.738 9.55601 16.9865 9.11651C16.6775 9.03901 16.358 8.99951 16.037 8.99951Z" fill="#404852"/>
</g>
</g>
<g id="LINE_529_">
<g id="Group_6">
<path id="Vector_5" d="M16.0085 29.9966C15.7895 29.9966 15.5685 29.9246 15.384 29.7771C14.953 29.4321 14.883 28.8026 15.228 28.3716L23.034 18.6216C23.3795 18.1901 24.008 18.1211 24.44 18.4661C24.871 18.8111 24.941 19.4406 24.596 19.8716L16.79 29.6216C16.592 29.8681 16.3015 29.9966 16.0085 29.9966Z" fill="#404852"/>
</g>
</g>
<g id="LINE_530_">
<g id="Group_7">
<path id="Vector_6" d="M16.0095 29.9966C15.7165 29.9966 15.426 29.8681 15.228 29.6216L7.422 19.8716C7.077 19.4406 7.1465 18.8111 7.578 18.4661C8.0085 18.1211 8.638 18.1901 8.984 18.6216L16.79 28.3716C17.135 28.8026 17.0655 29.4321 16.634 29.7771C16.449 29.9246 16.2285 29.9966 16.0095 29.9966Z" fill="#404852"/>
</g>
</g>
</g>
</g>
</svg>
