<svg width="299" height="347" viewBox="0 0 299 347" fill="none" xmlns="http://www.w3.org/2000/svg">
<g clip-path="url(#clip0_3_122)">
<path d="M59.1988 239.31L59.8 238.709L59.8 235.325L55.8165 239.31L59.1988 239.31ZM52.4326 239.31L59.8 231.941L59.8 228.557L49.0503 239.312L52.4326 239.312L52.4326 239.31ZM45.6665 239.31L59.7984 225.172L59.7984 221.788L42.2842 239.31L45.6665 239.31ZM38.9003 239.31L59.7984 218.403L59.7984 215.019L35.518 239.31L38.9003 239.31ZM32.1341 239.31L59.7968 211.635L59.7968 208.251L28.7502 239.312L32.1341 239.312L32.1341 239.31ZM25.3679 239.31L59.7968 204.866L59.7968 201.482L21.9856 239.31L25.3695 239.31L25.3679 239.31ZM18.6018 239.31L59.7968 198.096L59.7968 194.712L15.2195 239.31L18.6018 239.31ZM11.8356 239.31L59.7952 191.329L59.7952 187.945L8.45171 239.31L11.834 239.31L11.8356 239.31ZM5.06943 239.31L59.7952 184.559L59.7952 181.174L1.68553 239.31L5.06783 239.31L5.06943 239.31ZM-0.004814 237.619L58.1049 179.483L54.721 179.483L-0.0048137 234.234L-0.004814 237.618L-0.004814 237.619ZM-0.00481341 230.85L51.3387 179.483L47.9548 179.483L-0.00481311 227.464L-0.00481341 230.848L-0.00481341 230.85ZM-0.00481282 224.081L44.5725 179.483L41.1902 179.483L-0.00481252 220.697L-0.00481282 224.081ZM-0.00481222 217.311L37.8063 179.483L34.4241 179.483L-0.00481193 213.927L-0.00481222 217.311ZM-0.00481163 210.542L31.0418 179.481L27.6595 179.481L-0.00481134 207.158L-0.00481163 210.542ZM-0.00481104 203.774L24.2756 179.483L20.8933 179.483L-0.00481075 200.39L-0.00481104 203.776L-0.00481104 203.774ZM-0.00481045 197.005L17.511 179.481L14.1287 179.481L-0.0032118 193.62L-0.00321209 197.003L-0.00481045 197.005ZM-0.00480986 190.236L10.7448 179.481L7.36257 179.481L-0.00480956 186.85L-0.00480986 190.236ZM-0.00480927 183.466L3.97867 179.481L0.596384 179.481L-0.00480897 180.083L-0.00480927 183.466Z" fill="#F06718"/>
<path d="M179.4 59.8276L239.2 59.8276L239.2 3.05176e-05L179.4 2.52897e-05L179.4 59.8276Z" fill="#F0942D"/>
<path d="M239.2 59.8276L239.2 3.05176e-05L236.808 3.03085e-05L236.808 59.8276L239.2 59.8276ZM234.416 59.8276L234.416 3.00993e-05L232.024 2.98902e-05L232.024 59.8276L234.416 59.8276ZM229.632 59.8276L229.632 2.96811e-05L227.24 2.9472e-05L227.24 59.8276L229.632 59.8276ZM224.848 59.8276L224.848 2.92629e-05L222.456 2.90538e-05L222.456 59.8276L224.848 59.8276ZM220.064 59.8276L220.064 2.88447e-05L217.672 2.86355e-05L217.672 59.8276L220.064 59.8276ZM215.28 59.8276L215.28 2.84264e-05L212.888 2.82173e-05L212.888 59.8276L215.28 59.8276ZM210.496 59.8276L210.496 2.80082e-05L208.104 2.77991e-05L208.104 59.8276L210.496 59.8276ZM205.712 59.8276L205.712 2.759e-05L203.32 2.73808e-05L203.32 59.8276L205.712 59.8276ZM200.928 59.8276L200.928 2.71717e-05L198.536 2.69626e-05L198.536 59.8276L200.928 59.8276ZM196.144 59.8276L196.144 2.67535e-05L193.752 2.65444e-05L193.752 59.8276L196.144 59.8276ZM191.36 59.8276L191.36 2.63353e-05L188.968 2.61262e-05L188.968 59.8276L191.36 59.8276ZM186.576 59.8276L186.576 2.5917e-05L184.184 2.57079e-05L184.184 59.8276L186.576 59.8276ZM181.792 59.8276L181.792 2.54988e-05L179.4 2.52897e-05L179.4 59.8276L181.792 59.8276Z" fill="white"/>
<path d="M59.8 59.8276L119.6 59.8276L119.6 1.52588e-05L59.8 1.00309e-05L59.8 59.8276Z" fill="#E7EAED"/>
<path d="M59.8 59.8276L119.6 59.8276L119.6 57.4345L59.8 57.4345L59.8 59.8276ZM59.8 55.0414L119.6 55.0414L119.6 52.6483L59.8 52.6483L59.8 55.0414ZM59.8 50.2552L119.6 50.2552L119.6 47.8621L59.8 47.8621L59.8 50.2552ZM59.8 45.469L119.6 45.469L119.6 43.0759L59.8 43.0759L59.8 45.469ZM59.8 40.6828L119.6 40.6828L119.6 38.2897L59.8 38.2897L59.8 40.6828ZM59.8 35.8966L119.6 35.8966L119.6 33.5035L59.8 33.5035L59.8 35.8966ZM59.8 31.1103L119.6 31.1104L119.6 28.7173L59.8 28.7172L59.8 31.1103ZM59.8 26.3241L119.6 26.3241L119.6 23.931L59.8 23.931L59.8 26.3241ZM59.8 21.5379L119.6 21.5379L119.6 19.1448L59.8 19.1448L59.8 21.5379ZM59.8 16.7517L119.6 16.7517L119.6 14.3586L59.8 14.3586L59.8 16.7517ZM59.8 11.9655L119.6 11.9655L119.6 9.57243L59.8 9.57242L59.8 11.9655ZM59.8 7.17932L119.6 7.17932L119.6 4.78622L59.8 4.78622L59.8 7.17932ZM59.8 2.39311L119.6 2.39312L119.6 1.52588e-05L59.8 1.00309e-05L59.8 2.39311Z" fill="white"/>
<path fill-rule="evenodd" clip-rule="evenodd" d="M119.6 89.7414C119.6 73.2194 132.986 59.8276 149.5 59.8276C166.014 59.8276 179.4 73.2194 179.4 89.7414C179.4 97.6753 176.251 105.284 170.642 110.893C165.035 116.503 157.43 119.655 149.5 119.655C141.57 119.655 133.965 116.504 128.358 110.893C122.751 105.284 119.6 97.6753 119.6 89.7414Z" fill="#F06718"/>
<path d="M119.6 59.8276L179.4 59.8276L179.4 1.52588e-05L119.6 1.00309e-05L119.6 59.8276Z" fill="#404852"/>
<path fill-rule="evenodd" clip-rule="evenodd" d="M119.6 29.9138C119.6 21.9799 122.749 14.3714 128.358 8.76194C133.965 3.15251 141.57 1.19516e-05 149.5 1.26448e-05C157.43 1.33381e-05 165.035 3.15092 170.642 8.76195C176.249 14.3714 179.4 21.9815 179.4 29.9138C179.4 37.8461 176.251 45.4562 170.642 51.0656C165.035 56.6751 157.43 59.8276 149.5 59.8276C141.57 59.8276 133.965 56.6767 128.358 51.0656C122.751 45.4546 119.6 37.8477 119.6 29.9138Z" fill="#F8C696"/>
<path d="M239.2 239.31L299 239.31L299 236.917L239.2 236.917L239.2 239.31ZM239.2 234.524L299 234.524L299 232.131L239.2 232.131L239.2 234.524ZM239.2 229.738L299 229.738L299 227.345L239.2 227.345L239.2 229.738ZM239.2 224.952L299 224.952L299 222.559L239.2 222.559L239.2 224.952ZM239.2 220.166L299 220.166L299 217.772L239.2 217.772L239.2 220.166ZM239.2 215.379L299 215.379L299 212.986L239.2 212.986L239.2 215.379ZM239.2 210.593L299 210.593L299 208.2L239.2 208.2L239.2 210.593ZM239.2 205.807L299 205.807L299 203.414L239.2 203.414L239.2 205.807ZM239.2 201.021L299 201.021L299 198.628L239.2 198.628L239.2 201.021ZM239.2 196.234L299 196.234L299 193.841L239.2 193.841L239.2 196.234ZM239.2 191.448L299 191.448L299 189.055L239.2 189.055L239.2 191.448ZM239.2 186.662L299 186.662L299 184.269L239.2 184.269L239.2 186.662ZM239.2 181.876L299 181.876L299 179.483L239.2 179.483L239.2 181.876Z" fill="#F8C696"/>
<path d="M60.4012 239.31L59.8 238.709L59.8 235.325L63.7834 239.31L60.4012 239.31ZM67.1673 239.31L59.8 231.941L59.8 228.557L70.5496 239.312L67.1673 239.312L67.1673 239.31ZM73.9335 239.31L59.8016 225.172L59.8016 221.788L77.3158 239.31L73.9335 239.31ZM80.6997 239.31L59.8016 218.403L59.8016 215.019L84.082 239.31L80.6997 239.31ZM87.4658 239.31L59.8032 211.635L59.8032 208.251L90.8497 239.312L87.4674 239.312L87.4658 239.31ZM94.232 239.31L59.8032 204.866L59.8032 201.482L97.6143 239.31L94.2304 239.31L94.232 239.31ZM100.998 239.31L59.8032 198.096L59.8032 194.712L104.38 239.31L100.998 239.31ZM107.764 239.31L59.8048 191.329L59.8048 187.945L111.147 239.31L107.764 239.31ZM114.531 239.31L59.8048 184.559L59.8048 181.174L117.914 239.31L114.531 239.31ZM119.605 237.619L61.4951 179.483L64.8774 179.483L119.603 234.234L119.603 237.618L119.605 237.619ZM119.605 230.85L68.2613 179.483L71.6452 179.483L119.605 227.464L119.605 230.848L119.605 230.85ZM119.605 224.081L75.0274 179.483L78.4097 179.483L119.605 220.697L119.605 224.081ZM119.605 217.311L81.7936 179.483L85.1759 179.483L119.605 213.927L119.605 217.311ZM119.605 210.542L88.5582 179.481L91.9405 179.481L119.605 207.158L119.605 210.542ZM119.605 203.774L95.3244 179.483L98.7067 179.483L119.605 200.391L119.605 203.776L119.605 203.774ZM119.605 197.005L102.089 179.481L105.471 179.481L119.603 193.62L119.603 197.003L119.605 197.005ZM119.605 190.236L108.855 179.481L112.237 179.481L119.605 186.85L119.605 190.236ZM119.605 183.466L115.621 179.481L119.004 179.481L119.605 180.083L119.605 183.466Z" fill="#F0942D"/>
<path d="M0.60117 59.8276L-2.28355e-05 59.2261L-2.25396e-05 55.8423L3.98345 59.8276L0.60117 59.8276ZM7.36733 59.8276L-2.22438e-05 52.4585L-2.19478e-05 49.073L10.7496 59.8276L7.36733 59.8276ZM14.1335 59.8276L0.00157671 45.6892L0.001577 42.3053L17.5158 59.8276L14.1335 59.8276ZM20.8997 59.8276L0.0015773 38.9199L0.00157759 35.536L24.282 59.8276L20.8997 59.8276ZM27.6659 59.8276L0.00317243 32.1522L0.00317273 28.7683L31.0497 59.8292L27.6674 59.8292L27.6659 59.8276ZM34.432 59.8276L0.00317302 25.3829L0.00317332 21.9974L37.8143 59.826L34.432 59.826L34.432 59.8276ZM41.1982 59.8276L0.00317362 18.6136L0.00317391 15.2297L44.5805 59.8276L41.1982 59.8276ZM47.9644 59.8276L0.00477257 11.8459L0.00477286 8.46205L51.3467 59.8292L47.9644 59.8292L47.9644 59.8276ZM54.7305 59.8276L0.00477316 5.07661L0.00477345 1.69117L58.1144 59.8276L54.7305 59.8276ZM59.8048 58.1365L1.69512 2.92522e-05L5.0774 2.95479e-05L59.8032 54.7511L59.8032 58.1365L59.8048 58.1365ZM59.8048 51.3672L8.4613 2.98437e-05L11.8452 3.01395e-05L59.8048 47.9818L59.8048 51.3656L59.8048 51.3672ZM59.8048 44.5979L15.2275 3.04352e-05L18.6097 3.07309e-05L59.8048 41.214L59.8048 44.5979ZM59.8048 37.8286L21.9936 3.10267e-05L25.3759 3.13224e-05L59.8048 34.4448L59.8048 37.8286ZM59.8048 31.0593L28.7582 -0.00156674L32.1405 -0.00156644L59.8048 27.6755L59.8048 31.0593ZM59.8048 24.29L35.5244 -0.00156615L38.9067 -0.00156585L59.8048 20.9062L59.8048 24.29ZM59.8048 17.5208L42.2889 -0.0031601L45.6712 -0.0031598L59.8032 14.1353L59.8032 17.5192L59.8048 17.5208ZM59.8048 10.7514L49.0551 -0.00315951L52.4374 -0.00315921L59.8048 7.36759L59.8048 10.7514ZM59.8048 3.98215L55.8213 -0.00315892L59.2036 -0.00315862L59.8048 0.598309L59.8048 3.98215Z" fill="#898F94"/>
<path d="M179.4 179.483L239.2 179.483L239.2 119.655L179.4 119.655L179.4 179.483Z" fill="#404852"/>
<path d="M209.3 179.483C209.3 171.549 206.151 163.94 200.542 158.331C194.934 152.721 187.33 149.569 179.4 149.569L179.4 179.483L209.3 179.483Z" fill="#F8C696"/>
<path d="M179.4 299.138L239.2 299.138L239.2 239.31L179.4 239.31L179.4 299.138Z" fill="#404852"/>
<path fill-rule="evenodd" clip-rule="evenodd" d="M179.4 284.181C179.4 275.92 186.093 269.224 194.35 269.224C198.314 269.224 202.118 270.8 204.921 273.605C207.724 276.41 209.3 280.215 209.3 284.181C209.3 288.147 207.724 291.952 204.921 294.757C202.118 297.562 198.314 299.138 194.35 299.138C186.093 299.138 179.4 292.442 179.4 284.181Z" fill="#F06718"/>
<path d="M59.8 299.138L119.6 299.138L119.6 239.31L59.8 239.31L59.8 299.138Z" fill="white"/>
<path fill-rule="evenodd" clip-rule="evenodd" d="M59.8 284.181C59.8 280.215 61.3755 276.41 64.1789 273.605C66.9824 270.8 70.7856 269.224 74.75 269.224C78.7143 269.224 82.5176 270.8 85.321 273.605C88.1245 276.41 89.7 280.215 89.7 284.181C89.7 288.147 88.1245 291.952 85.321 294.757C82.5176 297.562 78.7143 299.138 74.75 299.138C70.7856 299.138 66.9824 297.562 64.1789 294.757C61.3755 291.952 59.8 288.147 59.8 284.181Z" fill="#CFD5DD"/>
<path d="M119.6 299.138L179.4 299.138L179.4 239.31L119.6 239.31L119.6 299.138Z" fill="#F0B28D"/>
<path d="M178.799 299.138L179.4 298.536L179.4 295.153L175.416 299.138L178.799 299.138ZM172.033 299.138L179.4 291.769L179.4 288.385L168.65 299.14L172.033 299.14L172.033 299.138ZM165.266 299.138L179.398 284.999L179.398 281.616L161.883 299.138L165.265 299.138L165.266 299.138ZM158.5 299.138L179.398 278.23L179.398 274.845L155.118 299.136L158.502 299.136L158.5 299.138ZM151.734 299.138L179.397 271.462L179.397 268.077L148.35 299.138L151.732 299.138L151.734 299.138ZM144.968 299.138L179.397 264.693L179.397 261.309L141.586 299.138L144.968 299.138ZM138.202 299.138L179.397 257.924L179.397 254.54L134.819 299.138L138.202 299.138ZM131.436 299.138L179.395 251.156L179.395 247.772L128.052 299.138L131.436 299.138ZM124.669 299.138L179.395 244.387L179.395 241.001L121.286 299.138L124.668 299.138L124.669 299.138ZM119.595 297.447L177.705 239.31L174.321 239.31L119.595 294.061L119.595 297.445L119.595 297.447ZM119.595 290.677L170.939 239.31L167.556 239.31L119.597 287.292L119.597 290.676L119.595 290.677ZM119.595 283.908L164.172 239.31L160.79 239.31L119.595 280.524L119.595 283.908ZM119.595 277.139L157.406 239.31L154.022 239.31L119.594 273.755L119.594 277.139L119.595 277.139ZM119.595 270.37L150.642 239.309L147.259 239.309L119.595 266.986L119.595 270.37ZM119.595 263.602L143.876 239.31L140.493 239.31L119.595 260.218L119.595 263.602ZM119.595 256.833L137.111 239.309L133.729 239.309L119.597 253.447L119.597 256.833L119.595 256.833ZM119.595 250.063L130.345 239.309L126.963 239.309L119.597 246.68L119.597 250.063L119.595 250.063ZM119.595 243.294L123.579 239.309L120.196 239.309L119.595 239.91L119.595 243.294Z" fill="white"/>
<path d="M119.6 239.31L179.4 239.31L179.4 179.483L119.6 179.483L119.6 239.31Z" fill="#404852"/>
<path d="M59.8 179.483L119.6 179.483L119.6 119.655L59.8 119.655L59.8 179.483Z" fill="#404852"/>
<path d="M-1.90735e-05 329.052L59.8 329.052L59.8 299.138L-1.64583e-05 299.138L-1.90735e-05 329.052Z" fill="#404852"/>
<path fill-rule="evenodd" clip-rule="evenodd" d="M95.68 341.017C95.68 337.713 98.3574 335.034 101.66 335.034C104.963 335.034 107.64 337.713 107.64 341.017C107.64 342.605 107.01 344.125 105.889 345.248C104.768 346.37 103.247 347 101.66 347C98.3574 347 95.68 344.321 95.68 341.017Z" fill="white"/>
<path fill-rule="evenodd" clip-rule="evenodd" d="M71.76 341.017C71.76 337.713 74.4374 335.034 77.74 335.034C81.0425 335.034 83.72 337.713 83.72 341.017C83.72 344.321 81.0425 347 77.74 347C76.1533 347 74.6336 346.37 73.5109 345.248C72.3883 344.127 71.76 342.605 71.76 341.017Z" fill="white"/>
<path fill-rule="evenodd" clip-rule="evenodd" d="M95.68 317.086C95.68 313.782 98.3574 311.103 101.66 311.103C103.247 311.103 104.766 311.734 105.889 312.855C107.01 313.977 107.64 315.499 107.64 317.086C107.64 318.674 107.01 320.194 105.889 321.317C104.768 322.439 103.247 323.069 101.66 323.069C98.3574 323.069 95.68 320.39 95.68 317.086Z" fill="white"/>
<path fill-rule="evenodd" clip-rule="evenodd" d="M71.76 317.086C71.76 315.5 72.3899 313.978 73.5109 312.855C74.632 311.732 76.1533 311.103 77.74 311.103C81.0426 311.103 83.72 313.782 83.72 317.086C83.72 320.39 81.0426 323.069 77.74 323.069C76.1533 323.069 74.6336 322.439 73.5109 321.317C72.3883 320.196 71.76 318.674 71.76 317.086Z" fill="white"/>
<path d="M149.5 239.31C149.5 222.79 162.887 209.397 179.4 209.397L179.4 239.31L149.5 239.31Z" fill="#F06718"/>
<path d="M119.6 269.224C127.53 269.224 135.135 266.073 140.742 260.462C146.349 254.853 149.5 247.244 149.5 239.31L119.6 239.31L119.6 269.224Z" fill="#404852"/>
<path d="M209.3 179.483C209.3 196.005 195.913 209.397 179.4 209.397L179.4 179.483L209.3 179.483Z" fill="#404852"/>
<path fill-rule="evenodd" clip-rule="evenodd" d="M209.3 284.181C209.3 280.215 210.876 276.41 213.679 273.605C216.482 270.8 220.286 269.224 224.25 269.224C228.214 269.224 232.018 270.8 234.821 273.605C237.624 276.41 239.2 280.215 239.2 284.181C239.2 288.147 237.624 291.952 234.821 294.757C232.018 297.562 228.214 299.138 224.25 299.138C220.286 299.138 216.482 297.562 213.679 294.757C210.876 291.952 209.3 288.147 209.3 284.181Z" fill="#F0942D"/>
<path fill-rule="evenodd" clip-rule="evenodd" d="M209.3 254.267C209.3 250.301 210.876 246.496 213.679 243.691C216.482 240.887 220.286 239.31 224.25 239.31C228.214 239.31 232.018 240.887 234.821 243.691C237.624 246.496 239.2 250.301 239.2 254.267C239.2 258.233 237.624 262.038 234.821 264.843C232.018 267.648 228.214 269.224 224.25 269.224C220.286 269.224 216.482 267.648 213.679 264.843C210.876 262.038 209.3 258.233 209.3 254.267Z" fill="#E7EAED"/>
<path fill-rule="evenodd" clip-rule="evenodd" d="M179.4 254.267C179.4 246.006 186.093 239.31 194.35 239.31C198.314 239.31 202.118 240.887 204.921 243.691C207.724 246.496 209.3 250.301 209.3 254.267C209.3 258.233 207.724 262.038 204.921 264.843C202.118 267.648 198.314 269.224 194.35 269.224C186.093 269.224 179.4 262.528 179.4 254.267Z" fill="#F8C696"/>
<path d="M209.3 179.483C209.3 171.549 212.449 163.94 218.058 158.331C223.665 152.722 231.27 149.569 239.2 149.569L239.2 179.483L209.3 179.483Z" fill="#F18635"/>
<path d="M209.3 119.655C209.3 136.177 195.913 149.569 179.4 149.569L179.4 119.655L209.3 119.655Z" fill="#E7EAED"/>
<path d="M209.3 119.655C209.3 127.589 212.449 135.198 218.058 140.807C223.665 146.416 231.27 149.569 239.2 149.569L239.2 119.655L209.3 119.655Z" fill="#898F94"/>
<path d="M119.6 179.483L179.4 179.483L179.4 149.569L119.6 149.569L119.6 179.483Z" fill="#F8C696"/>
<path d="M59.8 269.224L119.6 269.224L119.6 239.31L59.8 239.31L59.8 269.224Z" fill="#898F94"/>
<path fill-rule="evenodd" clip-rule="evenodd" d="M89.7 284.181C89.7 275.92 96.3928 269.224 104.65 269.224C108.614 269.224 112.418 270.8 115.221 273.605C118.024 276.41 119.6 280.215 119.6 284.181C119.6 288.147 118.024 291.952 115.221 294.757C112.418 297.562 108.614 299.138 104.65 299.138C96.3928 299.138 89.7 292.442 89.7 284.181Z" fill="#F06718"/>
<path d="M179.4 59.8276C195.261 59.8276 210.47 66.131 221.684 77.3515C232.899 88.5704 239.2 103.789 239.2 119.655L179.4 119.655L179.4 59.8276Z" fill="#E7EAED"/>
<path d="M59.8 179.483L119.6 179.483L59.8 239.31L59.8 179.483Z" fill="#F0942D"/>
<path d="M239.2 269.224L269.1 269.224L269.1 239.31L239.2 239.31L239.2 269.224Z" fill="#898F94"/>
<path d="M119.6 149.569L149.5 149.569L149.5 119.655L119.6 119.655L119.6 149.569Z" fill="#F8C696"/>
<path d="M59.8 179.483L59.8 119.655L57.408 119.655L57.408 179.483L59.8 179.483ZM55.016 179.483L55.016 119.655L52.624 119.655L52.624 179.483L55.016 179.483ZM50.232 179.483L50.232 119.655L47.84 119.655L47.84 179.483L50.232 179.483ZM45.448 179.483L45.448 119.655L43.056 119.655L43.056 179.483L45.448 179.483ZM40.664 179.483L40.664 119.655L38.272 119.655L38.272 179.483L40.664 179.483ZM35.88 179.483L35.88 119.655L33.488 119.655L33.488 179.483L35.88 179.483ZM31.096 179.483L31.096 119.655L28.704 119.655L28.704 179.483L31.096 179.483ZM26.312 179.483L26.312 119.655L23.92 119.655L23.92 179.483L26.312 179.483ZM21.528 179.483L21.528 119.655L19.136 119.655L19.136 179.483L21.528 179.483ZM16.744 179.483L16.744 119.655L14.352 119.655L14.352 179.483L16.744 179.483ZM11.96 179.483L11.96 119.655L9.56799 119.655L9.56798 179.483L11.96 179.483ZM7.17598 179.483L7.17599 119.655L4.78399 119.655L4.78398 179.483L7.17598 179.483ZM2.39198 179.483L2.39199 119.655L-1.38432e-05 119.655L-1.90735e-05 179.483L2.39198 179.483Z" fill="#404852"/>
<path d="M-1.38432e-05 1.00309e-05L-1.90735e-05 59.8276L59.8 1.52588e-05L-1.38432e-05 1.00309e-05Z" fill="#898F94"/>
<path d="M180.001 179.483L179.4 178.881L179.4 175.497L183.383 179.483L180.001 179.483ZM186.766 179.483L179.4 172.114L179.4 168.728L190.15 179.483L186.766 179.483ZM193.532 179.483L179.4 165.344L179.4 161.96L196.914 179.483L193.532 179.483ZM200.298 179.483L179.4 158.575L179.4 155.19L203.68 179.481L200.298 179.481L200.298 179.483ZM207.064 179.483L179.402 151.807L179.402 148.423L210.448 179.484L207.066 179.484L207.064 179.483ZM213.83 179.483L179.402 145.038L179.402 141.654L217.213 179.483L213.829 179.483L213.83 179.483ZM220.597 179.483L179.402 138.269L179.402 134.885L223.979 179.483L220.597 179.483ZM227.363 179.483L179.403 131.501L179.403 128.117L230.747 179.483L227.364 179.483L227.363 179.483ZM234.129 179.483L179.403 124.732L179.403 121.346L237.511 179.483L234.129 179.483ZM239.203 177.792L181.094 119.655L184.477 119.655L239.203 174.406L239.203 177.792ZM239.203 171.022L187.86 119.655L191.244 119.655L239.203 167.637L239.203 171.021L239.203 171.022ZM239.203 164.253L194.626 119.655L198.008 119.655L239.203 160.869L239.203 164.253ZM239.203 157.484L201.392 119.655L204.774 119.655L239.203 154.1L239.203 157.484ZM239.203 150.714L208.157 119.654L211.539 119.654L239.203 147.331L239.203 150.714ZM239.203 143.945L214.923 119.654L218.307 119.654L239.205 140.561L239.205 143.947L239.203 143.945ZM239.203 137.176L221.687 119.652L225.07 119.652L239.202 133.79L239.202 137.176L239.203 137.176ZM239.203 130.407L228.454 119.652L231.836 119.652L239.203 127.021L239.203 130.407ZM239.203 123.637L235.22 119.652L238.602 119.652L239.203 120.253L239.203 123.637Z" fill="white"/>
<path fill-rule="evenodd" clip-rule="evenodd" d="M59.8 119.655C76.3128 119.655 89.7 106.263 89.7 89.7414C89.7 73.2194 76.3128 59.8276 59.8 59.8276L59.8 119.655Z" fill="#F8C696"/>
<path d="M239.2 239.31L299 239.31L239.2 179.483L239.2 239.31Z" fill="#F8C696"/>
<path d="M59.8 59.8276L119.6 59.8276L119.6 29.9138L59.8 29.9138L59.8 59.8276Z" fill="#E7EAED"/>
<path d="M-1.90735e-05 299.138C15.8605 299.138 31.0705 292.834 42.2842 281.614C53.4995 270.395 59.8 255.177 59.8 239.31L-1.38432e-05 239.31L-1.90735e-05 299.138Z" fill="#F8C696"/>
<path d="M239.2 269.224L269.1 269.224L239.2 299.138L239.2 269.224Z" fill="#E7EAED"/>
<path d="M89.7 119.655L119.6 119.655L119.6 59.8276L89.7 59.8276L89.7 119.655Z" fill="#E7EAED"/>
<path d="M239.2 2.52897e-05C255.061 2.66763e-05 270.27 6.30347 281.484 17.5239C292.699 28.7428 299 43.9597 299 59.8276L239.2 59.8276L239.2 2.52897e-05Z" fill="#F0942D"/>
<path d="M2.09808e-05 119.655L29.9 119.655L29.9 59.8276L2.62111e-05 59.8276L2.09808e-05 119.655Z" fill="white"/>
</g>
<defs>
<clipPath id="clip0_3_122">
<rect width="299" height="347" fill="white" transform="translate(299 347) rotate(-180)"/>
</clipPath>
</defs>
</svg>
