<svg width="1140" height="810" viewBox="0 0 1140 810" fill="none" xmlns="http://www.w3.org/2000/svg">
<path d="M684.223 271.512L681.934 274.218V289.446L697.073 271.512H684.223ZM709.938 271.512L681.934 304.674V319.902L722.796 271.504H709.938V271.512ZM735.654 271.512L681.941 335.137V350.365L748.512 271.512H735.654ZM761.377 271.512L681.941 365.601V380.829L774.227 271.512H761.377ZM787.093 271.512L681.949 396.057V411.285L799.95 271.504H787.093V271.512ZM812.808 271.512L681.949 426.521V441.748L825.666 271.512H812.8H812.808ZM838.523 271.512L681.949 456.985V472.212L851.381 271.512H838.523ZM864.247 271.512L681.957 487.439V502.666L877.104 271.512H864.247ZM889.962 271.512L681.957 517.902V533.139L902.82 271.512H889.962ZM909.245 279.122L688.382 540.752H701.24L909.245 294.357V279.122ZM909.245 309.585L714.098 540.752H726.955L909.245 324.82V309.585ZM909.245 340.048L739.813 540.752H752.671L909.245 355.276V340.048ZM909.245 370.512L765.528 540.752H778.386L909.245 385.74V370.512ZM909.245 400.974L791.244 540.752H804.101L909.245 416.201V400.974ZM909.245 431.428L816.959 540.752H829.817L909.245 446.655V431.419V431.428ZM909.245 461.892L842.675 540.752H855.524L909.245 477.128V461.892ZM909.245 492.355L868.39 540.752H881.248L909.245 507.592V492.355ZM909.245 522.819L894.105 540.752H906.963L909.245 538.046V522.819Z" fill="#F06718"/>
<path d="M227.311 540.752H0V810H227.311V540.752Z" fill="#404852"/>
<path d="M113.656 540.752C113.656 576.452 125.628 610.691 146.946 635.939C168.265 661.188 197.167 675.376 227.311 675.376V540.752H113.656Z" fill="#F8C696"/>
<path d="M227.311 2.25627H0V271.504H227.311V2.25627Z" fill="#404852"/>
<path fill-rule="evenodd" clip-rule="evenodd" d="M227.311 69.5682C227.311 106.746 201.87 136.88 170.483 136.88C155.414 136.88 140.957 129.787 130.301 117.165C119.645 104.542 113.656 87.4182 113.656 69.5682C113.656 51.7192 119.645 34.595 130.301 21.9727C140.957 9.35034 155.414 2.25627 170.483 2.25627C201.87 2.25627 227.311 32.3905 227.311 69.5682Z" fill="#F06718"/>
<path d="M681.934 2.25627H454.622V271.504H681.934V2.25627Z" fill="white"/>
<path fill-rule="evenodd" clip-rule="evenodd" d="M681.934 69.5682C681.934 87.4182 675.944 104.542 665.287 117.165C654.631 129.787 640.179 136.88 625.11 136.88C610.04 136.88 595.581 129.787 584.924 117.165C574.268 104.542 568.278 87.4182 568.278 69.5682C568.278 51.7192 574.268 34.595 584.924 21.9727C595.581 9.35034 610.04 2.25627 625.11 2.25627C640.179 2.25627 654.631 9.35034 665.287 21.9727C675.944 34.595 681.934 51.7192 681.934 69.5682Z" fill="#CFD5DD"/>
<path d="M454.622 2.25627H227.311V271.504H454.622V2.25627Z" fill="#F0B28D"/>
<path d="M229.596 2.26284L227.311 4.97015V20.198L242.451 2.26284H229.596ZM255.313 2.26284L227.311 35.4259V50.6538L268.168 2.25627H255.313V2.26284ZM281.029 2.26284L227.317 65.8881V81.1161L293.891 2.26284H281.029ZM306.746 2.26284L227.317 96.3514V111.587L319.602 2.27033H306.74L306.746 2.26284ZM332.463 2.26284L227.323 126.807V142.043L345.325 2.26284H332.463ZM358.18 2.26284L227.323 157.27V172.498L371.035 2.26284H358.18ZM383.897 2.26284L227.323 187.733V202.96L396.752 2.26284H383.897ZM409.614 2.26284L227.329 218.188V233.416L422.475 2.26284H409.614ZM435.331 2.26284L227.329 248.652V263.887L448.192 2.26284H435.331ZM454.617 9.87351L233.753 271.497H246.615L454.617 25.1089V9.87351ZM454.617 40.3367L259.47 271.497H272.326L454.61 55.5711V40.3433L454.617 40.3367ZM454.617 70.799L285.187 271.497H298.042L454.617 86.0268V70.799ZM454.617 101.262L310.905 271.497H323.766L454.622 116.49V101.262H454.617ZM454.617 131.725L336.615 271.504H349.47L454.617 146.953V131.725ZM454.617 162.181L362.331 271.497H375.187L454.617 177.409V162.181ZM454.617 192.643L388.042 271.504H400.898L454.61 207.879V192.643H454.617ZM454.617 223.107L413.759 271.504H426.615L454.61 238.335V223.107H454.617ZM454.617 253.57L439.476 271.504H452.331L454.617 268.798V253.57Z" fill="white"/>
<path d="M681.934 540.752H454.622V810H681.934V540.752Z" fill="#404852"/>
<path d="M454.622 136.88C424.478 136.88 395.57 151.061 374.257 176.312C352.944 201.557 340.967 235.799 340.967 271.504H454.622V136.88Z" fill="#404852"/>
<path d="M113.656 540.752C113.656 466.393 164.543 406.128 227.311 406.128V540.752H113.656Z" fill="#404852"/>
<path fill-rule="evenodd" clip-rule="evenodd" d="M113.656 69.5682C113.656 87.4182 107.667 104.542 97.0106 117.165C86.3544 129.787 71.8969 136.88 56.8278 136.88C41.7587 136.88 27.3019 129.787 16.6458 117.165C5.98884 104.542 0 87.4182 0 69.5682C0 51.7192 5.98884 34.595 16.6458 21.9727C27.3019 9.35034 41.7587 2.25627 56.8278 2.25627C71.8969 2.25627 86.3544 9.35034 97.0106 21.9727C107.667 34.595 113.656 51.7192 113.656 69.5682Z" fill="#F0942D"/>
<path fill-rule="evenodd" clip-rule="evenodd" d="M113.656 204.192C113.656 222.042 107.667 239.165 97.0106 251.788C86.3544 264.41 71.8969 271.504 56.8278 271.504C41.7587 271.504 27.3019 264.41 16.6458 251.788C5.98884 239.165 0 222.042 0 204.192C0 186.343 5.98884 169.219 16.6458 156.597C27.3019 143.974 41.7587 136.88 56.8278 136.88C71.8969 136.88 86.3544 143.974 97.0106 156.597C107.667 169.219 113.656 186.343 113.656 204.192Z" fill="#E7EAED"/>
<path fill-rule="evenodd" clip-rule="evenodd" d="M227.311 204.192C227.311 241.37 201.87 271.504 170.483 271.504C155.414 271.504 140.957 264.41 130.301 251.788C119.645 239.165 113.656 222.042 113.656 204.192C113.656 186.343 119.645 169.219 130.301 156.597C140.957 143.974 155.414 136.88 170.483 136.88C201.87 136.88 227.311 167.014 227.311 204.192Z" fill="#F8C696"/>
<path d="M113.656 540.752C113.656 576.452 101.684 610.691 80.3656 635.939C59.0525 661.188 30.1446 675.376 0 675.376V540.752H113.656Z" fill="#F18635"/>
<path d="M113.656 810C113.656 735.641 164.543 675.376 227.311 675.376V810H113.656Z" fill="#E7EAED"/>
<path d="M113.656 810C113.656 774.291 101.684 740.052 80.3656 714.803C59.0525 689.555 30.1446 675.376 0 675.376V810H113.656Z" fill="#898F94"/>
<path d="M454.622 540.752H227.311V675.376H454.622V540.752Z" fill="#F8C696"/>
<path d="M681.934 136.88H454.622V271.504H681.934V136.88Z" fill="#898F94"/>
<path fill-rule="evenodd" clip-rule="evenodd" d="M568.278 69.5682C568.278 106.746 542.836 136.88 511.45 136.88C496.381 136.88 481.923 129.787 471.267 117.165C460.611 104.542 454.622 87.4182 454.622 69.5682C454.622 51.7192 460.611 34.595 471.267 21.9727C481.923 9.35034 496.381 2.25627 511.45 2.25627C542.836 2.25627 568.278 32.3905 568.278 69.5682Z" fill="#F06718"/>
<path d="M454.622 675.376H340.967V810H454.622V675.376Z" fill="#F8C696"/>
<path d="M681.934 540.752V810H691.029V540.752H681.934ZM700.124 540.752V810H709.212V540.752H700.124ZM718.307 540.752V810H727.394V540.752H718.307ZM736.489 540.752V810H745.585V540.752H736.489ZM754.672 540.752V810H763.767V540.752H754.672ZM772.863 540.752V810H781.95V540.752H772.863ZM791.045 540.752V810H800.141V540.752H791.045ZM809.228 540.752V810H818.323V540.752H809.228ZM827.411 540.752V810H836.506V540.752H827.411ZM845.601 540.752V810H854.689V540.752H845.601ZM863.784 540.752V810H872.879V540.752H863.784ZM881.967 540.752V810H891.062V540.752H881.967ZM900.149 540.752V810H909.245V540.752H900.149Z" fill="#404852"/>
<path d="M225.026 540.761L227.311 543.468V558.694L212.17 540.761H225.026ZM199.314 540.761L227.311 573.921V589.157L186.453 540.761H199.314ZM173.597 540.761L227.311 604.384V619.61L160.742 540.761H173.597ZM147.88 540.761L227.311 634.847V650.083L135.024 540.761H147.88ZM227.305 665.3V680.527L109.301 540.752H122.156L227.305 665.3ZM96.4448 540.761L227.305 695.763V710.989L83.5895 540.761H96.4511H96.4448ZM70.7279 540.761L227.305 726.225V741.452L57.8719 540.761H70.7279ZM45.0103 540.761L227.298 756.679V771.905L32.1488 540.761H45.0103ZM19.2928 540.761L227.298 787.141V802.377L6.4375 540.761H19.2928ZM0.00633422 548.365L220.874 809.991H208.012L0.00633422 563.601V548.365ZM0.00633422 578.828L195.157 809.991H182.294L0.00633422 594.064V578.828ZM0.00633422 609.291L169.439 809.991H156.583L0.00633422 624.517V609.291ZM0.00633422 639.753L143.722 809.991H130.866L0.00633422 654.98V639.753ZM0.00633422 670.216L118.01 809.991H105.155L0.00633422 685.443V670.216ZM92.2928 809.991H79.4312L0 715.906V700.67L92.2928 809.991ZM0.00633422 731.142L66.5815 810H53.7263L0.0126684 746.378V731.142H0.00633422ZM0.00633422 761.604L40.8647 810H28.0087L0.00633422 776.84V761.604ZM0.00633422 792.067L15.1471 810H2.29108L0.00633422 807.294V792.067Z" fill="white"/>
<path d="M909.245 2.25627C848.961 2.25627 791.141 30.6242 748.516 81.1211C705.884 131.61 681.934 200.1 681.934 271.504H909.245V2.25627Z" fill="#F8C696"/>
<path d="M679.652 271.512L681.934 274.218V289.446L666.794 271.512H679.652ZM653.936 271.512L681.934 304.674V319.902L641.079 271.504H653.936V271.512ZM628.213 271.512L681.934 335.137V350.365L615.363 271.512H628.213ZM602.497 271.512L681.934 365.601V380.829L589.639 271.512H602.497ZM681.926 396.057V411.285L563.918 271.504H576.774L681.926 396.057ZM551.062 271.512L681.926 426.521V441.748L538.207 271.512H551.068H551.062ZM525.344 271.512L681.926 456.985V472.212L512.489 271.512H525.344ZM499.627 271.512L681.918 487.439V502.666L486.771 271.512H499.627ZM473.909 271.512L681.918 517.902V533.139L461.047 271.512H473.909ZM454.622 279.122L675.493 540.752H662.635L454.628 294.357V279.129L454.622 279.122ZM454.622 309.585L649.777 540.752H636.911L454.622 324.82V309.585ZM454.622 340.048L624.054 540.752H611.204L454.622 355.276V340.048ZM454.622 370.512L598.338 540.752H585.48L454.622 385.74V370.512ZM454.622 400.974L572.63 540.752H559.772L454.622 416.201V400.974ZM454.622 431.428L546.91 540.752H534.055L454.622 446.655V431.419V431.428ZM454.622 461.892L521.198 540.752H508.343L454.628 477.128V461.901L454.622 461.892ZM454.622 492.355L495.48 540.752H482.625L454.622 507.592V492.355ZM454.622 522.819L469.763 540.752H456.907L454.622 538.046V522.819Z" fill="#F0942D"/>
<path d="M454.622 271.504H227.311V540.752H454.622V271.504Z" fill="#404852"/>
<path d="M340.967 271.504C340.967 345.851 290.079 406.128 227.311 406.128V271.504H340.967Z" fill="#F06718"/>
<path d="M681.934 540.752H454.622L681.934 271.504V540.752Z" fill="#F0942D"/>
<path d="M910.399 538.496L912.689 535.78V520.553L897.55 538.496H910.399ZM884.684 538.496L912.689 505.326V490.099L871.826 538.496H884.684ZM858.969 538.496L912.681 474.862V459.635L846.111 538.496H858.969ZM833.245 538.496L912.681 444.399V429.172L820.395 538.496H833.245ZM807.53 538.496L912.673 413.945V398.718L794.672 538.496H807.53ZM781.814 538.496L912.673 383.483V368.255L768.957 538.496H781.822H781.814ZM756.099 538.496L912.673 353.019V337.791L743.241 538.496H756.099ZM730.376 538.496L912.665 322.563V307.335L717.518 538.496H730.376ZM704.66 538.496L912.665 292.101V276.865L691.803 538.496H704.66ZM685.378 530.882L906.24 269.254H893.382L685.378 515.646V530.882ZM685.378 500.419L880.525 269.254H867.667L685.378 485.182V500.419ZM685.378 469.955L854.809 269.254H841.952L685.378 454.728V469.955ZM685.378 439.492L829.094 269.254H816.236L685.378 424.265V439.492ZM685.378 409.028L803.379 269.248H790.521L685.378 393.8V409.028ZM685.378 378.572L777.663 269.254H764.805L685.378 363.344V378.58V378.572ZM685.378 348.109L751.948 269.248H739.098L685.378 332.874V348.109ZM685.378 317.646L726.232 269.248H713.375L685.378 302.41V317.646ZM685.378 287.182L700.517 269.248H687.659L685.378 271.954V287.182Z" fill="#F06718"/>
<path d="M914.97 538.496L912.689 535.78V520.553L927.828 538.496H914.97ZM940.686 538.496L912.689 505.326V490.099L953.543 538.496H940.686ZM966.409 538.496L912.689 474.862V459.635L979.259 538.496H966.409ZM992.125 538.496L912.689 444.399V429.172L1004.98 538.496H992.125ZM912.697 413.945V398.718L1030.71 538.496H1017.85L912.697 413.945ZM1043.56 538.496L912.697 383.483V368.255L1056.41 538.496H1043.56ZM1069.28 538.496L912.697 353.019V337.791L1082.14 538.496H1069.28ZM1094.99 538.496L912.705 322.563V307.335L1107.85 538.496H1094.99ZM1120.71 538.496L912.705 292.101V276.865L1133.57 538.496H1120.71ZM1140 530.882L919.13 269.254H931.987L1139.99 515.646V530.873L1140 530.882ZM1140 500.419L944.845 269.254H957.711L1140 485.182V500.419ZM1140 469.955L970.568 269.254H983.418L1140 454.728V469.955ZM1140 439.492L996.284 269.254H1009.14L1140 424.265V439.492ZM1140 409.028L1021.99 269.248H1034.85L1140 393.8V409.028ZM1140 378.572L1047.71 269.254H1060.56L1140 363.344V378.58V378.572ZM1140 348.109L1073.42 269.248H1086.28L1139.99 332.874V348.102L1140 348.109ZM1140 317.646L1099.14 269.248H1111.99L1140 302.41V317.646ZM1140 287.182L1124.86 269.248H1137.71L1140 271.954V287.182Z" fill="#F0942D"/>
<path d="M912.689 807.744H1140V538.496H912.689V807.744Z" fill="white"/>
<path fill-rule="evenodd" clip-rule="evenodd" d="M912.689 740.427C912.689 722.577 918.679 705.458 929.335 692.833C939.991 680.209 954.443 673.12 969.513 673.12C984.582 673.12 999.042 680.209 1009.7 692.833C1020.35 705.458 1026.34 722.577 1026.34 740.427C1026.34 758.277 1020.35 775.396 1009.7 788.021C999.042 800.645 984.582 807.744 969.513 807.744C954.443 807.744 939.991 800.645 929.335 788.021C918.679 775.396 912.689 758.277 912.689 740.427Z" fill="#CFD5DD"/>
<path d="M912.689 269.248H1140V0H912.689V269.248Z" fill="#404852"/>
<path d="M912.689 673.12H1140V538.496H912.689V673.12Z" fill="#898F94"/>
<path fill-rule="evenodd" clip-rule="evenodd" d="M1026.34 740.427C1026.34 703.247 1051.78 673.12 1083.17 673.12C1098.24 673.12 1112.7 680.209 1123.35 692.833C1134.01 705.458 1140 722.577 1140 740.427C1140 758.277 1134.01 775.396 1123.35 788.021C1112.7 800.645 1098.24 807.744 1083.17 807.744C1051.78 807.744 1026.34 777.607 1026.34 740.427Z" fill="#F06718"/>
<path d="M912.689 269.248H1140L912.689 538.496V269.248Z" fill="#F0942D"/>
<path d="M912.689 269.248V0H903.594V269.248H912.689ZM894.498 269.248V0H885.411V269.248H894.498ZM876.316 269.248V0H867.228V269.248H876.316ZM858.133 269.248V0H849.038V269.248H858.133ZM839.95 269.248V0H830.855V269.248H839.95ZM821.76 269.248V0H812.672V269.248H821.76ZM803.577 269.248V0H794.482V269.248H803.577ZM785.394 269.248V0H776.299V269.248H785.394ZM767.212 269.248V0H758.116V269.248H767.212ZM749.021 269.248V0H739.934V269.248H749.021ZM730.838 269.248V0H721.743V269.248H730.838ZM712.656 269.248V0H703.56V269.248H712.656ZM694.465 269.248V0H685.378V269.248H694.465Z" fill="#404852"/>
<path d="M685.378 807.744C745.662 807.744 803.482 779.367 846.106 728.871C888.738 678.383 912.689 609.896 912.689 538.496H685.378V807.744Z" fill="#F8C696"/>
</svg>
