<svg width="338" height="357" viewBox="0 0 338 357" fill="none" xmlns="http://www.w3.org/2000/svg">
<g clip-path="url(#clip0_3_68)">
<path d="M300.754 135L300 135.754V139.996L304.996 135H300.754ZM309.24 135L300 144.238V148.48L313.482 134.998H309.24V135ZM317.726 135L300.002 152.724V156.966L321.968 135H317.726ZM326.212 135L300.002 161.21V165.452L330.454 135H326.212ZM334.698 135L300.004 169.694V173.936L338.942 134.998H334.698V135ZM343.184 135L300.004 178.18V182.422L347.426 135H343.182H343.184ZM351.67 135L300.004 186.666V190.908L355.912 135H351.67ZM360.156 135L300.006 195.15V199.392L364.4 135H360.158H360.156ZM368.642 135L300.006 203.636V207.88L372.886 135H368.644H368.642ZM375.006 137.12L302.126 210H306.37L375.006 141.364V137.122V137.12ZM375.006 145.606L310.612 210H314.856L375.006 149.85V145.608V145.606ZM375.006 154.092L319.098 210H323.34L375.006 158.334V154.092ZM375.006 162.578L327.584 210H331.826L375.006 166.82V162.578ZM375.006 171.064L336.068 210.002H340.31L375.006 175.306V171.064ZM375.006 179.548L344.554 210H348.796L375.006 183.79V179.546V179.548ZM375.006 188.034L353.038 210.002H357.28L375.004 192.278V188.036L375.006 188.034ZM375.006 196.52L361.524 210.002H365.766L375.006 200.764V196.52ZM375.006 205.006L370.01 210.002H374.252L375.006 209.248V205.006Z" fill="#F06718"/>
<path fill-rule="evenodd" clip-rule="evenodd" d="M225 322.5C225 343.212 208.212 360 187.5 360C166.788 360 150 343.212 150 322.5C150 312.554 153.95 303.016 160.984 295.984C168.016 288.952 177.554 285 187.5 285C197.446 285 206.984 288.95 214.016 295.984C221.048 303.016 225 312.554 225 322.5Z" fill="#F06718"/>
<path d="M75 135H0V138H75V135ZM75 141H0V144H75V141ZM75 147H0V150H75V147ZM75 153H0V156H75V153ZM75 159H0V162H75V159ZM75 165H0V168H75V165ZM75 171H0V174H75V171ZM75 177H0V180H75V177ZM75 183H0V186H75V183ZM75 189H0V192H75V189ZM75 195H0V198H75V195ZM75 201H0V204H75V201ZM75 207H0V210H75V207Z" fill="#F8C696"/>
<path d="M299.246 135L300 135.754V139.996L295.004 135H299.246ZM290.76 135L300 144.238V148.48L286.518 134.998H290.76V135ZM282.274 135L299.998 152.724V156.966L278.032 135H282.274ZM273.788 135L299.998 161.21V165.452L269.546 135H273.788ZM265.302 135L299.996 169.694V173.936L261.058 134.998H265.3L265.302 135ZM256.816 135L299.996 178.18V182.422L252.574 135H256.818H256.816ZM248.33 135L299.996 186.666V190.908L244.088 135H248.33ZM239.844 135L299.994 195.15V199.392L235.602 135H239.844ZM231.358 135L299.994 203.636V207.88L227.114 135H231.358ZM224.994 137.12L297.874 210H293.632L224.996 141.364V137.122L224.994 137.12ZM224.994 145.606L289.388 210H285.144L224.994 149.85V145.608V145.606ZM224.994 154.092L280.902 210H276.66L224.994 158.334V154.092ZM224.994 162.578L272.416 210H268.174L224.994 166.82V162.578ZM224.994 171.064L263.932 210.002H259.69L224.994 175.306V171.064ZM224.994 179.548L255.446 210H251.204L224.994 183.79V179.546V179.548ZM224.994 188.034L246.962 210.002H242.72L224.996 192.278V188.036L224.994 188.034ZM224.994 196.52L238.476 210.002H234.234L224.994 200.764V196.52ZM224.994 205.006L229.99 210.002H225.748L224.994 209.248V205.006Z" fill="#F0942D"/>
<path d="M150 210H75V285H150V210Z" fill="#404852"/>
<path d="M112.5 210C112.5 219.946 116.45 229.484 123.484 236.516C130.518 243.548 140.054 247.5 150 247.5V210H112.5Z" fill="#F8C696"/>
<path d="M150 60H75V135H150V60Z" fill="#404852"/>
<path fill-rule="evenodd" clip-rule="evenodd" d="M150 78.75C150 89.106 141.606 97.5 131.25 97.5C126.278 97.5 121.508 95.524 117.992 92.008C114.476 88.492 112.5 83.722 112.5 78.75C112.5 73.778 114.476 69.008 117.992 65.492C121.508 61.976 126.278 60 131.25 60C141.606 60 150 68.394 150 78.75Z" fill="#F06718"/>
<path d="M300 60H225V135H300V60Z" fill="white"/>
<path fill-rule="evenodd" clip-rule="evenodd" d="M300 78.75C300 83.722 298.024 88.492 294.508 92.008C290.992 95.524 286.222 97.5 281.25 97.5C276.278 97.5 271.508 95.524 267.992 92.008C264.476 88.492 262.5 83.722 262.5 78.75C262.5 73.778 264.476 69.008 267.992 65.492C271.508 61.976 276.278 60 281.25 60C286.222 60 290.992 61.976 294.508 65.492C298.024 69.008 300 73.778 300 78.75Z" fill="#CFD5DD"/>
<path d="M225 60H150V135H225V60Z" fill="#F0B28D"/>
<path d="M150.754 60L150 60.754V64.996L154.996 60H150.754ZM159.24 60L150 69.238V73.48L163.482 59.998H159.24V60ZM167.726 60L150.002 77.724V81.966L171.97 60H167.728H167.726ZM176.212 60L150.002 86.21V90.454L180.454 60.002H176.21L176.212 60ZM184.698 60L150.004 94.694V98.938L188.942 60H184.7H184.698ZM193.184 60L150.004 103.18V107.422L197.426 60H193.184ZM201.67 60L150.004 111.666V115.908L205.912 60H201.67ZM210.156 60L150.006 120.15V124.392L214.4 60H210.156ZM218.642 60L150.006 128.636V132.88L222.886 60H218.644H218.642ZM225.006 62.12L152.126 135H156.37L225.006 66.364V62.122V62.12ZM225.006 70.606L160.612 135H164.854L225.004 74.85V70.608L225.006 70.606ZM225.006 79.092L169.098 135H173.34L225.006 83.334V79.092ZM225.006 87.578L177.584 135H181.828L225.008 91.82V87.578H225.006ZM225.006 96.064L186.068 135.002H190.31L225.006 100.306V96.064ZM225.006 104.548L194.554 135H198.796L225.006 108.79V104.548ZM225.006 113.034L203.038 135.002H207.28L225.004 117.278V113.034H225.006ZM225.006 121.52L211.524 135.002H215.766L225.004 125.762V121.52H225.006ZM225.006 130.006L220.01 135.002H224.252L225.006 134.248V130.006Z" fill="white"/>
<path d="M225 135H150V210H225V135Z" fill="#404852"/>
<path d="M300 210H225V285H300V210Z" fill="#404852"/>
<path d="M375 22.5H300V60H375V22.5Z" fill="#404852"/>
<path fill-rule="evenodd" clip-rule="evenodd" d="M255 7.5C255 11.642 251.642 15 247.5 15C243.358 15 240 11.642 240 7.5C240 5.51 240.79 3.604 242.196 2.196C243.602 0.79 245.51 0 247.5 0C251.642 0 255 3.358 255 7.5Z" fill="white"/>
<path fill-rule="evenodd" clip-rule="evenodd" d="M285 7.5C285 11.642 281.642 15 277.5 15C273.358 15 270 11.642 270 7.5C270 3.358 273.358 0 277.5 0C279.49 0 281.396 0.79 282.804 2.196C284.212 3.602 285 5.51 285 7.5Z" fill="white"/>
<path fill-rule="evenodd" clip-rule="evenodd" d="M255 37.5C255 41.642 251.642 45 247.5 45C245.51 45 243.604 44.21 242.196 42.804C240.79 41.398 240 39.49 240 37.5C240 35.51 240.79 33.604 242.196 32.196C243.602 30.79 245.51 30 247.5 30C251.642 30 255 33.358 255 37.5Z" fill="white"/>
<path fill-rule="evenodd" clip-rule="evenodd" d="M285 37.5C285 39.488 284.21 41.396 282.804 42.804C281.398 44.212 279.49 45 277.5 45C273.358 45 270 41.642 270 37.5C270 33.358 273.358 30 277.5 30C279.49 30 281.396 30.79 282.804 32.196C284.212 33.602 285 35.51 285 37.5Z" fill="white"/>
<path d="M187.5 135C187.5 155.71 170.71 172.5 150 172.5V135H187.5Z" fill="#F06718"/>
<path d="M225 97.5C215.054 97.5 205.516 101.45 198.484 108.484C191.452 115.516 187.5 125.054 187.5 135H225V97.5Z" fill="#404852"/>
<path d="M112.5 210C112.5 189.288 129.29 172.5 150 172.5V210H112.5Z" fill="#404852"/>
<path fill-rule="evenodd" clip-rule="evenodd" d="M112.5 78.75C112.5 83.722 110.524 88.492 107.008 92.008C103.492 95.524 98.722 97.5 93.75 97.5C88.778 97.5 84.008 95.524 80.492 92.008C76.976 88.492 75 83.722 75 78.75C75 73.778 76.976 69.008 80.492 65.492C84.008 61.976 88.778 60 93.75 60C98.722 60 103.492 61.976 107.008 65.492C110.524 69.008 112.5 73.778 112.5 78.75Z" fill="#F0942D"/>
<path fill-rule="evenodd" clip-rule="evenodd" d="M112.5 116.25C112.5 121.222 110.524 125.992 107.008 129.508C103.492 133.024 98.722 135 93.75 135C88.778 135 84.008 133.024 80.492 129.508C76.976 125.992 75 121.222 75 116.25C75 111.278 76.976 106.508 80.492 102.992C84.008 99.476 88.778 97.5 93.75 97.5C98.722 97.5 103.492 99.476 107.008 102.992C110.524 106.508 112.5 111.278 112.5 116.25Z" fill="#E7EAED"/>
<path fill-rule="evenodd" clip-rule="evenodd" d="M150 116.25C150 126.606 141.606 135 131.25 135C126.278 135 121.508 133.024 117.992 129.508C114.476 125.992 112.5 121.222 112.5 116.25C112.5 111.278 114.476 106.508 117.992 102.992C121.508 99.476 126.278 97.5 131.25 97.5C141.606 97.5 150 105.894 150 116.25Z" fill="#F8C696"/>
<path d="M112.5 210C112.5 219.946 108.55 229.484 101.516 236.516C94.484 243.548 84.946 247.5 75 247.5V210H112.5Z" fill="#F18635"/>
<path d="M112.5 285C112.5 264.288 129.29 247.5 150 247.5V285H112.5Z" fill="#E7EAED"/>
<path d="M112.5 285C112.5 275.054 108.55 265.516 101.516 258.484C94.484 251.452 84.946 247.5 75 247.5V285H112.5Z" fill="#898F94"/>
<path d="M225 210H150V247.5H225V210Z" fill="#F8C696"/>
<path d="M300 97.5H225V135H300V97.5Z" fill="#898F94"/>
<path fill-rule="evenodd" clip-rule="evenodd" d="M262.5 78.75C262.5 89.106 254.106 97.5 243.75 97.5C238.778 97.5 234.008 95.524 230.492 92.008C226.976 88.492 225 83.722 225 78.75C225 73.778 226.976 69.008 230.492 65.492C234.008 61.976 238.778 60 243.75 60C254.106 60 262.5 68.394 262.5 78.75Z" fill="#F06718"/>
<path d="M150 360C130.108 360 111.032 352.098 96.968 338.032C82.902 323.968 75 304.89 75 285H150V360Z" fill="#E7EAED"/>
<path d="M300 210H225L300 135V210Z" fill="#F0942D"/>
<path d="M75 97.5H37.5V135H75V97.5Z" fill="#898F94"/>
<path d="M225 247.5H187.5V285H225V247.5Z" fill="#F8C696"/>
<path d="M300 210V285H303V210H300ZM306 210V285H309V210H306ZM312 210V285H315V210H312ZM318 210V285H321V210H318ZM324 210V285H327V210H324ZM330 210V285H333V210H330ZM336 210V285H339V210H336ZM342 210V285H345V210H342ZM348 210V285H351V210H348ZM354 210V285H357V210H354ZM360 210V285H363V210H360ZM366 210V285H369V210H366ZM372 210V285H375V210H372Z" fill="#404852"/>
<path d="M149.246 210L150 210.754V214.996L145.004 210H149.246ZM140.762 210L150 219.238V223.482L136.518 210H140.762ZM132.276 210L150 227.724V231.966L128.034 210H132.276ZM123.79 210L150 236.21V240.454L119.548 210.002H123.79V210ZM115.304 210L149.998 244.694V248.936L111.06 209.998H115.302L115.304 210ZM106.818 210L149.998 253.18V257.422L102.576 210H106.82H106.818ZM98.332 210L149.998 261.666V265.908L94.09 210H98.332ZM89.846 210L149.996 270.15V274.392L85.602 210H89.844H89.846ZM81.36 210L149.996 278.636V282.88L77.118 210H81.36ZM74.996 212.12L147.876 285H143.632L74.996 216.364V212.12ZM74.996 220.606L139.39 285H135.146L74.996 224.85V220.608V220.606ZM74.996 229.092L130.904 285H126.662L74.996 233.334V229.092ZM74.996 237.578L122.418 285H118.176L74.996 241.82V237.578ZM74.996 246.064L113.934 285.002H109.692L74.996 250.306V246.064ZM74.996 254.55L105.448 285.002H101.204L74.994 258.792V254.548L74.996 254.55ZM74.996 263.036L96.964 285.004H92.722L74.998 267.28V263.036H74.996ZM74.996 271.522L88.478 285.004H84.236L74.996 275.766V271.522ZM74.996 280.008L79.992 285.004H75.75L74.996 284.25V280.008Z" fill="white"/>
<path fill-rule="evenodd" clip-rule="evenodd" d="M300 285C279.29 285 262.5 301.788 262.5 322.5C262.5 343.212 279.29 360 300 360V285Z" fill="#F8C696"/>
<path d="M75 135H0L75 210V135Z" fill="#F8C696"/>
<path d="M375 60C355.108 60 336.032 67.902 321.968 81.968C307.902 96.032 300 115.11 300 135H375V60Z" fill="#F8C696"/>
<path d="M75 97.5H37.5L75 60V97.5Z" fill="#E7EAED"/>
<path d="M262.5 285H225V360H262.5V285Z" fill="#E7EAED"/>
<path d="M375 285H337.5V360H375V285Z" fill="white"/>
</g>
<defs>
<clipPath id="clip0_3_68">
<rect width="338" height="360" fill="white"/>
</clipPath>
</defs>
</svg>
