<svg width="83" height="93" viewBox="0 0 83 93" fill="none" xmlns="http://www.w3.org/2000/svg">
<path d="M31.3633 29.7841C29.5699 30.8739 27.8378 31.9936 26.1722 33.136C26.6393 29.6054 27.2841 26.268 28.0769 23.1999C31.0598 24.0275 34.1706 25.104 37.3352 26.4055C35.3378 27.4536 33.3418 28.5816 31.3633 29.7841ZM33.1004 32.6399C35.8196 30.9873 38.566 29.4819 41.2948 28.1391C44.0607 29.4232 46.8439 30.8684 49.5965 32.4593C52.2977 34.0208 54.8728 35.6684 57.2953 37.3692C57.5552 40.3202 57.6929 43.377 57.6929 46.5C57.6929 49.5457 57.562 52.5284 57.3143 55.4115C54.9816 57.1191 52.5033 58.7786 49.9032 60.3586C47.1829 62.0116 44.4356 63.5171 41.7059 64.8601C38.9394 63.5758 36.1557 62.1304 33.4028 60.5393C30.7027 58.9785 28.1286 57.3315 25.707 55.6315C25.4469 52.6803 25.3092 49.6233 25.3092 46.5C25.3092 43.4538 25.4402 40.4707 25.6879 37.5873C28.021 35.8796 30.4998 34.2201 33.1003 32.6399L32.9705 32.4263L33.1004 32.6399ZM52.8312 16.5908C53.1989 17.5449 53.5499 18.543 53.8826 19.5813C49.8244 20.7757 45.5606 22.4184 41.254 24.4522C37.0749 22.5926 32.9356 21.0891 28.9899 19.9927C29.3609 18.8061 29.7555 17.6703 30.1716 16.5908C31.6636 12.7203 33.427 9.58598 35.3591 7.42376C37.2921 5.26061 39.3714 4.09375 41.5018 4.09375C43.6321 4.09375 45.7113 5.2606 47.6442 7.42376C49.5761 9.58597 51.3393 12.7203 52.8312 16.5908ZM24.8032 22.3804C23.7471 26.4516 22.9559 30.9609 22.4808 35.7855C18.7565 38.5837 15.4327 41.4808 12.5791 44.3811C11.6377 43.3696 10.7639 42.3636 9.96248 41.3692C7.36034 38.1404 5.53071 35.0443 4.62644 32.2877C3.72179 29.53 3.75214 27.1432 4.81783 25.2953C5.77348 23.6399 7.45299 22.6217 9.39473 22.0176C11.3357 21.4139 13.5113 21.233 15.4132 21.233C18.2476 21.233 21.4178 21.6284 24.8032 22.3804ZM51.2686 29.5652C49.2643 28.4065 47.2405 27.3215 45.2147 26.3161C48.4998 24.8775 51.727 23.6898 54.8159 22.7804C55.6475 25.9194 56.3229 29.3485 56.8098 32.9844C55.0344 31.8154 53.1853 30.673 51.2686 29.5652ZM51.6402 63.2173C53.433 62.1276 55.1645 61.0081 56.8296 59.8659C56.3626 63.3957 55.718 66.7323 54.9254 69.7998C51.9432 68.9723 48.833 67.8961 45.6691 66.5951C47.6662 65.5472 49.662 64.4194 51.6402 63.2174L51.6402 63.2173ZM31.7321 63.4349C33.7365 64.5931 35.7603 65.6777 37.786 66.6829C34.5014 68.1212 31.2748 69.3086 28.1866 70.2179C27.3551 67.0796 26.6797 63.6515 26.1927 60.0167C27.9676 61.1853 29.8161 62.3274 31.7321 63.4348L31.7321 63.4349ZM27.5734 14.0846C26.9033 15.6655 26.2836 17.3641 25.7197 19.1675C22.0157 18.3308 18.5337 17.8893 15.4132 17.8893C8.80887 17.8893 4.1065 19.8396 1.92205 23.625L1.922 23.6251C0.529129 26.0409 0.335891 28.9536 1.15571 32.1407C1.97499 35.3257 3.80893 38.8 6.49456 42.3666C7.60854 43.846 8.87037 45.3431 10.2694 46.8438C8.90382 48.3748 7.67531 49.8991 6.5942 51.4026C3.98759 55.0275 2.23043 58.5413 1.48123 61.7436C0.731548 64.948 0.988552 67.8556 2.43382 70.2398L2.64761 70.1102L2.43383 70.2398C4.61255 73.8334 9.1096 75.6866 15.3336 75.6866C18.515 75.6866 22.0742 75.2047 25.8655 74.2921C26.3899 75.9249 26.9606 77.4691 27.5734 78.9148C29.3164 83.0266 31.4053 86.3539 33.7513 88.6568C36.0988 90.9611 38.7154 92.25 41.5018 92.25C44.2881 92.25 46.9046 90.9611 49.2519 88.6567C51.5976 86.3539 53.6862 83.0266 55.4289 78.9148C56.0989 77.3339 56.7185 75.6353 57.2823 73.8319C60.9869 74.6689 64.4694 75.1107 67.5903 75.1107C74.1918 75.1107 78.8956 73.159 81.0772 69.3749C82.4705 66.9595 82.6641 64.047 81.8446 60.8599C81.0256 57.6749 79.1919 54.2006 76.5065 50.6339C75.3928 49.1547 74.1312 47.6578 72.7324 46.1573C74.0981 44.6261 75.3267 43.1017 76.4079 41.5981C79.0145 37.9732 80.7717 34.4594 81.5207 31.257C82.2702 28.0525 82.0128 25.1447 80.5668 22.7601L80.3531 22.8898L80.5668 22.7601C78.3881 19.168 73.894 17.3148 67.67 17.3148C64.4885 17.3148 60.9291 17.7966 57.1377 18.7091C56.6132 17.0757 56.0424 15.5309 55.4294 14.0846C53.6866 9.97294 51.5979 6.6458 49.252 4.34304C46.9047 2.03876 44.2881 0.75 41.5018 0.75C38.7154 0.75 36.0988 2.03876 33.7513 4.34304C31.4053 6.6458 29.3164 9.97293 27.5734 14.0846ZM61.0367 46.5C61.0367 44.2842 60.9729 42.1095 60.8493 39.9856C63.4937 42.0273 65.9111 44.119 68.0594 46.2077C65.9252 48.3761 63.5136 50.5536 60.8677 52.684C60.9791 50.6651 61.0365 48.6011 61.0367 46.5ZM22.1529 53.0153C19.5078 50.9731 17.0896 48.8809 14.9408 46.7917C17.0754 44.6231 19.4875 42.4453 22.1342 40.3146C22.0228 42.334 21.9655 44.3984 21.9655 46.5C21.9655 48.7161 22.0293 50.891 22.1529 53.0153ZM10.0839 52.3214C10.8628 51.3102 11.7138 50.2858 12.6321 49.2545C15.4939 52.0379 18.8081 54.8083 22.5071 57.4768C23.0034 62.3872 23.8279 66.9673 24.9261 71.0865C21.4599 71.9088 18.2201 72.3414 15.3336 72.3414C13.5549 72.3414 11.5154 72.1709 9.68134 71.601C7.84687 71.031 6.24286 70.0695 5.29422 68.5047L5.08044 68.6343L5.2942 68.5047C4.18806 66.681 4.1051 64.2955 4.94882 61.5185C5.79218 58.7427 7.55326 55.6069 10.0839 52.3214ZM67.5889 71.767C64.7548 71.767 61.5845 71.3715 58.1987 70.6193C59.2544 66.5486 60.0455 62.04 60.5207 57.2163C64.245 54.4178 67.5689 51.5205 70.4226 48.6201C71.3631 49.6307 72.2361 50.6358 73.0368 51.6293C75.6389 54.8582 77.4686 57.9543 78.3728 60.7108C79.2775 63.4686 79.2471 65.8553 78.1814 67.7032C77.2258 69.3588 75.5469 70.3773 73.6059 70.9817C71.6656 71.5858 69.4908 71.767 67.5889 71.767ZM72.9171 40.6765C72.138 41.6881 71.2867 42.713 70.368 43.7448C67.5069 40.9619 64.1934 38.1921 60.4953 35.5241C59.999 30.6127 59.1744 26.0318 58.0762 21.912C61.5425 21.0897 64.7827 20.6572 67.67 20.6572C69.4486 20.6572 71.4878 20.828 73.3213 21.3979C75.1553 21.968 76.7586 22.9291 77.7065 24.4925L77.9202 24.3628L77.7065 24.4925C78.8126 26.3162 78.8956 28.7018 78.0519 31.4789C77.2086 34.2549 75.4476 37.3908 72.9171 40.6765ZM29.1209 73.4197C33.1794 72.2251 37.4436 70.5821 41.7505 68.5481C45.9291 70.4071 50.0676 71.9103 54.0126 73.0066C53.6415 74.1935 53.2468 75.3295 52.8307 76.4092C51.3387 80.2797 49.5755 83.414 47.6436 85.5762C45.7108 87.7394 43.6318 88.9062 41.5018 88.9062C39.3718 88.9062 37.2927 87.7394 35.3598 85.5762C33.4277 83.414 31.6643 80.2797 30.1722 76.4091C29.8045 75.4554 29.4536 74.4577 29.1209 73.4197ZM33.767 46.5C33.767 50.7699 37.2372 54.2419 41.5017 54.2419C45.7663 54.2419 49.2365 50.7699 49.2365 46.5C49.2365 42.2302 45.7677 38.7581 41.5017 38.7581C37.2358 38.7581 33.767 42.2302 33.767 46.5ZM37.1107 46.5C37.1107 44.074 39.0794 42.1019 41.5017 42.1019C43.9213 42.1019 45.8927 44.0741 45.8927 46.5C45.8927 48.9245 43.9213 50.8981 41.5017 50.8981C39.0795 50.8981 37.1107 48.9246 37.1107 46.5Z" fill="#F06718" stroke="#F06718" stroke-width="0.5"/>
</svg>
