<svg width="326" height="282" viewBox="0 0 326 282" fill="none" xmlns="http://www.w3.org/2000/svg">
<g clip-path="url(#clip0_36_46)">
<g clip-path="url(#clip1_36_46)">
<path d="M225.5 1.13101L224.369 -4.95691e-08L218.006 -3.27704e-07L225.5 7.49399L225.5 1.13101ZM225.5 13.86L211.643 -6.0584e-07L205.28 -8.83976e-07L225.503 20.223L225.503 13.86L225.5 13.86ZM225.5 26.589L198.914 0.00300177L192.551 0.00300149L225.5 32.952L225.5 26.589ZM225.5 39.318L186.185 0.00300121L179.822 0.00300093L225.5 45.681L225.5 39.318ZM225.5 52.047L173.459 0.00600358L167.096 0.00600331L225.503 58.413L225.503 52.047L225.5 52.047ZM225.5 64.776L160.73 0.00600303L154.367 0.00600275L225.5 71.139L225.5 64.773L225.5 64.776ZM225.5 77.505L148.001 0.00600247L141.638 0.00600219L225.5 83.868L225.5 77.505ZM225.5 90.234L135.275 0.00900484L128.912 0.00900457L225.5 96.6L225.5 90.237L225.5 90.234ZM225.5 102.963L122.546 0.00900429L116.18 0.00900401L225.5 109.329L225.5 102.966L225.5 102.963ZM222.32 112.509L113 3.189L113 9.55499L215.954 112.509L222.317 112.509L222.32 112.509ZM209.591 112.509L113 15.918L113 22.284L203.225 112.509L209.588 112.509L209.591 112.509ZM196.862 112.509L113 28.647L113 35.01L190.499 112.509L196.862 112.509ZM184.133 112.509L113 41.376L113 47.739L177.77 112.509L184.133 112.509ZM171.404 112.509L112.997 54.102L112.997 60.465L165.041 112.509L171.404 112.509ZM158.678 112.509L113 66.831L113 73.194L152.315 112.509L158.681 112.509L158.678 112.509ZM145.949 112.509L112.997 79.557L112.997 85.92L139.583 112.506L145.946 112.506L145.949 112.509ZM133.22 112.509L112.997 92.286L112.997 98.649L126.854 112.509L133.22 112.509ZM120.491 112.509L112.997 105.015L112.997 111.378L114.128 112.509L120.491 112.509Z" fill="#F06718"/>
<path d="M113.5 0L0.999992 -4.91753e-06L0.999992 4.5L113.5 4.5L113.5 0ZM113.5 9L0.999992 9L0.999992 13.5L113.5 13.5L113.5 9ZM113.5 18L0.999992 18L0.999991 22.5L113.5 22.5L113.5 18ZM113.5 27L0.999991 27L0.999991 31.5L113.5 31.5L113.5 27ZM113.5 36L0.999991 36L0.999991 40.5L113.5 40.5L113.5 36ZM113.5 45L0.99999 45L0.99999 49.5L113.5 49.5L113.5 45ZM113.5 54L0.99999 54L0.99999 58.5L113.5 58.5L113.5 54ZM113.5 63L0.99999 63L0.999989 67.5L113.5 67.5L113.5 63ZM113.5 72L0.999989 72L0.999989 76.5L113.5 76.5L113.5 72ZM113.5 81L0.999989 81L0.999989 85.5L113.5 85.5L113.5 81ZM113.5 90L0.999988 90L0.999988 94.5L113.5 94.5L113.5 90ZM113.5 99L0.999988 99L0.999988 103.5L113.5 103.5L113.5 99ZM113.5 108L0.999988 108L0.999987 112.5L113.5 112.5L113.5 108Z" fill="#404852"/>
<path d="M338 112.5C338 82.662 326.147 54.048 305.048 32.952C283.952 11.853 255.335 -3.6134e-06 225.5 -4.91753e-06L225.5 112.5L338 112.5Z" fill="#F8C696"/>
</g>
<g clip-path="url(#clip2_36_46)">
<path d="M59.25 55.69L59.8155 56.2573L62.997 56.2573L59.25 52.498L59.25 55.69ZM59.25 49.3045L66.1785 56.2573L69.36 56.2573L59.2485 46.1124L59.2485 49.3045L59.25 49.3045ZM59.25 42.919L72.543 56.2558L75.7245 56.2558L59.25 39.727L59.25 42.919ZM59.25 36.5334L78.9075 56.2558L82.089 56.2558L59.25 33.3414L59.25 36.5334ZM59.25 30.1479L85.2705 56.2543L88.452 56.2543L59.2485 26.9544L59.2485 30.1479L59.25 30.1479ZM59.25 23.7624L91.635 56.2543L94.8165 56.2543L59.25 20.5704L59.25 23.7639L59.25 23.7624ZM59.25 17.3769L97.9995 56.2543L101.181 56.2543L59.25 14.1849L59.25 17.3769ZM59.25 10.9914L104.363 56.2528L107.544 56.2528L59.25 7.79793L59.25 10.9899L59.25 10.9914ZM59.25 4.60593L110.727 56.2528L113.91 56.2528L59.25 1.41241L59.25 4.60443L59.25 4.60593ZM60.84 -0.182827L115.5 54.6576L115.5 51.4641L64.023 -0.182827L60.8415 -0.182827L60.84 -0.182827ZM67.2045 -0.182827L115.5 48.272L115.5 45.0785L70.3875 -0.182827L67.206 -0.182827L67.2045 -0.182827ZM73.569 -0.182828L115.5 41.8866L115.5 38.6946L76.7505 -0.182828L73.569 -0.182828ZM79.9335 -0.182828L115.5 35.501L115.5 32.309L83.115 -0.182828L79.9335 -0.182828ZM86.298 -0.182828L115.502 29.1171L115.502 25.925L89.4795 -0.182828L86.298 -0.182828ZM92.661 -0.182828L115.5 22.7315L115.5 19.5395L95.8425 -0.182829L92.6595 -0.182828L92.661 -0.182828ZM99.0255 -0.182829L115.502 16.3476L115.502 13.1555L102.209 -0.181322L99.027 -0.181322L99.0255 -0.182829ZM105.39 -0.182829L115.502 9.96205L115.502 6.77005L108.573 -0.182829L105.39 -0.182829ZM111.755 -0.182829L115.502 3.57653L115.502 0.384538L114.936 -0.182829L111.755 -0.182829Z" fill="#F06718"/>
<path fill-rule="evenodd" clip-rule="evenodd" d="M199.875 112.693C215.409 112.693 228 125.326 228 140.911C228 156.496 215.409 169.129 199.875 169.129C192.416 169.129 185.262 166.156 179.988 160.863C174.714 155.572 171.75 148.395 171.75 140.911C171.75 133.427 174.713 126.25 179.988 120.958C185.262 115.667 192.415 112.693 199.875 112.693Z" fill="#F06718"/>
<path d="M59.25 225.564L59.25 282L61.5 282L61.5 225.564L59.25 225.564ZM63.75 225.564L63.75 282L66 282L66 225.564L63.75 225.564ZM68.25 225.564L68.25 282L70.5 282L70.5 225.564L68.25 225.564ZM72.75 225.564L72.75 282L75 282L75 225.564L72.75 225.564ZM77.25 225.564L77.25 282L79.5 282L79.5 225.564L77.25 225.564ZM81.75 225.564L81.75 282L84 282L84 225.564L81.75 225.564ZM86.25 225.564L86.25 282L88.5 282L88.5 225.564L86.25 225.564ZM90.75 225.564L90.75 282L93 282L93 225.564L90.75 225.564ZM95.25 225.564L95.25 282L97.5 282L97.5 225.564L95.25 225.564ZM99.75 225.564L99.75 282L102 282L102 225.564L99.75 225.564ZM104.25 225.564L104.25 282L106.5 282L106.5 225.564L104.25 225.564ZM108.75 225.564L108.75 282L111 282L111 225.564L108.75 225.564ZM113.25 225.564L113.25 282L115.5 282L115.5 225.564L113.25 225.564Z" fill="#F8C696"/>
<path d="M59.25 56.8247L59.8155 56.2574L62.997 56.2574L59.25 60.0167L59.25 56.8247ZM59.25 63.2102L66.1785 56.2574L69.36 56.2574L59.2485 66.4022L59.2485 63.2102L59.25 63.2102ZM59.25 69.5957L72.543 56.2589L75.7245 56.2589L59.25 72.7877L59.25 69.5957ZM59.25 75.9812L78.9075 56.2589L82.089 56.2589L59.25 79.1732L59.25 75.9812ZM59.25 82.3667L85.2705 56.2604L88.452 56.2604L59.2485 85.5602L59.2485 82.3682L59.25 82.3667ZM59.25 88.7522L91.635 56.2604L94.8165 56.2604L59.25 91.9442L59.25 88.7507L59.25 88.7522ZM59.25 95.1377L97.9995 56.2604L101.181 56.2604L59.25 98.3298L59.25 95.1377ZM59.25 101.523L104.363 56.2619L107.544 56.2619L59.25 104.715L59.25 101.523ZM59.25 107.909L110.727 56.2619L113.91 56.2619L59.25 111.102L59.25 107.909ZM60.84 112.698L115.5 57.8571L115.5 61.0491L64.023 112.696L60.8415 112.696L60.84 112.698ZM67.2045 112.698L115.5 64.2426L115.5 67.4361L70.3875 112.698L67.206 112.698L67.2045 112.698ZM73.569 112.698L115.5 70.6281L115.5 73.8201L76.7505 112.698L73.569 112.698ZM79.9335 112.698L115.5 77.0136L115.5 80.2056L83.115 112.698L79.9335 112.698ZM86.298 112.698L115.502 83.3976L115.502 86.5896L89.4795 112.698L86.298 112.698ZM92.661 112.698L115.5 89.7831L115.5 92.9751L95.8425 112.698L92.6595 112.698L92.661 112.698ZM99.0255 112.698L115.502 96.1671L115.502 99.3591L102.209 112.696L99.027 112.696L99.0255 112.698ZM105.39 112.698L115.502 102.553L115.502 105.745L108.573 112.698L105.39 112.698ZM111.755 112.698L115.502 108.938L115.502 112.13L114.936 112.698L111.755 112.698Z" fill="#F0942D"/>
<path d="M228 0.389179L228.566 -0.178188L231.747 -0.178188L228 3.58117L228 0.389179ZM228 6.77467L234.929 -0.178189L238.112 -0.178189L228 9.96669L228 6.77467ZM228 13.1602L241.293 -0.176682L244.475 -0.176682L228 16.3522L228 13.1602ZM228 19.5457L247.658 -0.176682L250.839 -0.176683L228 22.7377L228 19.5457ZM228 25.9312L254.021 -0.17518L257.202 -0.17518L227.999 29.1247L227.999 25.9327L228 25.9312ZM228 32.3167L260.385 -0.17518L263.568 -0.17518L228.002 35.5087L228.002 32.3167L228 32.3167ZM228 38.7022L266.75 -0.17518L269.931 -0.17518L228 41.8942L228 38.7022ZM228 45.0877L273.113 -0.173674L276.294 -0.173674L227.999 48.2797L227.999 45.0877L228 45.0877ZM228 51.4732L279.477 -0.173674L282.66 -0.173674L228 54.6667L228 51.4732ZM229.59 56.262L284.25 1.42157L284.25 4.61356L232.773 56.2605L229.59 56.2605L229.59 56.262ZM235.955 56.262L284.25 7.80708L284.25 11.0006L239.138 56.262L235.956 56.262L235.955 56.262ZM242.319 56.262L284.25 14.1926L284.25 17.3846L245.501 56.262L242.319 56.262ZM248.684 56.262L284.25 20.5781L284.25 23.7701L251.865 56.262L248.684 56.262ZM255.048 56.262L284.252 26.9621L284.252 30.1541L258.23 56.262L255.048 56.262ZM261.413 56.262L284.252 33.3476L284.252 36.5396L264.594 56.262L261.413 56.262ZM267.777 56.262L284.253 39.7316L284.253 42.9236L270.96 56.2605L267.779 56.2605L267.777 56.262ZM274.142 56.262L284.253 46.1171L284.253 49.3091L277.323 56.262L274.142 56.262ZM280.506 56.262L284.253 52.5026L284.253 55.6946L283.688 56.262L280.506 56.262Z" fill="#898F94"/>
<path d="M115.5 169.129L115.5 225.564L171.75 225.564L171.75 169.129L115.5 169.129Z" fill="#404852"/>
<path d="M115.5 197.346C122.96 197.346 130.113 194.374 135.387 189.081C140.661 183.788 143.625 176.613 143.625 169.129L115.5 169.129L115.5 197.346Z" fill="#F8C696"/>
<path d="M3 169.129L3 225.564L59.25 225.564L59.25 169.129L3 169.129Z" fill="#404852"/>
<path fill-rule="evenodd" clip-rule="evenodd" d="M17.0625 169.129C24.8295 169.129 31.125 175.445 31.125 183.238C31.125 186.979 29.643 190.568 27.006 193.214C24.369 195.86 20.7915 197.346 17.0625 197.346C13.3335 197.346 9.756 195.86 7.119 193.214C4.482 190.568 3 186.979 3 183.238C3 175.445 9.2955 169.129 17.0625 169.129Z" fill="#F06718"/>
<path d="M3 56.2575L3 112.693L59.25 112.693L59.25 56.2575L3 56.2575Z" fill="white"/>
<path fill-rule="evenodd" clip-rule="evenodd" d="M17.0625 56.2575C20.7915 56.2575 24.369 57.7444 27.006 60.3901C29.643 63.0358 31.125 66.6251 31.125 70.3664C31.125 74.1077 29.643 77.697 27.006 80.3428C24.369 82.9885 20.7915 84.4753 17.0625 84.4753C13.3335 84.4753 9.756 82.9885 7.119 80.3428C4.482 77.6971 3 74.1077 3 70.3664C3 66.6251 4.482 63.0358 7.119 60.3901C9.756 57.7444 13.3335 56.2575 17.0625 56.2575Z" fill="#CFD5DD"/>
<path d="M3 112.693L3 169.129L59.25 169.129L59.25 112.693L3 112.693Z" fill="#F0B28D"/>
<path d="M3.00004 168.561L3.56554 169.129L6.74704 169.129L3.00004 165.369L3.00004 168.561ZM3.00004 162.176L9.92854 169.129L13.11 169.129L2.99853 158.984L2.99853 162.176L3.00004 162.176ZM3.00004 155.79L16.293 169.127L19.4745 169.127L3.00004 152.597L3.00004 155.789L3.00004 155.79ZM3.00004 149.405L22.6575 169.127L25.8405 169.127L3.00154 146.213L3.00154 149.406L3.00004 149.405ZM3.00004 143.019L29.0205 169.126L32.2035 169.126L3.00004 139.826L3.00004 143.018L3.00004 143.019ZM3.00004 136.634L35.385 169.126L38.5665 169.126L3.00004 133.442L3.00004 136.634ZM3.00003 130.248L41.7495 169.126L44.931 169.126L3.00003 127.056L3.00003 130.248ZM3.00003 123.863L48.1125 169.124L51.294 169.124L3.00003 120.669L3.00003 123.863ZM3.00003 117.477L54.477 169.124L57.66 169.124L3.00003 114.284L3.00003 117.476L3.00003 117.477ZM4.59004 112.689L59.25 167.529L59.25 164.335L7.77304 112.689L4.59153 112.689L4.59004 112.689ZM10.9545 112.689L59.25 161.143L59.25 157.951L14.1375 112.69L10.956 112.69L10.9545 112.689ZM17.319 112.689L59.25 154.758L59.25 151.566L20.5005 112.689L17.319 112.689ZM23.6835 112.689L59.25 148.372L59.25 145.179L26.865 112.687L23.6835 112.687L23.6835 112.689ZM30.048 112.689L59.2515 141.988L59.2515 138.796L33.2295 112.689L30.048 112.689ZM36.411 112.689L59.25 135.603L59.25 132.411L39.5925 112.689L36.411 112.689ZM42.7755 112.689L59.2515 129.219L59.2515 126.027L45.9585 112.69L42.7755 112.69L42.7755 112.689ZM49.14 112.689L59.2515 122.833L59.2515 119.641L52.3215 112.69L49.14 112.69L49.14 112.689ZM55.5045 112.689L59.2515 116.448L59.2515 113.256L58.686 112.689L55.5045 112.689Z" fill="white"/>
<path d="M59.25 112.693L59.25 169.129L115.5 169.129L115.5 112.693L59.25 112.693Z" fill="#404852"/>
<path d="M115.5 56.2575L115.5 112.693L171.75 112.693L171.75 56.2575L115.5 56.2575Z" fill="#404852"/>
<path d="M59.25 140.911C74.7825 140.911 87.375 153.545 87.375 169.129L59.25 169.129L59.25 140.911Z" fill="#F06718"/>
<path d="M31.125 112.693C31.125 120.177 34.0875 127.354 39.363 132.646C44.637 137.937 51.7905 140.911 59.25 140.911L59.25 112.693L31.125 112.693Z" fill="#404852"/>
<path d="M115.5 197.346C99.966 197.346 87.375 184.712 87.375 169.129L115.5 169.129L115.5 197.346Z" fill="#404852"/>
<path fill-rule="evenodd" clip-rule="evenodd" d="M17.0625 197.347C20.7915 197.347 24.369 198.834 27.006 201.479C29.643 204.125 31.125 207.714 31.125 211.456C31.125 215.197 29.643 218.786 27.006 221.432C24.369 224.078 20.7915 225.564 17.0625 225.564C13.3335 225.564 9.756 224.078 7.119 221.432C4.482 218.786 3 215.197 3 211.456C3 207.714 4.482 204.125 7.119 201.479C9.756 198.834 13.3335 197.347 17.0625 197.347Z" fill="#F0942D"/>
<path fill-rule="evenodd" clip-rule="evenodd" d="M45.1875 197.347C48.9165 197.347 52.494 198.834 55.131 201.479C57.768 204.125 59.25 207.714 59.25 211.456C59.25 215.197 57.768 218.786 55.131 221.432C52.494 224.078 48.9165 225.564 45.1875 225.564C41.4585 225.564 37.881 224.078 35.244 221.432C32.607 218.786 31.125 215.197 31.125 211.456C31.125 207.714 32.607 204.125 35.244 201.479C37.881 198.834 41.4585 197.347 45.1875 197.347Z" fill="#E7EAED"/>
<path fill-rule="evenodd" clip-rule="evenodd" d="M45.1875 169.129C52.9545 169.129 59.25 175.445 59.25 183.238C59.25 186.979 57.768 190.568 55.131 193.214C52.494 195.86 48.9165 197.346 45.1875 197.346C41.4585 197.346 37.881 195.86 35.244 193.214C32.607 190.568 31.125 186.979 31.125 183.238C31.125 175.445 37.4205 169.129 45.1875 169.129Z" fill="#F8C696"/>
<path d="M115.5 197.347C122.959 197.347 130.113 200.319 135.387 205.612C140.661 210.903 143.625 218.08 143.625 225.564L115.5 225.564L115.5 197.347Z" fill="#F18635"/>
<path d="M171.75 197.346C156.216 197.346 143.625 184.712 143.625 169.129L171.75 169.129L171.75 197.346Z" fill="#E7EAED"/>
<path d="M171.75 197.347C164.29 197.347 157.137 200.319 151.863 205.612C146.589 210.903 143.625 218.08 143.625 225.564L171.75 225.564L171.75 197.347Z" fill="#898F94"/>
<path d="M115.5 112.693L115.5 169.129L143.625 169.129L143.625 112.693L115.5 112.693Z" fill="#F8C696"/>
<path d="M31.125 56.2575L31.125 112.693L59.25 112.693L59.25 56.2575L31.125 56.2575Z" fill="#898F94"/>
<path fill-rule="evenodd" clip-rule="evenodd" d="M17.0625 84.4753C24.8295 84.4753 31.125 90.7916 31.125 98.5842C31.125 102.326 29.643 105.915 27.006 108.561C24.369 111.206 20.7915 112.693 17.0625 112.693C13.3335 112.693 9.756 111.206 7.119 108.561C4.482 105.915 3 102.326 3 98.5842C3 90.7916 9.2955 84.4753 17.0625 84.4753Z" fill="#F06718"/>
<path d="M228 169.129C228 184.097 222.074 198.451 211.524 209.034C200.976 219.618 186.668 225.564 171.75 225.564L171.75 169.129L228 169.129Z" fill="#E7EAED"/>
<path d="M115.5 56.2575L115.5 112.693L59.25 56.2575L115.5 56.2575Z" fill="#F0942D"/>
<path d="M31.125 225.564L31.125 253.782L59.25 253.782L59.25 225.564L31.125 225.564Z" fill="#898F94"/>
<path d="M143.625 112.693L143.625 140.911L171.75 140.911L171.75 112.693L143.625 112.693Z" fill="#F8C696"/>
<path d="M115.5 56.2573L171.75 56.2573L171.75 53.9999L115.5 53.9999L115.5 56.2573ZM115.5 51.7425L171.75 51.7425L171.75 49.485L115.5 49.485L115.5 51.7425ZM115.5 47.2276L171.75 47.2276L171.75 44.9702L115.5 44.9702L115.5 47.2276ZM115.5 42.7128L171.75 42.7128L171.75 40.4553L115.5 40.4553L115.5 42.7128ZM115.5 38.1979L171.75 38.1979L171.75 35.9405L115.5 35.9405L115.5 38.1979ZM115.5 33.6831L171.75 33.6831L171.75 31.4256L115.5 31.4256L115.5 33.6831ZM115.5 29.1682L171.75 29.1682L171.75 26.9108L115.5 26.9108L115.5 29.1682ZM115.5 24.6534L171.75 24.6534L171.75 22.3959L115.5 22.3959L115.5 24.6534ZM115.5 20.1385L171.75 20.1385L171.75 17.8811L115.5 17.8811L115.5 20.1385ZM115.5 15.6237L171.75 15.6237L171.75 13.3662L115.5 13.3662L115.5 15.6237ZM115.5 11.1088L171.75 11.1088L171.75 8.85138L115.5 8.85139L115.5 11.1088ZM115.5 6.59396L171.75 6.59396L171.75 4.33653L115.5 4.33654L115.5 6.59396ZM115.5 2.07911L171.75 2.07911L171.75 -0.178317L115.5 -0.178314L115.5 2.07911Z" fill="#404852"/>
<path d="M115.5 169.696L116.066 169.129L119.247 169.129L115.5 172.888L115.5 169.696ZM115.5 176.08L122.429 169.129L125.612 169.129L115.5 179.274L115.5 176.08ZM115.5 182.466L128.793 169.129L131.975 169.129L115.5 185.658L115.5 182.466ZM115.5 188.851L135.158 169.129L138.341 169.129L115.502 192.043L115.502 188.851L115.5 188.851ZM115.5 195.237L141.521 169.13L144.702 169.13L115.499 198.43L115.499 195.238L115.5 195.237ZM115.5 201.622L147.885 169.13L151.067 169.13L115.5 204.814L115.5 201.621L115.5 201.622ZM115.5 208.008L154.25 169.13L157.431 169.13L115.5 211.2L115.5 208.008ZM115.5 214.393L160.613 169.132L163.794 169.132L115.5 217.587L115.5 214.395L115.5 214.393ZM115.5 220.779L166.977 169.132L170.16 169.132L115.5 223.971L115.5 220.779ZM117.09 225.567L171.75 170.727L171.75 173.92L120.273 225.567L117.09 225.567ZM123.455 225.567L171.75 177.112L171.75 180.306L126.638 225.567L123.456 225.567L123.455 225.567ZM129.819 225.567L171.75 183.498L171.75 186.69L133.001 225.567L129.819 225.567ZM136.184 225.567L171.75 189.883L171.75 193.075L139.365 225.567L136.184 225.567ZM142.548 225.567L171.752 196.267L171.752 199.459L145.73 225.567L142.548 225.567ZM148.913 225.567L171.752 202.653L171.752 205.846L152.094 225.569L148.911 225.569L148.913 225.567ZM155.277 225.567L171.753 209.037L171.753 212.229L158.46 225.566L155.277 225.566L155.277 225.567ZM161.642 225.567L171.753 215.422L171.753 218.614L164.825 225.567L161.642 225.567ZM168.006 225.567L171.753 221.808L171.753 225L171.188 225.567L168.006 225.567Z" fill="white"/>
<path fill-rule="evenodd" clip-rule="evenodd" d="M171.75 56.2575C171.75 71.8413 184.341 84.4753 199.875 84.4753C215.409 84.4753 228 71.8413 228 56.2575L171.75 56.2575Z" fill="#F8C696"/>
<path d="M59.25 225.564L59.25 282L115.5 225.564L59.25 225.564Z" fill="#F8C696"/>
<path d="M3 -0.178314C3 14.7899 8.9265 29.1441 19.476 39.727C30.024 50.3113 44.3325 56.2573 59.25 56.2573L59.25 -0.178317L3 -0.178314Z" fill="#F8C696"/>
<path d="M31.125 225.564L31.125 253.782L3 225.564L31.125 225.564Z" fill="#E7EAED"/>
<path d="M171.75 84.4753L171.75 112.693L228 112.693L228 84.4753L171.75 84.4753Z" fill="#E7EAED"/>
</g>
</g>
<defs>
<clipPath id="clip0_36_46">
<rect width="326" height="282" fill="white"/>
</clipPath>
<clipPath id="clip1_36_46">
<rect width="57" height="540" fill="white" transform="translate(428) rotate(90)"/>
</clipPath>
<clipPath id="clip2_36_46">
<rect width="228" height="225" fill="white" transform="translate(3 282) rotate(-90)"/>
</clipPath>
</defs>
</svg>
