<svg width="107" height="91" viewBox="0 0 107 91" fill="none" xmlns="http://www.w3.org/2000/svg">
<g id="fi_5105165">
<g id="_x31_29_x2C__sql_x2C__file_type_x2C__file_format_x2C__file_extension_x2C__document">
<g id="XMLID_1_">
<g id="XMLID_2795_">
<path id="XMLID_2491_" d="M69.4941 75.7148H16.0553C10.7305 75.7148 6.39844 71.3827 6.39844 66.058V38.3906C6.39844 37.409 7.19433 36.6133 8.17578 36.6133C9.15723 36.6133 9.95312 37.409 9.95312 38.3906V66.058C9.95312 69.4227 12.6904 72.1602 16.0553 72.1602H69.4941C70.9644 72.1602 72.1602 70.9642 72.1602 69.4941V48.166C72.1602 46.696 70.9644 45.5 69.4941 45.5H22.3947C21.4133 45.5 20.6174 44.7043 20.6174 43.7227C20.6174 42.741 21.4133 41.9453 22.3947 41.9453H69.4941C72.9242 41.9453 75.7148 44.7359 75.7148 48.166V69.4941C75.7148 72.9242 72.9242 75.7148 69.4941 75.7148Z" fill="#F06718"/>
</g>
<g id="XMLID_2793_">
<path id="XMLID_2490_" d="M22.3945 45.5H13.5078C9.5877 45.5 6.39844 42.3107 6.39844 38.3906C6.39844 34.4705 9.5877 31.2812 13.5078 31.2812H22.3945C23.3762 31.2812 24.1719 32.077 24.1719 33.0586C24.1719 34.0402 23.3762 34.8359 22.3945 34.8359H13.5078C11.5478 34.8359 9.95312 36.4306 9.95312 38.3906C9.95312 40.3507 11.5478 41.9453 13.5078 41.9453H22.3945C23.3762 41.9453 24.1719 42.741 24.1719 43.7227C24.1719 44.7043 23.3762 45.5 22.3945 45.5Z" fill="#F06718"/>
</g>
<g id="XMLID_2791_">
<path id="XMLID_2489_" d="M77.4922 88.1562H27.7266C23.8065 88.1562 20.6172 84.967 20.6172 81.0469V73.9375C20.6172 72.9559 21.4131 72.1602 22.3945 72.1602C23.3762 72.1602 24.1719 72.9559 24.1719 73.9375V81.0469C24.1719 83.0069 25.7665 84.6016 27.7266 84.6016H77.4922C79.4522 84.6016 81.0469 83.0069 81.0469 81.0469V19.576L67.8691 6.39844H27.7266C25.7665 6.39844 24.1719 7.99307 24.1719 9.95312V43.7225C24.1719 44.7041 23.3762 45.4998 22.3945 45.4998C21.4131 45.4998 20.6172 44.7041 20.6172 43.7225V9.95312C20.6172 6.03302 23.8065 2.84375 27.7266 2.84375H68.6055C69.0768 2.84375 69.5288 3.03108 69.8622 3.36433L84.081 17.5831C84.4142 17.9163 84.6016 18.3685 84.6016 18.8398V81.0469C84.6016 84.967 81.4123 88.1562 77.4922 88.1562Z" fill="#F06718"/>
</g>
<g id="XMLID_2789_">
<path id="XMLID_2488_" d="M81.0469 20.6172H68.6055C67.624 20.6172 66.8281 19.8215 66.8281 18.8398V6.39844C66.8281 5.41681 67.624 4.62109 68.6055 4.62109C69.5869 4.62109 70.3828 5.41681 70.3828 6.39844V17.0625H81.0469C82.0283 17.0625 82.8242 17.8582 82.8242 18.8398C82.8242 19.8215 82.0283 20.6172 81.0469 20.6172Z" fill="#F06718"/>
</g>
<g id="XMLID_2787_">
<path id="XMLID_2487_" d="M45.5 18.8398H31.2812C30.2996 18.8398 29.5039 18.0441 29.5039 17.0625C29.5039 16.0809 30.2996 15.2852 31.2812 15.2852H45.5C46.4814 15.2852 47.2773 16.0809 47.2773 17.0625C47.2773 18.0441 46.4814 18.8398 45.5 18.8398Z" fill="#F06718"/>
</g>
<g id="XMLID_2785_">
<path id="XMLID_2486_" d="M59.7188 25.9492H31.2812C30.2996 25.9492 29.5039 25.1535 29.5039 24.1719C29.5039 23.1902 30.2996 22.3945 31.2812 22.3945H59.7188C60.7002 22.3945 61.4961 23.1902 61.4961 24.1719C61.4961 25.1535 60.7002 25.9492 59.7188 25.9492Z" fill="#F06718"/>
</g>
<g id="XMLID_2180_">
<path id="XMLID_2485_" d="M59.7188 33.0586H31.2812C30.2996 33.0586 29.5039 32.2629 29.5039 31.2812C29.5039 30.2996 30.2996 29.5039 31.2812 29.5039H59.7188C60.7002 29.5039 61.4961 30.2996 61.4961 31.2812C61.4961 32.2629 60.7002 33.0586 59.7188 33.0586Z" fill="#F06718"/>
</g>
<g id="XMLID_8_">
<path id="XMLID_2159_" d="M41.0566 66.8281C37.6265 66.8281 34.8359 64.0375 34.8359 60.6074V55.2754C34.8359 51.8453 37.6265 49.0547 41.0566 49.0547C44.4867 49.0547 47.2773 51.8453 47.2773 55.2754V60.6074C47.2773 64.0375 44.4867 66.8281 41.0566 66.8281ZM41.0566 52.6094C39.5866 52.6094 38.3906 53.8053 38.3906 55.2754V60.6074C38.3906 62.0775 39.5866 63.2734 41.0566 63.2734C42.5267 63.2734 43.7227 62.0775 43.7227 60.6074V55.2754C43.7227 53.8053 42.5267 52.6094 41.0566 52.6094Z" fill="#F06718"/>
</g>
<g id="XMLID_6_">
<path id="XMLID_2482_" d="M46.7891 68.5369L40.5684 66.7596C39.6244 66.49 39.0779 65.5062 39.3477 64.5624C39.6175 63.6187 40.6011 63.0721 41.5449 63.3418L47.7656 65.1191C48.7093 65.3887 49.256 66.3725 48.9862 67.3163C48.7173 68.2575 47.7353 68.8073 46.7891 68.5369Z" fill="#F06718"/>
</g>
<g id="XMLID_4_">
<path id="XMLID_2481_" d="M63.2734 66.8281H54.3867C53.4053 66.8281 52.6094 66.0324 52.6094 65.0508V50.832C52.6094 49.8504 53.4053 49.0547 54.3867 49.0547C55.3682 49.0547 56.1641 49.8504 56.1641 50.832V63.2734H63.2734C64.2549 63.2734 65.0508 64.0692 65.0508 65.0508C65.0508 66.0324 64.2549 66.8281 63.2734 66.8281Z" fill="#F06718"/>
</g>
<g id="XMLID_2_">
<path id="XMLID_2480_" d="M25.9492 66.8281H20.6172C19.6357 66.8281 18.8398 66.0324 18.8398 65.0508C18.8398 64.0692 19.6357 63.2734 20.6172 63.2734H25.9492C26.9292 63.2734 27.7266 62.4761 27.7266 61.4961C27.7266 60.5161 26.9292 59.7188 25.9492 59.7188H24.1719C21.2318 59.7188 18.8398 57.3268 18.8398 54.3867C18.8398 51.4466 21.2318 49.0547 24.1719 49.0547H29.5039C30.4855 49.0547 31.2812 49.8504 31.2812 50.832C31.2812 51.8137 30.4855 52.6094 29.5039 52.6094H24.1719C23.1918 52.6094 22.3945 53.4067 22.3945 54.3867C22.3945 55.3667 23.1918 56.1641 24.1719 56.1641H25.9492C28.8893 56.1641 31.2812 58.556 31.2812 61.4961C31.2812 64.4362 28.8893 66.8281 25.9492 66.8281Z" fill="#F06718"/>
</g>
</g>
</g>
</g>
</svg>
