<svg width="1440" height="810" viewBox="0 0 1440 810" fill="none" xmlns="http://www.w3.org/2000/svg">
<path d="M720.824 271.556L718.412 274.262V289.489L734.362 271.556H720.824ZM747.916 271.556L718.412 304.716V319.943L761.463 271.549H747.916V271.556ZM775.009 271.556L718.42 335.177V350.404L788.555 271.556H775.009ZM802.11 271.556L718.42 365.638V380.865L815.647 271.556H802.11ZM829.202 271.556L718.429 396.092V411.318L842.748 271.549H829.202V271.556ZM856.294 271.556L718.429 426.554V441.779L869.841 271.556H856.286H856.294ZM883.387 271.556L718.429 457.015V472.24L896.933 271.556H883.387ZM910.488 271.556L718.437 487.466V502.692L924.034 271.556H910.488ZM937.58 271.556L718.437 517.927V533.163L951.126 271.556H937.58ZM957.895 279.166L725.206 540.776H738.752L957.895 294.399V279.166ZM957.895 309.626L752.298 540.776H765.845L957.895 324.861V309.626ZM957.895 340.087L779.391 540.776H792.937L957.895 355.314V340.087ZM957.895 370.548L806.483 540.776H820.029L957.895 385.775V370.548ZM957.895 401.009L833.576 540.776H847.122L957.895 416.234V401.009ZM957.895 431.46L860.668 540.776H874.214L957.895 446.686V431.451V431.46ZM957.895 461.921L887.76 540.776H901.298L957.895 477.157V461.921ZM957.895 492.382L914.853 540.776H928.399L957.895 507.618V492.382ZM957.895 522.844L941.945 540.776H955.491L957.895 538.069V522.844Z" fill="#F06718"/>
<path d="M239.485 540.776H0.0190791V809.991H239.485V540.776Z" fill="#404852"/>
<path d="M119.752 540.776C119.752 576.471 132.364 610.706 154.822 635.951C177.281 661.197 207.729 675.383 239.485 675.383L239.485 540.776H119.752Z" fill="#F8C696"/>
<path d="M239.485 2.34103H0.0190791V271.556H239.485V2.34103Z" fill="#404852"/>
<path fill-rule="evenodd" clip-rule="evenodd" d="M239.485 69.6448C239.485 106.818 212.684 136.949 179.618 136.949C163.743 136.949 148.513 129.856 137.287 117.235C126.062 104.615 119.752 87.4925 119.752 69.6448C119.752 51.7979 126.062 34.6758 137.287 22.055C148.513 9.43424 163.743 2.34103 179.618 2.34103C212.684 2.34103 239.485 32.4716 239.485 69.6448Z" fill="#F06718"/>
<path d="M718.412 2.34103H478.95V271.556H718.412V2.34103Z" fill="white"/>
<path fill-rule="evenodd" clip-rule="evenodd" d="M718.412 69.6448C718.412 87.4925 712.102 104.615 700.876 117.235C689.65 129.856 674.427 136.949 658.552 136.949C642.677 136.949 627.445 129.856 616.219 117.235C604.993 104.615 598.683 87.4925 598.683 69.6448C598.683 51.7979 604.993 34.6758 616.219 22.055C627.445 9.43424 642.677 2.34103 658.552 2.34103C674.427 2.34103 689.65 9.43424 700.876 22.055C712.102 34.6758 718.412 51.7979 718.412 69.6448Z" fill="#CFD5DD"/>
<path d="M478.95 2.34103H239.485V271.556H478.95V2.34103Z" fill="#F0B28D"/>
<path d="M241.892 2.34102L239.485 5.04815V20.2749L255.436 2.34102H241.892ZM268.987 2.34102L239.485 35.5017V50.7286L282.53 2.33445H268.987V2.34102ZM296.081 2.34102L239.491 65.9619V81.1887L309.632 2.34102H296.081ZM323.176 2.34102L239.491 96.423V111.657L336.72 2.34851H323.169L323.176 2.34102ZM350.271 2.34102L239.497 126.877V142.111L363.821 2.34102H350.271ZM377.365 2.34102L239.497 157.338V172.564L390.909 2.34102H377.365ZM404.46 2.34102L239.497 187.798V203.025L418.004 2.34102H404.46ZM431.555 2.34102L239.503 218.251V233.478L445.105 2.34102H431.555ZM458.65 2.34102L239.503 248.713V263.947L472.2 2.34102H458.65ZM478.969 9.95116L246.272 271.556H259.823L478.969 25.1854V9.95116ZM478.969 40.4122L273.367 271.556H286.912L478.962 55.6456V40.4188L478.969 40.4122ZM478.969 70.8724L300.462 271.556H314.006L478.969 86.0992V70.8724ZM478.969 101.333L327.557 271.556H341.107L478.975 116.56V101.333H478.969ZM478.969 131.795L354.645 271.563H368.189L478.969 147.021V131.795ZM478.969 162.248L381.739 271.556H395.284L478.969 177.475V162.248ZM478.969 192.708L408.827 271.563H422.372L478.962 207.943V192.708H478.969ZM478.969 223.169L435.922 271.563H449.467L478.962 238.396V223.169H478.969ZM478.969 253.63L463.017 271.563H476.561L478.969 268.857V253.63Z" fill="white"/>
<path d="M718.412 540.776H478.95V809.991H718.412V540.776Z" fill="#404852"/>
<path d="M478.95 136.949C447.193 136.949 416.74 151.127 394.287 176.376C371.835 201.617 359.217 235.855 359.217 271.556H478.95L478.95 136.949Z" fill="#404852"/>
<path d="M119.752 540.776C119.752 466.426 173.361 406.168 239.485 406.168L239.485 540.776H119.752Z" fill="#404852"/>
<path fill-rule="evenodd" clip-rule="evenodd" d="M119.752 69.6448C119.752 87.4925 113.442 104.615 102.217 117.235C90.9906 129.856 75.7602 136.949 59.8853 136.949C44.0105 136.949 28.7808 129.856 17.5549 117.235C6.32813 104.615 0.0190791 87.4925 0.0190791 69.6448C0.0190791 51.7979 6.32813 34.6758 17.5549 22.055C28.7808 9.43424 44.0105 2.34103 59.8853 2.34103C75.7602 2.34103 90.9906 9.43424 102.217 22.055C113.442 34.6758 119.752 51.7979 119.752 69.6448Z" fill="#F0942D"/>
<path fill-rule="evenodd" clip-rule="evenodd" d="M119.752 204.252C119.752 222.1 113.442 239.221 102.217 251.842C90.9906 264.463 75.7602 271.556 59.8853 271.556C44.0105 271.556 28.7808 264.463 17.5549 251.842C6.32813 239.221 0.0190791 222.1 0.0190791 204.252C0.0190791 186.405 6.32813 169.283 17.5549 156.663C28.7808 144.042 44.0105 136.949 59.8853 136.949C75.7602 136.949 90.9906 144.042 102.217 156.663C113.442 169.283 119.752 186.405 119.752 204.252Z" fill="#E7EAED"/>
<path fill-rule="evenodd" clip-rule="evenodd" d="M239.485 204.252C239.485 241.425 212.684 271.556 179.618 271.556C163.743 271.556 148.513 264.463 137.287 251.842C126.062 239.221 119.752 222.1 119.752 204.252C119.752 186.405 126.062 169.283 137.287 156.663C148.513 144.042 163.743 136.949 179.618 136.949C212.684 136.949 239.485 167.079 239.485 204.252Z" fill="#F8C696"/>
<path d="M119.752 540.776C119.752 576.471 107.14 610.706 84.6816 635.951C62.229 661.197 31.7755 675.383 0.0190791 675.383V540.776H119.752Z" fill="#F18635"/>
<path d="M119.752 809.991C119.752 735.641 173.361 675.383 239.485 675.383L239.485 809.991L119.752 809.991Z" fill="#E7EAED"/>
<path d="M119.752 809.991C119.752 774.286 107.14 740.051 84.6816 714.806C62.229 689.56 31.7755 675.383 0.0190791 675.383V809.991L119.752 809.991Z" fill="#898F94"/>
<path d="M478.95 540.776H239.485L239.485 675.383H478.95V540.776Z" fill="#F8C696"/>
<path d="M718.412 136.949H478.95L478.95 271.556H718.412V136.949Z" fill="#898F94"/>
<path fill-rule="evenodd" clip-rule="evenodd" d="M598.683 69.6448C598.683 106.818 571.881 136.949 538.816 136.949C522.941 136.949 507.71 129.856 496.485 117.235C485.259 104.615 478.95 87.4925 478.95 69.6448C478.95 51.7979 485.259 34.6758 496.485 22.055C507.71 9.43424 522.941 2.34103 538.816 2.34103C571.881 2.34103 598.683 32.4716 598.683 69.6448Z" fill="#F06718"/>
<path d="M478.95 675.383L359.217 675.383V809.991L478.95 809.991V675.383Z" fill="#F8C696"/>
<path d="M718.412 540.776V809.991H727.994V540.776H718.412ZM737.575 540.776V809.991H747.149V540.776H737.575ZM756.73 540.776V809.991H766.304V540.776H756.73ZM775.885 540.776V809.991H785.467V540.776H775.885ZM795.04 540.776V809.991H804.622V540.776H795.04ZM814.204 540.776V809.991H823.777V540.776H814.204ZM833.359 540.776V809.991H842.94V540.776H833.359ZM852.514 540.776V809.991H862.095V540.776H852.514ZM871.669 540.776V809.991H881.25V540.776H871.669ZM890.832 540.776V809.991H900.405V540.776H890.832ZM909.987 540.776V809.991H919.568V540.776H909.987ZM929.142 540.776V809.991H938.723V540.776H929.142ZM948.297 540.776V809.991H957.878V540.776H948.297Z" fill="#404852"/>
<path d="M237.077 540.776L239.485 543.482V558.708L223.533 540.776H237.077ZM209.989 540.776L239.485 573.934V589.169L196.438 540.776H209.989ZM182.894 540.776L239.485 604.395V619.62L169.35 540.776H182.894ZM155.8 540.776L239.485 634.856V650.091L142.255 540.776H155.8ZM239.478 665.307V680.533L115.154 540.766H128.698L239.478 665.307ZM101.61 540.776L239.478 695.769V710.994L88.0662 540.776H101.617H101.61ZM74.5158 540.776L239.478 726.23V741.455L60.9713 540.776H74.5158ZM47.4209 540.776L239.472 756.681V771.907L33.8705 540.776H47.4209ZM20.326 540.776L239.472 787.142V802.378L6.78226 540.776H20.326ZM0.00667345 548.379L232.703 809.991H219.152L0.00667345 563.614V548.379ZM0.00667345 578.84L205.608 809.991H192.057L0.00667345 594.075V578.84ZM0.00667345 609.301L178.514 809.991H164.969L0.00667345 624.527V609.301ZM0.00667345 639.762L151.419 809.991H137.875L0.00667345 654.988V639.762ZM0.00667345 670.223L124.33 809.991H110.787L0.00667345 685.449V670.223ZM97.2355 809.991H83.6851L0 715.91V700.675L97.2355 809.991ZM0.00667345 731.146L70.1473 810H56.6036L0.0133469 746.381V731.146H0.00667345ZM0.00667345 761.607L43.0532 810H29.5087L0.00667345 776.842V761.607ZM0.00667345 792.068L15.9583 810H2.41378L0.00667345 807.294V792.068Z" fill="white"/>
<path d="M957.878 2.34103C894.371 2.34103 833.459 30.7055 788.555 81.1962C743.643 131.679 718.412 200.16 718.412 271.556H957.878V2.34103Z" fill="#F8C696"/>
<path d="M716.008 271.556L718.412 274.262V289.489L702.462 271.556H716.008ZM688.916 271.556L718.412 304.716V319.943L675.37 271.549H688.916V271.556ZM661.815 271.556L718.412 335.177V350.404L648.277 271.556H661.815ZM634.723 271.556L718.412 365.638V380.865L621.176 271.556H634.723ZM718.404 396.092V411.318L594.078 271.549H607.622L718.404 396.092ZM580.534 271.556L718.404 426.554V441.779L566.99 271.556H580.54H580.534ZM553.439 271.556L718.404 457.015V472.24L539.895 271.556H553.439ZM526.345 271.556L718.395 487.466V502.692L512.8 271.556H526.345ZM499.25 271.556L718.395 517.927V533.163L485.699 271.556H499.25ZM478.931 279.166L711.626 540.776H698.08L478.936 294.399V279.173L478.931 279.166ZM478.931 309.626L684.534 540.776H670.979L478.931 324.861V309.626ZM478.931 340.087L657.433 540.776H643.895L478.931 355.314V340.087ZM478.931 370.548L630.341 540.776H616.795L478.931 385.775V370.548ZM478.931 401.009L603.257 540.776H589.71L478.931 416.234V401.009ZM478.931 431.46L576.159 540.776H562.616L478.931 446.686V431.451V431.46ZM478.931 461.921L549.071 540.776H535.527L478.936 477.157V461.931L478.931 461.921ZM478.931 492.382L521.976 540.776H508.433L478.931 507.618V492.382ZM478.931 522.844L494.882 540.776H481.338L478.931 538.069V522.844Z" fill="#F0942D"/>
<path d="M478.95 271.556H239.485V540.776H478.95V271.556Z" fill="#404852"/>
<path d="M359.217 271.556C359.217 345.896 305.608 406.168 239.485 406.168L239.485 271.556H359.217Z" fill="#F06718"/>
<path d="M718.412 540.776H478.95L718.412 271.556V540.776Z" fill="#F0942D"/>
<path d="M958.663 538.435L961.075 535.719V520.493L945.125 538.435H958.663ZM931.571 538.435L961.075 505.267V490.041L918.025 538.435H931.571ZM904.479 538.435L961.067 474.806V459.58L890.932 538.435H904.479ZM877.378 538.435L961.067 444.345V429.119L863.84 538.435H877.378ZM850.285 538.435L961.059 413.893V398.668L836.739 538.435H850.285ZM823.193 538.435L961.059 383.434V368.207L809.647 538.435H823.201H823.193ZM796.1 538.435L961.059 352.973V337.746L782.554 538.435H796.1ZM769 538.435L961.05 322.52V307.293L755.454 538.435H769ZM741.907 538.435L961.05 292.059V276.825L728.361 538.435H741.907ZM721.592 530.822L954.281 269.215H940.735L721.592 515.586V530.822ZM721.592 500.361L927.189 269.215H913.643L721.592 485.125V500.361ZM721.592 469.899L900.097 269.215H886.55L721.592 454.674V469.899ZM721.592 439.438L873.004 269.215H859.458L721.592 424.213V439.438ZM721.592 408.977L845.912 269.208H832.366L721.592 393.75V408.977ZM721.592 378.524L818.819 269.215H805.273L721.592 363.297V378.531V378.524ZM721.592 348.063L791.727 269.208H778.189L721.592 332.829V348.063ZM721.592 317.603L764.635 269.208H751.088L721.592 302.368V317.603ZM721.592 287.141L737.542 269.208H723.996L721.592 271.915V287.141Z" fill="#F06718"/>
<path d="M963.479 538.435L961.075 535.719V520.493L977.025 538.435H963.479ZM990.571 538.435L961.075 505.267V490.041L1004.12 538.435H990.571ZM1017.67 538.435L961.075 474.806V459.58L1031.21 538.435H1017.67ZM1044.76 538.435L961.075 444.345V429.119L1058.31 538.435H1044.76ZM961.083 413.893V398.668L1085.41 538.435H1071.87L961.083 413.893ZM1098.95 538.435L961.083 383.434V368.207L1112.5 538.435H1098.95ZM1126.05 538.435L961.083 352.973V337.746L1139.6 538.435H1126.05ZM1153.14 538.435L961.092 322.52V307.293L1166.69 538.435H1153.14ZM1180.23 538.435L961.092 292.059V276.825L1193.79 538.435H1180.23ZM1200.56 530.822L967.861 269.215H981.407L1200.55 515.586V530.812L1200.56 530.822ZM1200.56 500.361L994.953 269.215H1008.51L1200.56 485.125V500.361ZM1200.56 469.899L1022.05 269.215H1035.59L1200.56 454.674V469.899ZM1200.56 439.438L1049.15 269.215H1062.69L1200.56 424.213V439.438ZM1200.56 408.977L1076.23 269.208H1089.78L1200.56 393.75V408.977ZM1200.56 378.524L1103.33 269.215H1116.87L1200.56 363.297V378.531V378.524ZM1200.56 348.063L1130.42 269.208H1143.96L1200.55 332.829V348.056L1200.56 348.063ZM1200.56 317.603L1157.51 269.208H1171.05L1200.56 302.368V317.603ZM1200.56 287.141L1184.61 269.208H1198.15L1200.56 271.915V287.141Z" fill="#F0942D"/>
<path d="M961.075 807.65H1200.54V538.435H961.075V807.65Z" fill="white"/>
<path fill-rule="evenodd" clip-rule="evenodd" d="M961.075 740.341C961.075 722.493 967.385 705.376 978.611 692.753C989.837 680.131 1005.06 673.042 1020.94 673.042C1036.81 673.042 1052.04 680.131 1063.27 692.753C1074.49 705.376 1080.8 722.493 1080.8 740.341C1080.8 758.189 1074.49 775.306 1063.27 787.929C1052.04 800.552 1036.81 807.65 1020.94 807.65C1005.06 807.65 989.837 800.552 978.611 787.929C967.385 775.306 961.075 758.189 961.075 740.341Z" fill="#CFD5DD"/>
<path d="M1200.54 807.65H1440V538.435H1200.54V807.65Z" fill="#F0B28D"/>
<path d="M1437.6 807.65L1440 804.934V789.708L1424.05 807.65H1437.6ZM1410.5 807.65L1440 774.482V759.256L1396.96 807.65H1410.5ZM1383.4 807.65L1440 744.021V728.795L1369.86 807.65H1383.4ZM1356.31 807.65L1440 713.56V698.334L1342.76 807.64H1356.32L1356.31 807.65ZM1329.22 807.65L1439.99 683.108V667.873L1315.66 807.65H1329.22ZM1302.13 807.65L1439.99 652.647V637.421L1288.58 807.65H1302.13ZM1275.03 807.65L1439.99 622.186V606.96L1261.49 807.65H1275.03ZM1247.93 807.65L1439.98 591.734V576.509L1234.38 807.65H1247.93ZM1220.84 807.65L1439.98 561.273V546.038L1207.29 807.65H1220.84ZM1200.52 800.037L1433.21 538.435H1419.67L1200.52 784.801V800.037ZM1200.52 769.576L1406.12 538.435H1392.58L1200.53 754.34V769.566L1200.52 769.576ZM1200.52 739.114L1379.03 538.435H1365.48L1200.52 723.888V739.114ZM1200.52 708.653L1351.93 538.435H1338.38L1200.51 693.428V708.653H1200.52ZM1200.52 678.192L1324.84 538.425H1311.3L1200.52 662.966V678.192ZM1200.52 647.741L1297.74 538.435H1284.21L1200.52 632.515V647.741ZM1200.52 617.279L1270.66 538.425H1257.11L1200.53 602.044V617.279H1200.52ZM1200.52 586.818L1243.57 538.425H1230.02L1200.53 571.593V586.818H1200.52ZM1200.52 556.357L1216.47 538.425H1202.93L1200.52 541.131V556.357Z" fill="white"/>
<path d="M1200.54 538.435H1440V269.215H1200.54L1200.54 538.435Z" fill="#404852"/>
<path d="M961.075 269.215L1200.54 269.215L1200.54 0H961.075V269.215Z" fill="#404852"/>
<path d="M1200.54 673.042C1232.29 673.042 1262.75 658.856 1285.2 633.61C1307.65 608.365 1320.27 574.13 1320.27 538.435H1200.54L1200.54 673.042Z" fill="#404852"/>
<path d="M1200.54 269.215H1440V134.608H1200.54V269.215Z" fill="#F8C696"/>
<path d="M961.075 673.042H1200.54L1200.54 538.435H961.075V673.042Z" fill="#898F94"/>
<path fill-rule="evenodd" clip-rule="evenodd" d="M1080.8 740.341C1080.8 703.166 1107.6 673.042 1140.67 673.042C1156.55 673.042 1171.78 680.131 1183.01 692.753C1194.23 705.376 1200.54 722.493 1200.54 740.341C1200.54 758.189 1194.23 775.306 1183.01 787.929C1171.78 800.552 1156.55 807.65 1140.67 807.65C1107.6 807.65 1080.8 777.516 1080.8 740.341Z" fill="#F06718"/>
<path d="M961.075 269.215L1200.54 269.215L961.075 538.435V269.215Z" fill="#F0942D"/>
<path d="M1200.54 134.608L1320.27 134.607V0H1200.54L1200.54 134.608Z" fill="#F8C696"/>
<path d="M961.075 269.215V0H951.493V269.215H961.075ZM941.912 269.215V0H932.338V269.215H941.912ZM922.757 269.215V0H913.183V269.215H922.757ZM903.602 269.215V0H894.02V269.215H903.602ZM884.447 269.215V0H874.865V269.215H884.447ZM865.283 269.215V0H855.71V269.215H865.283ZM846.128 269.215V0H836.547V269.215H846.128ZM826.973 269.215V0H817.392V269.215H826.973ZM807.818 269.215V0H798.237V269.215H807.818ZM788.655 269.215V0H779.082V269.215H788.655ZM769.5 269.215V0H759.918V269.215H769.5ZM750.345 269.215V0H740.763V269.215H750.345ZM731.182 269.215V0H721.608V269.215H731.182Z" fill="#404852"/>
<path d="M721.608 807.65C785.116 807.65 846.028 779.277 890.932 728.786C935.844 678.305 961.075 609.826 961.075 538.435H721.608V807.65Z" fill="#F8C696"/>
</svg>
